<?xml version="1.0" standalone="no"?>
<!DOCTYPE svg PUBLIC "-//W3C//DTD SVG 1.1//EN" "http://www.w3.org/Graphics/SVG/1.1/DTD/svg11.dtd" >
<svg xmlns="http://www.w3.org/2000/svg" xmlns:xlink="http://www.w3.org/1999/xlink" version="1.1">
<metadata>
Created by FontForge 20170731 at Fri Jul 31 19:11:59 2020
 By Aleksey,,,
Copyright 2020 Dinamo (Johannes Breyer, Fabian Harb). All rights reserved.
</metadata>
<defs>
<font id="." horiz-adv-x="676" >
  <font-face 
    font-family="."
    font-weight="700"
    font-stretch="normal"
    units-per-em="1000"
    panose-1="2 11 0 4 3 2 2 6 2 4"
    ascent="790"
    descent="-210"
    x-height="585"
    cap-height="701"
    bbox="-204 -242 3019 979"
    underline-thickness="50"
    underline-position="-150"
    unicode-range="U+0020-FB02"
  />
<missing-glyph horiz-adv-x="828" 
d="M752 0h-676v700h676v-700zM281 523v-346h266v346h-266z" />
    <glyph glyph-name="uniFB01" unicode="fi" horiz-adv-x="1011" 
d="M414 499h220v-170h-216v-329h-244v329h-160v170h157q-1 8 -1 24q0 112 77 171t221 59q108 0 177 -37v-157q-46 26 -113 26q-118 0 -118 -86zM737.5 610q-37.5 28 -37.5 72q0 43 38 70.5t96 27.5t94.5 -27.5t36.5 -70.5q0 -44 -36.5 -72t-94.5 -28q-59 0 -96.5 28zM955 0
h-245v545h245v-545z" />
    <glyph glyph-name="uniFB02" unicode="fl" horiz-adv-x="1010" 
d="M414 499h220v-170h-216v-329h-244v329h-160v170h157q-1 8 -1 24q0 112 77 171t221 59q108 0 177 -37v-157q-46 26 -113 26q-118 0 -118 -86zM954 0h-244v720h244v-720z" />
    <glyph glyph-name="f_f.liga" unicode="ff" horiz-adv-x="1174" 
d="M934 499h220v-170h-216v-329h-244v329h-276v-329h-244v329h-160v170h157q-1 8 -1 24q0 112 77 171t221 59q108 0 177 -37v-157q-46 26 -113 26q-118 0 -118 -86h277q-1 8 -1 24q0 112 77 171t221 59q108 0 177 -37v-157q-46 26 -113 26q-118 0 -118 -86z" />
    <glyph glyph-name="f_f_i.liga" unicode="ffi" horiz-adv-x="1531" 
d="M934 499h220v-170h-216v-329h-244v329h-276v-329h-244v329h-160v170h157q-1 8 -1 24q0 112 77 171t221 59q108 0 177 -37v-157q-46 26 -113 26q-118 0 -118 -86h277q-1 8 -1 24q0 112 77 171t221 59q108 0 177 -37v-157q-46 26 -113 26q-118 0 -118 -86zM1257.5 610
q-37.5 28 -37.5 72q0 43 38 70.5t96 27.5t94.5 -27.5t36.5 -70.5q0 -44 -36.5 -72t-94.5 -28q-59 0 -96.5 28zM1475 0h-245v545h245v-545z" />
    <glyph glyph-name="f_f_l.liga" unicode="ffl" horiz-adv-x="1530" 
d="M934 499h220v-170h-216v-329h-244v329h-276v-329h-244v329h-160v170h157q-1 8 -1 24q0 112 77 171t221 59q108 0 177 -37v-157q-46 26 -113 26q-118 0 -118 -86h277q-1 8 -1 24q0 112 77 171t221 59q108 0 177 -37v-157q-46 26 -113 26q-118 0 -118 -86zM1474 0h-244v720
h244v-720z" />
    <glyph glyph-name="w_w_w.liga" unicode="www" horiz-adv-x="3009" 
d="M2688 232l87 353h244l-185 -585h-270l-117 352l-112 -352h-259l-95 343l-91 -343h-270l-117 352l-112 -352h-259l-100 341l-96 -341h-270l-117 352l-112 -352h-259l-191 585h255l83 -352l108 352h248l109 -353l87 353h319l83 -352l108 352h248l109 -353l87 353h309
l83 -352l108 352h248z" />
    <glyph glyph-name=".notdef" horiz-adv-x="828" 
d="M752 0h-676v700h676v-700zM281 523v-346h266v346h-266z" />
    <glyph glyph-name=".null" horiz-adv-x="0" 
 />
    <glyph glyph-name="nonmarkingreturn" horiz-adv-x="333" 
 />
    <glyph glyph-name="space" unicode=" " horiz-adv-x="262" 
 />
    <glyph glyph-name="exclam" unicode="!" horiz-adv-x="370" 
d="M307 226h-243v474h243v-474zM83 8q-39 28 -39 72q0 43 39 70.5t102 27.5q62 0 101 -27.5t39 -70.5q0 -44 -39 -72t-101 -28q-63 0 -102 28z" />
    <glyph glyph-name="quotedbl" unicode="&#x22;" horiz-adv-x="611" 
d="M277 406h-223v334h223v-334zM557 406h-223v334h223v-334z" />
    <glyph glyph-name="numbersign" unicode="#" horiz-adv-x="836" 
d="M271 0h-188l40 163h-86v137h119l28 118h-92v136h126l35 146h188l-35 -146h102l36 146h188l-36 -146h116l-36 -136h-113l-28 -118h109l-36 -137h-107l-39 -163h-188l40 163h-103zM368 423l-30 -128h113l30 128h-113z" />
    <glyph glyph-name="dollar" unicode="$" horiz-adv-x="741" 
d="M642.5 58q-70.5 -59 -190.5 -74v-103h-137v100q-79 7 -147 28t-119 53v170q64 -39 141 -62t157 -23q57 0 84.5 10.5t27.5 32.5q0 19 -19 31t-68 19l-97 17q-120 21 -175.5 72.5t-55.5 135.5q0 86 68.5 142.5t202.5 69.5v109h137v-109q127 -10 221 -64v-164
q-44 24 -110 41t-143 17q-124 0 -124 -40q0 -17 16.5 -25t62.5 -15l108 -17q119 -19 174.5 -67.5t55.5 -136.5q0 -89 -70.5 -148z" />
    <glyph glyph-name="percent" unicode="%" horiz-adv-x="1318" 
d="M153 244.5q-59 30.5 -92.5 85.5t-33.5 128q0 72 33.5 127t93 85t133.5 30t133 -30t92.5 -85.5t33.5 -127.5t-33.5 -127.5t-92.5 -85.5t-133 -30q-75 0 -134 30.5zM582 0h-194l339 665h192zM342.5 380q19.5 27 19.5 77q0 51 -19.5 78.5t-56.5 27.5q-36 0 -55.5 -27
t-19.5 -78t19.5 -78t55.5 -27q37 0 56.5 27zM896.5 15q-58.5 30 -92 85.5t-33.5 127.5t33.5 127.5t92 86t132.5 30.5q75 0 134.5 -30.5t93 -86t33.5 -127.5t-34 -127t-93 -85.5t-134 -30.5q-74 0 -132.5 30zM1085.5 150q19.5 27 19.5 78t-19.5 78t-56.5 27q-36 0 -55 -27
t-19 -78t19 -78t55 -27q37 0 56.5 27z" />
    <glyph glyph-name="ampersand" unicode="&#x26;" horiz-adv-x="1061" 
d="M1043 451v-152h-134v-299h-223v137q-46 -79 -139 -119.5t-216 -40.5q-88 0 -155 26.5t-104 73t-37 105.5q0 63 41.5 108t116.5 60q-56 18 -91.5 60.5t-35.5 99.5q0 60 39.5 107.5t115 75t181.5 27.5q77 0 141.5 -11t108.5 -31v-160q-29 17 -82 29t-109 12
q-70 0 -104 -17.5t-34 -46.5q0 -25 24.5 -40t75.5 -15h263v117l223 28v-134h134zM609 194q67 38 76 115h-261q-65 0 -95.5 -21.5t-30.5 -53.5q0 -36 37 -57t103 -21q104 0 171 38z" />
    <glyph glyph-name="quotesingle" unicode="'" horiz-adv-x="331" 
d="M277 406h-223v334h223v-334z" />
    <glyph glyph-name="parenleft" unicode="(" horiz-adv-x="445" 
d="M237 -120q-84 78 -144 196.5t-60 267.5q0 136 56.5 251t145.5 194h215q-75 -77 -125 -191.5t-50 -252.5q0 -143 48.5 -258.5t126.5 -206.5h-213z" />
    <glyph glyph-name="parenright" unicode=")" horiz-adv-x="446" 
d="M-5 -120q78 91 126.5 206.5t48.5 258.5q0 138 -50 252.5t-125 191.5h215q89 -79 145.5 -194t56.5 -251q0 -149 -60 -267.5t-144 -196.5h-213z" />
    <glyph glyph-name="asterisk" unicode="*" horiz-adv-x="526" 
d="M356 594l139 20v-130l-140 18l83 -100l-126 -65l-48 106l-49 -106l-126 65l82 100l-141 -18v130l142 -20l-83 96l124 65l50 -108l51 108l124 -65z" />
    <glyph glyph-name="plus" unicode="+" 
d="M438 416h213v-189h-213v-178h-199v178h-214v189h214v179h199v-179z" />
    <glyph glyph-name="comma" unicode="," horiz-adv-x="352" 
d="M164 -150h-161l69 360h252z" />
    <glyph glyph-name="hyphen" unicode="-" horiz-adv-x="571" 
d="M515 234h-459v204h459v-204z" />
    <glyph glyph-name="period" unicode="." horiz-adv-x="339" 
d="M98 -4.5q-32 15.5 -50.5 42.5t-18.5 59q0 49 40.5 82.5t100.5 33.5t100 -33.5t40 -82.5q0 -50 -40 -83.5t-100 -33.5q-40 0 -72 15.5z" />
    <glyph glyph-name="slash" unicode="/" horiz-adv-x="593" 
d="M274 -120h-254l299 920h254z" />
    <glyph glyph-name="zero" unicode="0" horiz-adv-x="797" 
d="M209 26q-82 44 -127 122.5t-45 180.5q0 103 45 183.5t127 125.5t189 45q108 0 190 -45t126.5 -125.5t44.5 -184.5q0 -101 -44.5 -180t-126.5 -122.5t-190 -43.5q-107 0 -189 44zM488 212.5q31 42.5 31 115.5q0 76 -31 121.5t-90 45.5q-57 0 -89 -45.5t-32 -120.5
q0 -74 32 -116.5t89 -42.5q59 0 90 42.5z" />
    <glyph glyph-name="one" unicode="1" horiz-adv-x="541" 
d="M25 530l254 137h195v-667h-233v454l-216 -117v193z" />
    <glyph glyph-name="two" unicode="2" horiz-adv-x="666" 
d="M346 154h275v-154h-571v134l190 117q74 43 102.5 76.5t28.5 74.5q0 42 -31 67t-91 25q-55 0 -108.5 -20.5t-91.5 -52.5v186q116 76 268 76q92 0 159 -28.5t102 -80.5t35 -121q0 -74 -47.5 -135.5t-148.5 -121.5z" />
    <glyph glyph-name="three" unicode="3" horiz-adv-x="679" 
d="M601 298q40 -44 40 -109q0 -61 -40.5 -108t-114.5 -73t-172 -26q-157 0 -265 61v142q32 -20 86.5 -34t123.5 -14q64 0 97.5 19t33.5 53q0 57 -96 57h-191l30 133h150q53 0 75.5 15t22.5 42q0 28 -30.5 44t-93.5 16q-66 0 -120.5 -15t-86.5 -36v165q53 25 123 39t145 14
q96 0 164.5 -23.5t103.5 -65t35 -94.5q0 -54 -34.5 -92t-100.5 -50q75 -16 115 -60z" />
    <glyph glyph-name="four" unicode="4" horiz-adv-x="742" 
d="M607 282h110v-144h-110v-138h-215v138h-369v163l276 365h308v-384zM392 517l-169 -235h169v235z" />
    <glyph glyph-name="five" unicode="5" horiz-adv-x="686" 
d="M541.5 402q54.5 -26 83 -72t28.5 -107q0 -70 -40 -125t-116.5 -85.5t-181.5 -30.5q-76 0 -150 18.5t-114 46.5v151q89 -52 221 -52q72 0 109 21.5t37 55.5q0 36 -35 56.5t-107 20.5q-60 0 -115 -10.5t-96 -27.5v404h554v-169h-364v-102q66 33 157 33q75 0 129.5 -26z" />
    <glyph glyph-name="six" unicode="6" horiz-adv-x="754" 
d="M599 415q55 -26 86 -74.5t31 -114.5q0 -72 -42 -128.5t-118 -88.5t-176 -32q-98 0 -175.5 36t-122 109.5t-44.5 183.5q0 120 49.5 205.5t137.5 129.5t203 44q77 0 145 -15.5t111 -42.5v-180q-37 26 -93 43t-119 17q-95 0 -148 -46.5t-58 -123.5q26 48 80 76t128 28
q70 0 125 -26zM458 162.5q31 26.5 31 67.5t-29.5 67t-78.5 26q-46 0 -76.5 -26.5t-30.5 -66.5q0 -41 30 -67.5t77 -26.5q46 0 77 26.5z" />
    <glyph glyph-name="seven" unicode="7" horiz-adv-x="647" 
d="M32 493v173h591v-181l-313 -485h-266l350 493h-362z" />
    <glyph glyph-name="eight" unicode="8" horiz-adv-x="743" 
d="M668.5 289.5q35.5 -41.5 35.5 -105.5q0 -59 -39.5 -106t-115 -74t-177.5 -27t-177 27t-115.5 74.5t-40.5 106.5q0 63 36 104.5t118 60.5q-74 19 -106.5 55.5t-32.5 90.5q0 53 38 96t110 68t170 25q97 0 168.5 -25t109.5 -68t38 -96t-32.5 -90t-104.5 -56
q82 -19 117.5 -60.5zM302 510q-25 -20 -25 -53q0 -34 25.5 -54.5t69.5 -20.5q43 0 68 20.5t25 54.5q0 33 -25 53t-68 20q-45 0 -70 -20zM450.5 153.5q29.5 21.5 29.5 55.5q0 37 -29 59t-79 22q-51 0 -80 -22t-29 -59q0 -33 29.5 -55t79.5 -22q49 0 78.5 21.5z" />
    <glyph glyph-name="nine" unicode="9" horiz-adv-x="749" 
d="M546.5 649.5q76.5 -35.5 120.5 -109.5t44 -185q0 -120 -48.5 -205t-135 -129t-199.5 -44q-75 0 -143 18t-113 48v165q37 -30 93 -48.5t119 -18.5q98 0 148.5 48.5t50.5 137.5v11q-21 -58 -73.5 -91t-127.5 -33q-71 0 -126 26t-86.5 74.5t-31.5 114.5q0 74 41 132t117 91
t177 33q97 0 173.5 -35.5zM445.5 358.5q29.5 26.5 29.5 68.5q0 41 -29.5 68.5t-74.5 27.5q-47 0 -76.5 -27.5t-29.5 -70.5q0 -41 28.5 -67t75.5 -26t76.5 26.5z" />
    <glyph glyph-name="colon" unicode=":" horiz-adv-x="369" 
d="M113 -4.5q-32 15.5 -50.5 42.5t-18.5 59q0 49 40.5 82.5t100.5 33.5t100 -33.5t40 -82.5q0 -50 -40 -83.5t-100 -33.5q-40 0 -72 15.5zM113 351.5q-32 15.5 -50.5 42.5t-18.5 59q0 49 40.5 82.5t100.5 33.5t100 -33.5t40 -82.5q0 -50 -40 -83.5t-100 -33.5
q-40 0 -72 15.5z" />
    <glyph glyph-name="semicolon" unicode=";" horiz-adv-x="368" 
d="M170 -150h-161l69 360h252zM123 347.5q-32 15.5 -50.5 42.5t-18.5 59q0 49 40.5 82.5t100.5 33.5t100 -33.5t40 -82.5q0 -50 -40 -83.5t-100 -33.5q-40 0 -72 15.5z" />
    <glyph glyph-name="less" unicode="&#x3c;" 
d="M33 447l596 210v-227l-326 -91l326 -91v-229l-596 210v218z" />
    <glyph glyph-name="equal" unicode="=" 
d="M651 97h-626v189h626v-189zM651 357h-626v189h626v-189z" />
    <glyph glyph-name="greater" unicode="&#x3e;" 
d="M47 430v227l596 -210v-218l-596 -210v229l326 91z" />
    <glyph glyph-name="question" unicode="?" horiz-adv-x="684" 
d="M500 694.5q78 -30.5 118 -83t40 -116.5q0 -60 -29 -105t-82.5 -69.5t-122.5 -24.5h-40v-70h-243v180h128q69 0 99 18t30 52q0 74 -137 74q-76 0 -136 -18.5t-92 -41.5v168q112 67 278 67q111 0 189 -30.5zM366 150.5q39 -27.5 39 -70.5q0 -44 -39 -72t-101 -28
q-63 0 -102 28t-39 72q0 43 39 70.5t102 27.5q62 0 101 -27.5z" />
    <glyph glyph-name="at" unicode="@" horiz-adv-x="1033" 
d="M986 135h-234v65q-26 -40 -77 -61.5t-122 -21.5q-62 0 -110 21.5t-75 61t-27 91.5q0 50 27 91t76 64t114 23q131 0 191 -71q-8 68 -63 109t-155 41q-89 0 -157.5 -34t-106 -93.5t-37.5 -133.5q0 -78 42 -139.5t129.5 -96.5t217.5 -35q85 0 187.5 21.5t179.5 57.5v-159
q-88 -44 -190 -66.5t-209 -22.5q-173 0 -298 51.5t-191 147.5t-66 228q0 125 62.5 222.5t180 153t277.5 55.5q140 0 237.5 -40.5t147 -113.5t49.5 -170v-246zM723 259q29 18 29 47q0 28 -28 45.5t-75 17.5q-43 0 -69 -17.5t-26 -46.5t25.5 -46.5t67.5 -17.5q47 0 76 18z" />
    <glyph glyph-name="A" unicode="A" horiz-adv-x="853" 
d="M851 0h-254l-43 134h-263l-43 -134h-247l247 700h358zM423 541l-86 -267h172z" />
    <glyph glyph-name="B" unicode="B" horiz-adv-x="859" 
d="M791 324.5q37 -45.5 37 -112.5q0 -96 -79.5 -154t-239.5 -58h-443v700h457q90 0 152.5 -23t94 -63t31.5 -91q0 -52 -31 -87.5t-90 -49.5q74 -16 111 -61.5zM311 537v-116h144q80 0 80 55q0 31 -19.5 46t-62.5 15h-142zM456 163q53 0 78 17t25 52q0 30 -23.5 45t-72.5 15
h-152v-129h145z" />
    <glyph glyph-name="C" unicode="C" horiz-adv-x="846" 
d="M243 25q-103 48 -157 131.5t-54 189.5q0 107 55 192.5t159.5 135t249.5 49.5q89 0 162.5 -17.5t139.5 -50.5v-207q-43 30 -106.5 48.5t-135.5 18.5q-118 0 -184.5 -45t-66.5 -118q0 -49 30 -86t86.5 -58t134.5 -21q74 0 138 20t106 53v-202q-72 -42 -145 -61.5
t-166 -19.5q-143 0 -246 48z" />
    <glyph glyph-name="D" unicode="D" horiz-adv-x="922" 
d="M66 0v700h390q141 0 238.5 -44t146 -122.5t48.5 -179.5q0 -99 -50.5 -179.5t-154 -127.5t-256.5 -47h-362zM424 178q95 0 146 47.5t51 129.5q0 76 -45.5 121.5t-137.5 45.5h-122v-344h108z" />
    <glyph glyph-name="E" unicode="E" horiz-adv-x="767" 
d="M316 272v-94h402v-178h-652v700h649v-178h-399v-86h379v-164h-379z" />
    <glyph glyph-name="F" unicode="F" horiz-adv-x="749" 
d="M715 700v-189h-399v-95h379v-163h-379v-253h-250v700h649z" />
    <glyph glyph-name="G" unicode="G" horiz-adv-x="938" 
d="M429 426h474v-96q0 -171 -110.5 -261.5t-302.5 -90.5q-141 0 -244.5 47.5t-158.5 132t-55 191.5q0 105 53.5 189.5t163 134t269.5 49.5q179 0 322 -64v-202q-52 24 -120.5 39t-145.5 15q-146 0 -213.5 -48.5t-67.5 -122.5q0 -73 56.5 -116.5t153.5 -43.5q66 0 110.5 20.5
t62.5 59.5h-289z" />
    <glyph glyph-name="H" unicode="H" horiz-adv-x="915" 
d="M599 447v253h250v-700h-250v268h-283v-268h-250v700h250v-253h283z" />
    <glyph glyph-name="I" unicode="I" horiz-adv-x="382" 
d="M316 0h-250v701h250v-701z" />
    <glyph glyph-name="J" unicode="J" horiz-adv-x="570" 
d="M93.5 -6.5q-51.5 16.5 -77.5 39.5v188q47 -41 116 -41q60 0 94.5 31.5t34.5 91.5v397h250v-453q0 -136 -81 -203t-220 -67q-65 0 -116.5 16.5z" />
    <glyph glyph-name="K" unicode="K" horiz-adv-x="859" 
d="M564 387l308 -387h-309l-247 328v-328h-250v700h250v-269l253 269h299z" />
    <glyph glyph-name="L" unicode="L" horiz-adv-x="723" 
d="M316 700v-496h393v-204h-643v700h250z" />
    <glyph glyph-name="M" unicode="M" horiz-adv-x="1160" 
d="M1064 700l53 -700h-243l-33 494l-150 -494h-251l-137 473l-28 -473h-229l44 700h367l119 -393l122 393h366z" />
    <glyph glyph-name="N" unicode="N" horiz-adv-x="919" 
d="M632 266v434h221v-700h-319l-246 442v-442h-222v700h329z" />
    <glyph glyph-name="O" unicode="O" horiz-adv-x="976" 
d="M248 27q-104 50 -160 136.5t-56 190.5q0 106 56 190t159.5 131.5t241.5 47.5q136 0 239.5 -47.5t159.5 -131.5t56 -190q0 -105 -56.5 -191t-160 -136t-239.5 -50t-240 50zM624 228q51 48 51 124q0 75 -51 121.5t-136 46.5q-86 0 -137 -46.5t-51 -121.5q0 -77 51.5 -124.5
t136.5 -47.5t136 48z" />
    <glyph glyph-name="P" unicode="P" horiz-adv-x="846" 
d="M550 701q135 0 206.5 -69.5t71.5 -188.5q0 -77 -36 -136t-107.5 -92t-173.5 -33h-195v-182h-250v701h484zM446 341q61 0 93.5 25t32.5 70q0 43 -29 67.5t-83 24.5h-144v-187h130z" />
    <glyph glyph-name="Q" unicode="Q" horiz-adv-x="976" 
d="M909 200.5q-35 -71.5 -100 -123.5l119 -129h-221l-49 53q-76 -24 -170 -24q-136 0 -240 50t-160 136.5t-56 190.5q0 106 56 190t159.5 131.5t241.5 47.5q136 0 239.5 -47.5t159.5 -131.5t56 -190q0 -82 -35 -153.5zM493 180l-129 140h222l61 -66q28 42 28 98
q0 75 -51 121.5t-136 46.5q-86 0 -137 -46.5t-51 -121.5q0 -77 51.5 -124.5t136.5 -47.5h5z" />
    <glyph glyph-name="R" unicode="R" horiz-adv-x="864" 
d="M836 0h-294l-226 287v-287h-250v700h493q82 0 143 -29.5t94 -82.5t33 -124q0 -94 -54.5 -154t-145.5 -68zM316 361h141q55 0 84 21.5t29 62.5q0 79 -106 79h-148v-163z" />
    <glyph glyph-name="S" unicode="S" horiz-adv-x="769" 
d="M198.5 2.5q-86.5 23.5 -150.5 63.5v181q67 -42 147 -66t162 -24q60 0 88.5 11t28.5 34q0 21 -20 33t-71 21l-100 18q-124 22 -182 76.5t-58 143.5q0 68 39.5 119t120 79.5t198.5 28.5q100 0 173 -20.5t121 -49.5v-174q-44 25 -113 43t-149 18q-129 0 -129 -42
q0 -17 17 -26t65 -16l112 -18q123 -21 181 -72t58 -145q0 -72 -44 -126.5t-123.5 -84t-184.5 -29.5q-100 0 -186.5 23.5z" />
    <glyph glyph-name="T" unicode="T" horiz-adv-x="759" 
d="M745 700v-197h-238v-503h-250v503h-243v197h731z" />
    <glyph glyph-name="U" unicode="U" horiz-adv-x="877" 
d="M235.5 16.5q-86.5 39.5 -133 113.5t-46.5 175v395h249v-390q0 -61 35 -93.5t99 -32.5q63 0 98 33t35 93v390h249v-395q0 -101 -46.5 -175t-132.5 -113.5t-203 -39.5t-203.5 39.5z" />
    <glyph glyph-name="V" unicode="V" horiz-adv-x="855" 
d="M424 251l164 449h270l-289 -700h-284l-288 700h268z" />
    <glyph glyph-name="W" unicode="W" horiz-adv-x="1220" 
d="M863 269l98 431h250l-176 -700h-320l-124 431l-117 -431h-289l-177 700h252l94 -409l110 409h279z" />
    <glyph glyph-name="X" unicode="X" horiz-adv-x="829" 
d="M598 364l235 -364h-298l-129 218l-128 -218h-281l231 364l-226 336h289l117 -198l123 198h297z" />
    <glyph glyph-name="Y" unicode="Y" horiz-adv-x="871" 
d="M434 443l159 257h281l-304 -467v-233h-270v233l-302 467h280z" />
    <glyph glyph-name="Z" unicode="Z" horiz-adv-x="777" 
d="M724 534l-365 -349h380v-185h-696v171l350 344h-345v185h676v-166z" />
    <glyph glyph-name="bracketleft" unicode="[" horiz-adv-x="477" 
d="M445 -120h-380v920h380v-168h-147v-584h147v-168z" />
    <glyph glyph-name="backslash" unicode="\" horiz-adv-x="593" 
d="M274 800l299 -920h-254l-299 920h254z" />
    <glyph glyph-name="bracketright" unicode="]" horiz-adv-x="477" 
d="M32 800h380v-920h-380v168h147v584h-147v168z" />
    <glyph glyph-name="asciicircum" unicode="^" 
d="M421 665l187 -365h-178l-92 188l-92 -188h-178l187 365h166z" />
    <glyph glyph-name="underscore" unicode="_" horiz-adv-x="794" 
d="M754 -169h-714v169h714v-169z" />
    <glyph glyph-name="grave" unicode="`" horiz-adv-x="318" 
d="M180 830l108 -180h-162l-156 180h210z" />
    <glyph glyph-name="a" unicode="a" horiz-adv-x="728" 
d="M592 529.5q90 -81.5 90 -235.5v-294h-237v73q-64 -93 -202 -93q-66 0 -114.5 24.5t-74 68t-25.5 97.5q0 56 27.5 99.5t79 67.5t121.5 24q62 0 107.5 -18.5t79.5 -59.5q-5 68 -57 103.5t-135 35.5q-54 0 -104 -18.5t-91 -53.5v183q114 78 275 78q170 0 260 -81.5z
M416.5 136.5q28.5 18.5 28.5 48.5q0 29 -28 47t-74 18q-42 0 -66.5 -18t-24.5 -48t24.5 -48t65.5 -18q46 0 74.5 18.5z" />
    <glyph glyph-name="b" unicode="b" horiz-adv-x="855" 
d="M696.5 570q62.5 -41 96 -112.5t33.5 -160.5q0 -93 -36 -165t-100 -112t-146 -40q-179 0 -244 139v-119h-244v720h244v-277q25 82 88.5 125t162.5 43q83 0 145.5 -41zM532.5 203q37.5 36 37.5 93q0 56 -37 92t-98 36q-62 0 -99 -36.5t-37 -93.5t36 -92t98 -35t99.5 36z
" />
    <glyph glyph-name="c" unicode="c" horiz-adv-x="702" 
d="M200 22q-86 42 -129.5 114t-43.5 162t45 161t132 111.5t208 40.5q150 0 249 -63v-183q-35 24 -81.5 39t-99.5 15q-93 0 -145.5 -34t-52.5 -89q0 -54 51 -88.5t148 -34.5q50 0 98.5 14.5t83.5 35.5v-177q-110 -66 -255 -66q-122 0 -208 42z" />
    <glyph glyph-name="d" unicode="d" horiz-adv-x="856" 
d="M555 720h245v-720h-245v131q-31 -74 -94.5 -112.5t-156.5 -38.5q-83 0 -145 40.5t-95.5 111t-33.5 159.5q-1 92 35.5 165t103 114t151.5 41q175 0 235 -152v261zM518.5 203.5q37.5 36.5 37.5 94.5q0 56 -36.5 91t-99.5 35q-62 0 -99 -35.5t-37 -92.5t37 -93t98 -36
q62 0 99.5 36.5z" />
    <glyph glyph-name="e" unicode="e" horiz-adv-x="754" 
d="M722 249h-447q22 -40 75 -62t134 -22q64 0 116.5 15t101.5 45v-173q-50 -33 -124.5 -52.5t-156.5 -19.5q-121 0 -210 40.5t-136.5 113.5t-47.5 167q0 89 43.5 159.5t125.5 110.5t193 40q164 0 248.5 -78.5t84.5 -216.5v-67zM314 414.5q-34 -21.5 -45 -58.5h256
q-8 39 -39.5 59.5t-84.5 20.5t-87 -21.5z" />
    <glyph glyph-name="f" unicode="f" horiz-adv-x="654" 
d="M414 499h220v-170h-216v-329h-244v329h-160v170h157q-1 8 -1 24q0 112 77 171t221 59q108 0 177 -37v-157q-46 26 -113 26q-118 0 -118 -86z" />
    <glyph glyph-name="g" unicode="g" horiz-adv-x="842" 
d="M544 585h244v-440q0 -112 -51 -191t-146.5 -120.5t-227.5 -41.5q-87 0 -163 19.5t-120 51.5v176q37 -32 99.5 -55t130.5 -23q114 0 174 53t60 157v15q-34 -77 -93.5 -113t-143.5 -36q-85 0 -148 36t-96.5 99.5t-33.5 144.5q0 87 35.5 153.5t100 103.5t148.5 37
t140.5 -36.5t90.5 -112.5v123zM508.5 233.5q36.5 32.5 36.5 84.5t-35.5 84.5t-95.5 32.5q-59 0 -95 -33t-36 -86q0 -51 35.5 -83t93.5 -32q60 0 96.5 32.5z" />
    <glyph glyph-name="h" unicode="h" horiz-adv-x="825" 
d="M715 540q61 -71 61 -209v-331h-245v279q0 66 -28 100t-82 34q-60 0 -90.5 -35t-30.5 -103v-275h-244v720h244v-276q31 85 88 126t147 41q119 0 180 -71z" />
    <glyph glyph-name="i" unicode="i" horiz-adv-x="357" 
d="M83.5 610q-37.5 28 -37.5 72q0 43 38 70.5t96 27.5t94.5 -27.5t36.5 -70.5q0 -44 -36.5 -72t-94.5 -28q-59 0 -96.5 28zM301 0h-245v545h245v-545z" />
    <glyph glyph-name="j" unicode="j" horiz-adv-x="366" 
d="M93 610q-38 28 -38 71t38 71t97 28q57 0 93.5 -28t36.5 -71t-36.5 -71t-93.5 -28q-59 0 -97 28zM-6.5 -202q-34.5 8 -55.5 20v153q28 -18 61 -18q66 0 66 71v523h245v-554q0 -96 -63 -149.5t-180 -53.5q-39 0 -73.5 8z" />
    <glyph glyph-name="k" unicode="k" horiz-adv-x="771" 
d="M543 339l246 -339h-280l-208 307v-307h-245v720h245v-353l194 218h276z" />
    <glyph glyph-name="l" unicode="l" horiz-adv-x="356" 
d="M300 0h-244v720h244v-720z" />
    <glyph glyph-name="m" unicode="m" horiz-adv-x="1201" 
d="M1095 542.5q57 -68.5 57 -197.5v-345h-245v289q0 59 -21.5 91t-65.5 32q-46 0 -70 -33t-24 -90v-289h-244v298q0 54 -21.5 84t-64.5 30q-46 0 -70.5 -36t-24.5 -98l-1 1v-279h-244v585h242v-137q25 84 77.5 123.5t134.5 39.5q80 0 132 -41t72 -119q25 82 79 121t137 39
q108 0 165 -68.5z" />
    <glyph glyph-name="n" unicode="n" horiz-adv-x="825" 
d="M715 540q61 -71 61 -209v-331h-245v279q0 66 -28 100t-82 34q-60 0 -90.5 -35t-30.5 -103v-275h-244v585h242v-146q31 88 88.5 130t148.5 42q119 0 180 -71z" />
    <glyph glyph-name="o" unicode="o" horiz-adv-x="817" 
d="M204.5 22q-86.5 42 -132 115t-45.5 163t45.5 160.5t131.5 110.5t205 40t205 -40t131 -110t45 -161q0 -90 -45 -163t-131.5 -115t-204.5 -42t-204.5 42zM508.5 199.5q36.5 36.5 36.5 96.5t-36.5 95.5t-99.5 35.5q-64 0 -100.5 -35.5t-36.5 -95.5t36.5 -96.5t100.5 -36.5
q63 0 99.5 36.5z" />
    <glyph glyph-name="p" unicode="p" horiz-adv-x="854" 
d="M696 570q62 -41 95.5 -112.5t33.5 -160.5q0 -93 -35.5 -165t-99.5 -112t-146 -40q-178 0 -244 138v-308h-244v775h244v-143q25 83 88 126t163 43q83 0 145 -41zM532.5 203q37.5 36 37.5 93q0 56 -37 92t-98 36q-62 0 -99 -36.5t-37 -93.5t36 -92t98 -35t99.5 36z" />
    <glyph glyph-name="q" unicode="q" horiz-adv-x="855" 
d="M554 585h245v-775h-245v320q-60 -150 -241 -150q-85 0 -149.5 40t-99.5 111.5t-35 162.5q0 90 36 162t101.5 113.5t151.5 41.5q90 0 148 -38t88 -114v126zM517.5 203.5q37.5 36.5 37.5 94.5q0 56 -36.5 91t-99.5 35q-62 0 -99 -35.5t-37 -92.5t37 -93t98 -36
q62 0 99.5 36.5z" />
    <glyph glyph-name="r" unicode="r" horiz-adv-x="580" 
d="M566 574v-216q-38 25 -99 25q-80 0 -123 -48.5t-43 -150.5v-184h-245v585h240v-186q20 102 64.5 150.5t114.5 48.5q53 0 91 -24z" />
    <glyph glyph-name="s" unicode="s" horiz-adv-x="683" 
d="M183 1q-81 21 -146 61v166q49 -38 131.5 -62.5t159.5 -24.5q36 0 54.5 9.5t18.5 22.5q0 15 -10 25t-39 17l-120 27q-103 24 -146.5 66.5t-43.5 111.5q0 58 38 101t108 66.5t164 23.5q84 0 154 -18t116 -46v-157q-47 28 -108.5 44.5t-126.5 16.5q-94 0 -94 -32
q0 -15 14.5 -22.5t53.5 -15.5l100 -18q98 -17 146 -59.5t48 -125.5q0 -91 -79.5 -144.5t-225.5 -53.5q-86 0 -167 21z" />
    <glyph glyph-name="t" unicode="t" horiz-adv-x="609" 
d="M420 585h177v-175h-177v-410h-245v410h-163v175h163v102l245 36v-138z" />
    <glyph glyph-name="u" unicode="u" horiz-adv-x="822" 
d="M521 585h245v-585h-245v121q-29 -70 -88.5 -106t-142.5 -36q-117 0 -178.5 65.5t-61.5 187.5v353h245v-293q0 -67 26.5 -98.5t82.5 -31.5q58 0 87.5 34t29.5 101v288z" />
    <glyph glyph-name="v" unicode="v" horiz-adv-x="784" 
d="M393 246l136 339h259l-269 -585h-254l-269 585h261z" />
    <glyph glyph-name="w" unicode="w" horiz-adv-x="1137" 
d="M803 232l87 353h244l-185 -585h-270l-117 352l-112 -352h-259l-191 585h255l83 -351l108 351h248z" />
    <glyph glyph-name="x" unicode="x" horiz-adv-x="762" 
d="M565 310l205 -310h-282l-112 173l-111 -173h-271l204 310l-192 275h270l101 -156l105 156h274z" />
    <glyph glyph-name="y" unicode="y" horiz-adv-x="782" 
d="M390 270l141 315h259l-392 -775h-276l131 243l-256 532h261z" />
    <glyph glyph-name="z" unicode="z" horiz-adv-x="718" 
d="M672 424l-326 -255h345v-169h-659v158l326 258h-319v169h633v-161z" />
    <glyph glyph-name="braceleft" unicode="{" horiz-adv-x="534" 
d="M363 470q0 -47 -24 -78.5t-96 -49.5q52 -13 78 -34t34 -45t8 -58v-101q0 -40 20.5 -59.5t56.5 -19.5q19 0 36.5 4t27.5 10v-145q-56 -27 -149 -27q-111 0 -170.5 51.5t-59.5 148.5v113q0 44 -20.5 61t-77.5 17v159q57 0 77.5 17t20.5 61v116q0 96 63.5 148t177.5 52
q84 0 138 -28v-144q-10 6 -27.5 10t-36.5 4q-36 0 -56.5 -19.5t-20.5 -59.5v-104z" />
    <glyph glyph-name="bar" unicode="|" horiz-adv-x="349" 
d="M284 -120h-219v920h219v-920z" />
    <glyph glyph-name="braceright" unicode="}" horiz-adv-x="534" 
d="M409 495q0 -44 20.5 -61t77.5 -17v-159q-57 0 -77.5 -17t-20.5 -61v-113q0 -97 -59.5 -148.5t-170.5 -51.5q-93 0 -149 27v145q10 -6 28 -10t36 -4q36 0 56.5 19.5t20.5 59.5v101q0 34 8 58t34 45t78 34q-72 18 -96 49.5t-24 78.5v104q0 40 -20.5 59.5t-56.5 19.5
q-18 0 -36 -4t-28 -10v144q54 28 138 28q114 0 177.5 -52t63.5 -148v-116z" />
    <glyph glyph-name="asciitilde" unicode="~" 
d="M375.5 172q-30.5 13 -66.5 37q-25 18 -42.5 26t-38.5 8q-20 0 -32.5 -14t-12.5 -42q0 -11 1 -18h-172q-1 13 -1 37q0 112 53.5 174t152.5 62q40 0 70.5 -12.5t67.5 -35.5q32 -19 51.5 -27.5t42.5 -8.5q26 0 39 16t10 58h169q5 -129 -51.5 -201t-163.5 -72q-46 0 -76.5 13
z" />
    <glyph glyph-name="uni00A0" unicode="&#xa0;" horiz-adv-x="262" 
 />
    <glyph glyph-name="exclamdown" unicode="&#xa1;" horiz-adv-x="364" 
d="M283 502q39 -28 39 -72q0 -43 -39 -70.5t-101 -27.5q-63 0 -102 27.5t-39 70.5q0 44 39 72t102 28q62 0 101 -28zM61 -190v474h243v-474h-243z" />
    <glyph glyph-name="cent" unicode="&#xa2;" horiz-adv-x="711" 
d="M667 46q-85 -51 -193 -63v-102h-137v104q-98 12 -167 56t-104 110.5t-35 146.5q0 79 35.5 144.5t104.5 108t166 55.5v107h137v-105q112 -9 191 -60v-183q-35 24 -81.5 39t-99.5 15q-93 0 -145.5 -34t-52.5 -89q0 -54 51 -88.5t148 -34.5q50 0 98.5 14.5t83.5 35.5v-177z
" />
    <glyph glyph-name="sterling" unicode="&#xa3;" horiz-adv-x="787" 
d="M529.5 487.5q-39.5 -21.5 -66.5 -69.5l-14 -25h194v-128h-264l-53 -96h412v-169h-700v123l78 142h-81v128h152l53 97q56 101 131 145.5t200 44.5q51 0 90.5 -8t76.5 -25v-166q-19 13 -48 20.5t-63 7.5q-58 0 -97.5 -21.5z" />
    <glyph glyph-name="currency" unicode="&#xa4;" horiz-adv-x="714" 
d="M595 196l81 -80l-102 -106l-89 88q-60 -30 -127 -30t-129 30l-89 -88l-102 106l81 80q-44 66 -44 146q0 76 44 143l-81 80l102 106l89 -88q59 32 129 32q69 0 129 -30l87 86l102 -106l-79 -79q42 -65 42 -144q0 -80 -44 -146zM416.5 283q22.5 23 22.5 59t-22.5 58.5
t-59.5 22.5t-60 -22.5t-23 -58.5t23 -59t60 -23t59.5 23z" />
    <glyph glyph-name="yen" unicode="&#xa5;" horiz-adv-x="814" 
d="M545 666h244l-191 -294h127v-93h-188l-7 -11v-44h195v-93h-195v-131h-246v131h-192v93h192v47l-5 8h-187v93h126l-194 294h246l136 -229z" />
    <glyph glyph-name="brokenbar" unicode="&#xa6;" horiz-adv-x="349" 
d="M284 400h-219v400h219v-400zM284 -120h-219v400h219v-400z" />
    <glyph glyph-name="section" unicode="&#xa7;" horiz-adv-x="669" 
d="M591.5 140.5q21.5 -30.5 21.5 -75.5q0 -90 -76 -142.5t-213 -52.5q-159 0 -277 72v140q46 -35 118.5 -55.5t137.5 -20.5q44 0 65.5 12.5t21.5 34.5q0 17 -15.5 27.5t-56.5 19.5l-103 22q-90 17 -129 51t-39 85q0 84 102 115q-89 38 -89 124q0 58 38.5 99t105 62.5
t150.5 21.5q76 0 138.5 -15t109.5 -41v-136q-40 23 -102 37.5t-125 14.5q-47 0 -71 -10t-24 -28q0 -24 51 -34l121 -22q93 -15 136 -46.5t43 -90.5q0 -87 -107 -119q46 -19 67.5 -49.5zM418 219q36 17 36 51q0 21 -16.5 34.5t-55.5 21.5l-108 18q-45 -15 -45 -50
q0 -19 16 -31t54 -22z" />
    <glyph glyph-name="dieresis" unicode="&#xa8;" horiz-adv-x="556" 
d="M71.5 675q-31.5 28 -31.5 66t31.5 64t76.5 26q46 0 76.5 -26t30.5 -64q0 -39 -31 -66.5t-76 -27.5t-76.5 28zM332.5 675q-31.5 28 -31.5 66t31.5 64t76.5 26q46 0 76.5 -26t30.5 -64q0 -39 -31 -66.5t-76 -27.5t-76.5 28z" />
    <glyph glyph-name="copyright" unicode="&#xa9;" horiz-adv-x="884" 
d="M227 26q-94 46 -148 126.5t-54 179.5q0 100 54 180.5t148 126.5t210 46t210 -46t148 -126.5t54 -180.5q0 -99 -54 -179.5t-148 -126.5t-210 -46t-210 46zM604.5 97.5q73.5 34.5 115 95.5t41.5 139t-41.5 139.5t-115 96t-167.5 34.5t-167.5 -34.5t-115 -96t-41.5 -139.5
t41.5 -139t115 -95.5t167.5 -34.5t167.5 34.5zM345 175q-51 24 -79 65.5t-28 91.5q0 51 28.5 92t81 64.5t122.5 23.5q87 0 154 -35v-104q-50 33 -121 33q-51 0 -80.5 -21t-29.5 -54t30 -54.5t80 -21.5q35 0 67 9t55 25v-97q-68 -41 -163 -41q-66 0 -117 24z" />
    <glyph glyph-name="ordfeminine" unicode="&#xaa;" horiz-adv-x="675" 
d="M545 698.5q81 -73.5 81 -211.5v-265h-221v64q-53 -82 -171 -82q-88 0 -141.5 47t-53.5 124t56.5 123.5t150.5 46.5q54 0 92.5 -17t65.5 -53q-3 58 -46 90.5t-117 32.5q-49 0 -95 -18t-82 -52v172q104 72 248 72q152 0 233 -73.5zM382 346.5q23 15.5 23 40.5t-23 40
t-60 15q-34 0 -54.5 -15.5t-20.5 -40.5t20 -40t54 -15q38 0 61 15.5z" />
    <glyph glyph-name="guillemotleft" unicode="&#xab;" horiz-adv-x="774" 
d="M207 585h219l-169 -280l181 -305h-219l-188 304zM757 585l-169 -280l181 -305h-219l-188 304l176 281h219z" />
    <glyph glyph-name="logicalnot" unicode="&#xac;" 
d="M21 227v189h626v-374h-199v185h-427z" />
    <glyph glyph-name="uni00AD" unicode="&#xad;" horiz-adv-x="571" 
d="M515 234h-459v204h459v-204z" />
    <glyph glyph-name="registered" unicode="&#xae;" horiz-adv-x="884" 
d="M647 639q94 -46 148 -126.5t54 -180.5q0 -99 -54 -179.5t-148 -126.5t-210 -46t-210 46t-148 126.5t-54 179.5q0 100 54 180.5t148 126.5t210 46t210 -46zM604.5 97.5q73.5 34.5 115 95.5t41.5 139t-41.5 139.5t-115 96t-167.5 34.5t-167.5 -34.5t-115 -96t-41.5 -139.5
t41.5 -139t115 -95.5t167.5 -34.5t167.5 34.5zM623.5 317q-29.5 -29 -72.5 -31l94 -129h-144l-99 142v-142h-131v350h245q64 0 100.5 -31.5t36.5 -82.5q0 -47 -29.5 -76zM460 334q57 0 57 45q0 43 -53 43h-62v-88h58z" />
    <glyph glyph-name="macron" unicode="&#xaf;" horiz-adv-x="475" 
d="M455 659h-435v122h435v-122z" />
    <glyph glyph-name="degree" unicode="&#xb0;" horiz-adv-x="503" 
d="M137.5 373.5q-51.5 24.5 -81.5 69t-30 102.5t30 103.5t82 71t114 25.5t113.5 -25.5t81.5 -71t30 -103.5t-30 -102.5t-81 -69t-114 -24.5t-114.5 24.5zM311 492.5q23 19.5 23 52.5q0 34 -23 55t-59 21t-59 -21t-23 -55q0 -33 23 -52.5t59 -19.5t59 19.5z" />
    <glyph glyph-name="plusminus" unicode="&#xb1;" 
d="M438 665v-124h213v-169h-213v-123h-199v123h-214v169h214v124h199zM651 27h-626v189h626v-189z" />
    <glyph glyph-name="uni00B2" unicode="&#xb2;" horiz-adv-x="448" 
d="M255 406h157v-111h-373v95l123 76q45 26 62 45.5t17 43.5t-18 37t-52 13q-32 0 -70 -17.5t-62 -40.5v140q73 51 175 51q89 0 141 -40.5t52 -110.5q0 -104 -126 -168z" />
    <glyph glyph-name="uni00B3" unicode="&#xb3;" horiz-adv-x="454" 
d="M400.5 489q22.5 -28 22.5 -68q0 -61 -58 -98.5t-153 -37.5q-104 0 -172 41v103q53 -35 137 -35q36 0 56.5 10.5t20.5 28.5q0 30 -55 30h-128l22 96h99q29 0 42.5 7t13.5 22q0 32 -72 32q-40 0 -76 -10t-60 -28v118q33 18 79 27.5t95 9.5q89 0 142.5 -33t53.5 -88
q0 -32 -19 -54.5t-54 -33.5q41 -11 63.5 -39z" />
    <glyph glyph-name="acute" unicode="&#xb4;" horiz-adv-x="318" 
d="M192 650h-162l108 180h210z" />
    <glyph glyph-name="mu" unicode="&#xb5;" horiz-adv-x="828" 
d="M527 585h245v-585h-245v120q-30 -70 -88 -106t-136 -34h-3v-170h-244v775h245v-293q0 -67 26.5 -98.5t82.5 -31.5q58 0 87.5 34t29.5 101v288z" />
    <glyph glyph-name="paragraph" unicode="&#xb6;" horiz-adv-x="843" 
d="M355 -120v319h-57q-83 0 -144.5 29t-94.5 80t-33 117q0 70 35 124.5t105.5 85.5t173.5 31h180v-786h-165zM767 -120h-165v786h165v-786z" />
    <glyph glyph-name="periodcentered" unicode="&#xb7;" horiz-adv-x="346" 
d="M101 234.5q-32 15.5 -50.5 42.5t-18.5 59q0 49 40.5 82.5t100.5 33.5t100 -33.5t40 -82.5q0 -50 -40 -83.5t-100 -33.5q-40 0 -72 15.5z" />
    <glyph glyph-name="cedilla" unicode="&#xb8;" horiz-adv-x="352" 
d="M184 -27q55 0 86.5 -28.5t31.5 -74.5q0 -49 -38 -80.5t-103 -31.5q-60 0 -121 23v91q50 -26 100 -26q22 0 34.5 8.5t12.5 22.5t-12.5 21.5t-34.5 7.5h-47v100h67v-33h24z" />
    <glyph glyph-name="uni00B9" unicode="&#xb9;" horiz-adv-x="370" 
d="M24 639l165 89h131v-433h-160v281l-136 -74v137z" />
    <glyph glyph-name="ordmasculine" unicode="&#xba;" horiz-adv-x="755" 
d="M199.5 240.5q-77.5 36.5 -120.5 101.5t-43 150q0 84 42.5 147.5t120 98t179.5 34.5q103 0 180 -34.5t119 -98t42 -147.5q0 -85 -42.5 -150.5t-120 -101.5t-178.5 -36t-178.5 36.5zM461 407.5q31 30.5 31 80.5q0 51 -30.5 80.5t-83.5 29.5t-83.5 -29.5t-30.5 -80.5
t30.5 -81t83.5 -30q52 0 83 30.5z" />
    <glyph glyph-name="guillemotright" unicode="&#xbb;" horiz-adv-x="791" 
d="M34 585h219l176 -281l-188 -304h-219l181 305zM365 585h219l176 -281l-188 -304h-219l181 305z" />
    <glyph glyph-name="onequarter" unicode="&#xbc;" horiz-adv-x="1094" 
d="M24 639l165 89h131v-433h-160v281l-136 -74v137zM390 0h-187l428 700h186zM997 178h69v-102h-69v-87h-147v87h-231v110l176 233h202v-241zM850 301l-89 -123h89v123z" />
    <glyph glyph-name="onehalf" unicode="&#xbd;" horiz-adv-x="1093" 
d="M24 639l165 89h131v-433h-160v281l-136 -74v137zM390 0h-187l428 700h186zM900 99h157v-111h-373v95l123 76q45 26 62 45.5t17 43.5t-18 37t-52 13q-32 0 -70 -17.5t-62 -40.5v140q73 51 175 51q89 0 141 -40.5t52 -110.5q0 -104 -126 -168z" />
    <glyph glyph-name="threequarters" unicode="&#xbe;" horiz-adv-x="1141" 
d="M400.5 489q22.5 -28 22.5 -68q0 -61 -58 -98.5t-153 -37.5q-104 0 -172 41v103q53 -35 137 -35q36 0 56.5 10.5t20.5 28.5q0 30 -55 30h-128l22 96h99q29 0 42.5 7t13.5 22q0 32 -72 32q-40 0 -76 -10t-60 -28v118q33 18 79 27.5t95 9.5q89 0 142.5 -33t53.5 -88
q0 -32 -19 -54.5t-54 -33.5q41 -11 63.5 -39zM437 0h-187l428 700h186zM1044 178h69v-102h-69v-87h-147v87h-231v110l176 233h202v-241zM897 301l-89 -123h89v123z" />
    <glyph glyph-name="questiondown" unicode="&#xbf;" horiz-adv-x="681" 
d="M316 359.5q-39 27.5 -39 70.5q0 44 39 72t101 28q63 0 102 -28t39 -72q0 -43 -39 -70.5t-102 -27.5q-62 0 -101 27.5zM557 -21.5q60 18.5 92 41.5v-168q-112 -67 -278 -67q-111 0 -189 30.5t-118 83t-40 116.5q0 60 29 105t82.5 69.5t122.5 24.5h40v70h243v-180h-128
q-69 0 -99 -18t-30 -52q0 -74 137 -74q76 0 136 18.5z" />
    <glyph glyph-name="Agrave" unicode="&#xc0;" horiz-adv-x="853" 
d="M450 922l108 -180h-163l-156 180h211zM851 0h-254l-43 134h-263l-43 -134h-247l247 700h358zM423 541l-86 -267h172z" />
    <glyph glyph-name="Aacute" unicode="&#xc1;" horiz-adv-x="853" 
d="M441 922h211l-156 -180h-163zM851 0h-254l-43 134h-263l-43 -134h-247l247 700h358zM423 541l-86 -267h172z" />
    <glyph glyph-name="Acircumflex" unicode="&#xc2;" horiz-adv-x="853" 
d="M519 742l-94 84l-91 -84h-143l157 180h159l157 -180h-145zM851 0h-254l-43 134h-263l-43 -134h-247l247 700h358zM423 541l-86 -267h172z" />
    <glyph glyph-name="Atilde" unicode="&#xc3;" horiz-adv-x="853" 
d="M208 755q-2 79 32.5 123.5t99.5 44.5q32 0 57.5 -9t55.5 -26q21 -11 34 -16.5t26 -5.5q26 0 38 12t10 34h102q2 -78 -32.5 -122.5t-98.5 -44.5q-33 0 -58 9t-57 26q-24 12 -35 16.5t-24 4.5q-26 0 -38 -11.5t-12 -34.5h-100zM851 0h-254l-43 134h-263l-43 -134h-247
l247 700h358zM423 541l-86 -267h172z" />
    <glyph glyph-name="Adieresis" unicode="&#xc4;" horiz-adv-x="853" 
d="M217 758.5q-31 29.5 -31 69.5t30.5 67.5t74.5 27.5t73.5 -27.5t29.5 -67.5t-30 -69.5t-73 -29.5t-74 29.5zM492.5 758.5q-30.5 29.5 -30.5 69.5t30.5 67.5t73.5 27.5q44 0 74 -27.5t30 -67.5t-30 -69.5t-74 -29.5q-43 0 -73.5 29.5zM851 0h-254l-43 134h-263l-43 -134
h-247l247 700h358zM423 541l-86 -267h172z" />
    <glyph glyph-name="Aring" unicode="&#xc5;" horiz-adv-x="853" 
d="M314.5 757.5q-43.5 36.5 -43.5 93.5q0 56 43.5 92t111.5 36t111 -36t43 -92q0 -57 -43 -93.5t-111 -36.5t-111.5 36.5zM386.5 885.5q-15.5 -13.5 -15.5 -34.5q0 -22 15.5 -36t39.5 -14t39 14t15 36q0 21 -15 34.5t-39 13.5t-39.5 -13.5zM851 0h-254l-43 134h-263
l-43 -134h-247l247 700h358zM423 541l-86 -267h172z" />
    <glyph glyph-name="AE" unicode="&#xc6;" horiz-adv-x="1253" 
d="M802 272v-94h402v-178h-652v134h-225l-75 -135h-267l412 701h804v-178h-399v-86h379v-164h-379zM552 542l-148 -268h148v268z" />
    <glyph glyph-name="Ccedilla" unicode="&#xc7;" horiz-adv-x="846" 
d="M800 58q-64 -37 -129 -56.5t-143 -23.5v-5h24q55 0 86.5 -28.5t31.5 -74.5q0 -49 -38 -80.5t-103 -31.5q-60 0 -121 23v91q50 -26 100 -26q22 0 34.5 8.5t12.5 22.5t-12.5 21.5t-34.5 7.5h-47v71q-134 5 -231 54t-147.5 131t-50.5 184q0 107 55 192.5t159.5 135
t249.5 49.5q89 0 162.5 -17.5t139.5 -50.5v-207q-43 30 -106.5 48.5t-135.5 18.5q-118 0 -184.5 -45t-66.5 -118q0 -49 30 -86t86.5 -58t134.5 -21q74 0 138 20t106 53v-202z" />
    <glyph glyph-name="Egrave" unicode="&#xc8;" horiz-adv-x="767" 
d="M417 922l108 -180h-163l-156 180h211zM316 272v-94h402v-178h-652v700h649v-178h-399v-86h379v-164h-379z" />
    <glyph glyph-name="Eacute" unicode="&#xc9;" horiz-adv-x="767" 
d="M408 922h211l-156 -180h-163zM316 272v-94h402v-178h-652v700h649v-178h-399v-86h379v-164h-379z" />
    <glyph glyph-name="Ecircumflex" unicode="&#xca;" horiz-adv-x="767" 
d="M486 742l-94 84l-91 -84h-143l157 180h159l157 -180h-145zM316 272v-94h402v-178h-652v700h649v-178h-399v-86h379v-164h-379z" />
    <glyph glyph-name="Edieresis" unicode="&#xcb;" horiz-adv-x="767" 
d="M184 758.5q-31 29.5 -31 69.5t30.5 67.5t74.5 27.5t73.5 -27.5t29.5 -67.5t-30 -69.5t-73 -29.5t-74 29.5zM459.5 758.5q-30.5 29.5 -30.5 69.5t30.5 67.5t73.5 27.5q44 0 74 -27.5t30 -67.5t-30 -69.5t-74 -29.5q-43 0 -73.5 29.5zM316 272v-94h402v-178h-652v700h649
v-178h-399v-86h379v-164h-379z" />
    <glyph glyph-name="Igrave" unicode="&#xcc;" horiz-adv-x="382" 
d="M215 922l108 -180h-163l-156 180h211zM316 0h-250v701h250v-701z" />
    <glyph glyph-name="Iacute" unicode="&#xcd;" horiz-adv-x="382" 
d="M261 742h-163l108 180h211zM316 0h-250v701h250v-701z" />
    <glyph glyph-name="Icircumflex" unicode="&#xce;" horiz-adv-x="382" 
d="M284 742l-94 84l-91 -84h-143l157 180h159l157 -180h-145zM316 0h-250v701h250v-701z" />
    <glyph glyph-name="Idieresis" unicode="&#xcf;" horiz-adv-x="382" 
d="M-18 758.5q-31 29.5 -31 69.5t30.5 67.5t74.5 27.5t73.5 -27.5t29.5 -67.5t-30 -69.5t-73 -29.5t-74 29.5zM257.5 758.5q-30.5 29.5 -30.5 69.5t30.5 67.5t73.5 27.5q44 0 74 -27.5t30 -67.5t-30 -69.5t-74 -29.5q-43 0 -73.5 29.5zM316 0h-250v701h250v-701z" />
    <glyph glyph-name="Eth" unicode="&#xd0;" horiz-adv-x="922" 
d="M456 700q141 0 238.5 -44t146 -122.5t48.5 -179.5q0 -99 -50.5 -179.5t-154 -127.5t-256.5 -47h-362v317h-53v66h53v317h390zM424 178q95 0 146 47.5t51 129.5q0 76 -45.5 121.5t-137.5 45.5h-122v-139h132v-66h-132v-139h108z" />
    <glyph glyph-name="Ntilde" unicode="&#xd1;" horiz-adv-x="919" 
d="M245 755q-2 79 32.5 123.5t99.5 44.5q32 0 57.5 -9t55.5 -26q21 -11 34 -16.5t26 -5.5q26 0 38 12t10 34h102q2 -78 -32.5 -122.5t-98.5 -44.5q-33 0 -58 9t-57 26q-24 12 -35 16.5t-24 4.5q-26 0 -38 -11.5t-12 -34.5h-100zM632 266v434h221v-700h-319l-246 442v-442
h-222v700h329z" />
    <glyph glyph-name="Ograve" unicode="&#xd2;" horiz-adv-x="976" 
d="M512 922l108 -180h-163l-156 180h211zM248 27q-104 50 -160 136.5t-56 190.5q0 106 56 190t159.5 131.5t241.5 47.5q136 0 239.5 -47.5t159.5 -131.5t56 -190q0 -105 -56.5 -191t-160 -136t-239.5 -50t-240 50zM624 228q51 48 51 124q0 75 -51 121.5t-136 46.5
q-86 0 -137 -46.5t-51 -121.5q0 -77 51.5 -124.5t136.5 -47.5t136 48z" />
    <glyph glyph-name="Oacute" unicode="&#xd3;" horiz-adv-x="976" 
d="M558 742h-163l108 180h211zM248 27q-104 50 -160 136.5t-56 190.5q0 106 56 190t159.5 131.5t241.5 47.5q136 0 239.5 -47.5t159.5 -131.5t56 -190q0 -105 -56.5 -191t-160 -136t-239.5 -50t-240 50zM624 228q51 48 51 124q0 75 -51 121.5t-136 46.5q-86 0 -137 -46.5
t-51 -121.5q0 -77 51.5 -124.5t136.5 -47.5t136 48z" />
    <glyph glyph-name="Ocircumflex" unicode="&#xd4;" horiz-adv-x="976" 
d="M581 742l-94 84l-91 -84h-143l157 180h159l157 -180h-145zM728.5 675.5q103.5 -47.5 159.5 -131.5t56 -190q0 -105 -56.5 -191t-160 -136t-239.5 -50t-240 50t-160 136.5t-56 190.5q0 106 56 190t159.5 131.5t241.5 47.5q136 0 239.5 -47.5zM624 228q51 48 51 124
q0 75 -51 121.5t-136 46.5q-86 0 -137 -46.5t-51 -121.5q0 -77 51.5 -124.5t136.5 -47.5t136 48z" />
    <glyph glyph-name="Otilde" unicode="&#xd5;" horiz-adv-x="976" 
d="M270 755q-2 79 32.5 123.5t99.5 44.5q32 0 57.5 -9t55.5 -26q21 -11 34 -16.5t26 -5.5q26 0 38 12t10 34h102q2 -78 -32.5 -122.5t-98.5 -44.5q-33 0 -58 9t-57 26q-24 12 -35 16.5t-24 4.5q-26 0 -38 -11.5t-12 -34.5h-100zM248 27q-104 50 -160 136.5t-56 190.5
q0 106 56 190t159.5 131.5t241.5 47.5q136 0 239.5 -47.5t159.5 -131.5t56 -190q0 -105 -56.5 -191t-160 -136t-239.5 -50t-240 50zM624 228q51 48 51 124q0 75 -51 121.5t-136 46.5q-86 0 -137 -46.5t-51 -121.5q0 -77 51.5 -124.5t136.5 -47.5t136 48z" />
    <glyph glyph-name="Odieresis" unicode="&#xd6;" horiz-adv-x="976" 
d="M279 758.5q-31 29.5 -31 69.5t30.5 67.5t74.5 27.5t73.5 -27.5t29.5 -67.5t-30 -69.5t-73 -29.5t-74 29.5zM554.5 758.5q-30.5 29.5 -30.5 69.5t30.5 67.5t73.5 27.5q44 0 74 -27.5t30 -67.5t-30 -69.5t-74 -29.5q-43 0 -73.5 29.5zM248 27q-104 50 -160 136.5t-56 190.5
q0 106 56 190t159.5 131.5t241.5 47.5q136 0 239.5 -47.5t159.5 -131.5t56 -190q0 -105 -56.5 -191t-160 -136t-239.5 -50t-240 50zM624 228q51 48 51 124q0 75 -51 121.5t-136 46.5q-86 0 -137 -46.5t-51 -121.5q0 -77 51.5 -124.5t136.5 -47.5t136 48z" />
    <glyph glyph-name="multiply" unicode="&#xd7;" 
d="M503 610l133 -134l-161 -154l161 -155l-133 -134l-165 158l-165 -158l-133 134l161 155l-161 154l133 134l165 -158z" />
    <glyph glyph-name="Oslash" unicode="&#xd8;" horiz-adv-x="976" 
d="M815 623q63 -50 96 -119t33 -150q0 -105 -56.5 -191t-160 -136t-239.5 -50q-102 0 -190 30l-69 -83l-103 85l51 61q-70 52 -107.5 125.5t-37.5 158.5q0 106 56 190t159.5 131.5t241.5 47.5q114 0 207 -34l70 84l103 -85zM330 252l218 261q-25 7 -60 7q-86 0 -137 -46.5
t-51 -121.5q0 -58 30 -100zM624 228q51 48 51 124q0 45 -19 81l-210 -250q19 -3 42 -3q85 0 136 48z" />
    <glyph glyph-name="Ugrave" unicode="&#xd9;" horiz-adv-x="877" 
d="M463 922l108 -180h-163l-156 180h211zM235.5 16.5q-86.5 39.5 -133 113.5t-46.5 175v395h249v-390q0 -61 35 -93.5t99 -32.5q63 0 98 33t35 93v390h249v-395q0 -101 -46.5 -175t-132.5 -113.5t-203 -39.5t-203.5 39.5z" />
    <glyph glyph-name="Uacute" unicode="&#xda;" horiz-adv-x="877" 
d="M509 742h-163l108 180h211zM235.5 16.5q-86.5 39.5 -133 113.5t-46.5 175v395h249v-390q0 -61 35 -93.5t99 -32.5q63 0 98 33t35 93v390h249v-395q0 -101 -46.5 -175t-132.5 -113.5t-203 -39.5t-203.5 39.5z" />
    <glyph glyph-name="Ucircumflex" unicode="&#xdb;" horiz-adv-x="877" 
d="M532 742l-94 84l-91 -84h-143l157 180h159l157 -180h-145zM572 700h249v-395q0 -101 -46.5 -175t-132.5 -113.5t-203 -39.5t-203.5 39.5t-133 113.5t-46.5 175v395h249v-390q0 -61 35 -93.5t99 -32.5q63 0 98 33t35 93v390z" />
    <glyph glyph-name="Udieresis" unicode="&#xdc;" horiz-adv-x="877" 
d="M230 758.5q-31 29.5 -31 69.5t30.5 67.5t74.5 27.5t73.5 -27.5t29.5 -67.5t-30 -69.5t-73 -29.5t-74 29.5zM505.5 758.5q-30.5 29.5 -30.5 69.5t30.5 67.5t73.5 27.5q44 0 74 -27.5t30 -67.5t-30 -69.5t-74 -29.5q-43 0 -73.5 29.5zM235.5 16.5q-86.5 39.5 -133 113.5
t-46.5 175v395h249v-390q0 -61 35 -93.5t99 -32.5q63 0 98 33t35 93v390h249v-395q0 -101 -46.5 -175t-132.5 -113.5t-203 -39.5t-203.5 39.5z" />
    <glyph glyph-name="Yacute" unicode="&#xdd;" horiz-adv-x="871" 
d="M451 922h211l-156 -180h-163zM434 443l159 257h281l-304 -467v-233h-270v233l-302 467h280z" />
    <glyph glyph-name="Thorn" unicode="&#xde;" horiz-adv-x="852" 
d="M550 627q135 0 206.5 -69.5t71.5 -188.5q0 -77 -36 -136t-107.5 -92t-173.5 -33h-195v-108h-250v700h250v-73h234zM446 267q61 0 93.5 25t32.5 70q0 43 -29 67.5t-83 24.5h-144v-187h130z" />
    <glyph glyph-name="germandbls" unicode="&#xdf;" horiz-adv-x="776" 
d="M748 216q0 -69 -36 -121.5t-102.5 -81t-155.5 -28.5q-55 0 -117 11v164q35 -5 64 -5q45 0 69.5 18.5t24.5 50.5t-26 51t-82 19h-42v148h43q40 0 61.5 15.5t21.5 41.5q0 28 -23 45.5t-61 17.5q-40 0 -64.5 -19.5t-24.5 -53.5v-489h-244v478q0 123 92.5 188.5t252.5 65.5
q95 0 166 -24t109.5 -68.5t38.5 -104.5q0 -93 -97 -134q132 -52 132 -185z" />
    <glyph glyph-name="agrave" unicode="&#xe0;" horiz-adv-x="728" 
d="M592 529.5q90 -81.5 90 -235.5v-294h-237v73q-64 -93 -202 -93q-66 0 -114.5 24.5t-74 68t-25.5 97.5q0 56 27.5 99.5t79 67.5t121.5 24q62 0 107.5 -18.5t79.5 -59.5q-5 68 -57 103.5t-135 35.5q-54 0 -104 -18.5t-91 -53.5v183q114 78 275 78q170 0 260 -81.5z
M416.5 136.5q28.5 18.5 28.5 48.5q0 29 -28 47t-74 18q-42 0 -66.5 -18t-24.5 -48t24.5 -48t65.5 -18q46 0 74.5 18.5zM352 830l108 -180h-162l-156 180h210z" />
    <glyph glyph-name="aacute" unicode="&#xe1;" horiz-adv-x="728" 
d="M592 529.5q90 -81.5 90 -235.5v-294h-237v73q-64 -93 -202 -93q-66 0 -114.5 24.5t-74 68t-25.5 97.5q0 56 27.5 99.5t79 67.5t121.5 24q62 0 107.5 -18.5t79.5 -59.5q-5 68 -57 103.5t-135 35.5q-54 0 -104 -18.5t-91 -53.5v183q114 78 275 78q170 0 260 -81.5z
M416.5 136.5q28.5 18.5 28.5 48.5q0 29 -28 47t-74 18q-42 0 -66.5 -18t-24.5 -48t24.5 -48t65.5 -18q46 0 74.5 18.5zM429 650h-162l108 180h210z" />
    <glyph glyph-name="acircumflex" unicode="&#xe2;" horiz-adv-x="728" 
d="M592 529.5q90 -81.5 90 -235.5v-294h-237v73q-64 -93 -202 -93q-66 0 -114.5 24.5t-74 68t-25.5 97.5q0 56 27.5 99.5t79 67.5t121.5 24q62 0 107.5 -18.5t79.5 -59.5q-5 68 -57 103.5t-135 35.5q-54 0 -104 -18.5t-91 -53.5v183q114 78 275 78q170 0 260 -81.5z
M416.5 136.5q28.5 18.5 28.5 48.5q0 29 -28 47t-74 18q-42 0 -66.5 -18t-24.5 -48t24.5 -48t65.5 -18q46 0 74.5 18.5zM440 830l147 -180h-145l-84 82l-81 -82h-143l147 180h159z" />
    <glyph glyph-name="atilde" unicode="&#xe3;" horiz-adv-x="728" 
d="M592 529.5q90 -81.5 90 -235.5v-294h-237v73q-64 -93 -202 -93q-66 0 -114.5 24.5t-74 68t-25.5 97.5q0 56 27.5 99.5t79 67.5t121.5 24q62 0 107.5 -18.5t79.5 -59.5q-5 68 -57 103.5t-135 35.5q-54 0 -104 -18.5t-91 -53.5v183q114 78 275 78q170 0 260 -81.5z
M416.5 136.5q28.5 18.5 28.5 48.5q0 29 -28 47t-74 18q-42 0 -66.5 -18t-24.5 -48t24.5 -48t65.5 -18q46 0 74.5 18.5zM393 658.5q-22 8.5 -46 23.5q-19 10 -28.5 14.5t-20.5 4.5q-17 0 -25 -8.5t-8 -27.5h-107q-2 72 30 112.5t92 40.5q27 0 48 -8.5t45 -23.5
q16 -10 27.5 -15t22.5 -5q34 0 31 36h109q2 -71 -30 -111.5t-91 -40.5q-27 0 -49 8.5z" />
    <glyph glyph-name="adieresis" unicode="&#xe4;" horiz-adv-x="728" 
d="M592 529.5q90 -81.5 90 -235.5v-294h-237v73q-64 -93 -202 -93q-66 0 -114.5 24.5t-74 68t-25.5 97.5q0 56 27.5 99.5t79 67.5t121.5 24q62 0 107.5 -18.5t79.5 -59.5q-5 68 -57 103.5t-135 35.5q-54 0 -104 -18.5t-91 -53.5v183q114 78 275 78q170 0 260 -81.5z
M416.5 136.5q28.5 18.5 28.5 48.5q0 29 -28 47t-74 18q-42 0 -66.5 -18t-24.5 -48t24.5 -48t65.5 -18q46 0 74.5 18.5zM154.5 675q-31.5 28 -31.5 66t31.5 64t76.5 26q46 0 76.5 -26t30.5 -64q0 -39 -31 -66.5t-76 -27.5t-76.5 28zM415.5 675q-31.5 28 -31.5 66t31.5 64
t76.5 26q46 0 76.5 -26t30.5 -64q0 -39 -31 -66.5t-76 -27.5t-76.5 28z" />
    <glyph glyph-name="aring" unicode="&#xe5;" horiz-adv-x="728" 
d="M592 529.5q90 -81.5 90 -235.5v-294h-237v73q-64 -93 -202 -93q-66 0 -114.5 24.5t-74 68t-25.5 97.5q0 56 27.5 99.5t79 67.5t121.5 24q62 0 107.5 -18.5t79.5 -59.5q-5 68 -57 103.5t-135 35.5q-54 0 -104 -18.5t-91 -53.5v183q114 78 275 78q170 0 260 -81.5z
M416.5 136.5q28.5 18.5 28.5 48.5q0 29 -28 47t-74 18q-42 0 -66.5 -18t-24.5 -48t24.5 -48t65.5 -18q46 0 74.5 18.5zM258 672q-39 36 -39 93q0 53 40 87.5t102 34.5q63 0 102 -35.5t39 -90.5t-39.5 -90t-101.5 -35q-64 0 -103 36zM396.5 727.5q13.5 13.5 13.5 35.5
q0 20 -13.5 33t-35.5 13t-36 -13t-14 -33q0 -22 14 -35.5t36 -13.5t35.5 13.5z" />
    <glyph glyph-name="ae" unicode="&#xe6;" horiz-adv-x="1170" 
d="M1138 249h-447q22 -40 75 -62t134 -22q64 0 116.5 15t101.5 45v-173q-50 -33 -124.5 -52.5t-156.5 -19.5q-97 0 -172.5 29t-124.5 82q-79 -111 -247 -111q-82 0 -141.5 24.5t-91 68t-31.5 97.5q0 56 27.5 99.5t79 67.5t121.5 24q62 0 107.5 -18.5t79.5 -59.5
q-5 68 -57 103.5t-135 35.5q-54 0 -104 -18.5t-91 -53.5v183q114 78 275 78q150 0 233 -78q44 37 105 57.5t135 20.5q164 0 248.5 -78.5t84.5 -216.5v-67zM730 414.5q-34 -21.5 -45 -58.5h256q-8 39 -39.5 59.5t-84.5 20.5t-87 -21.5zM416.5 136.5q28.5 18.5 28.5 48.5
q0 29 -28 47t-74 18q-42 0 -66.5 -18t-24.5 -48t24.5 -48t65.5 -18q46 0 74.5 18.5z" />
    <glyph glyph-name="ccedilla" unicode="&#xe7;" horiz-adv-x="702" 
d="M663 46q-102 -61 -230 -65v-8h24q55 0 86.5 -28.5t31.5 -74.5q0 -49 -38 -80.5t-103 -31.5q-60 0 -121 23v91q50 -26 100 -26q22 0 34.5 8.5t12.5 22.5t-12.5 21.5t-34.5 7.5h-47v75q-108 7 -184.5 50.5t-115.5 113t-39 153.5q0 90 45 161t132 111.5t208 40.5
q150 0 249 -63v-183q-35 24 -81.5 39t-99.5 15q-93 0 -145.5 -34t-52.5 -89q0 -54 51 -88.5t148 -34.5q50 0 98.5 14.5t83.5 35.5v-177z" />
    <glyph glyph-name="egrave" unicode="&#xe8;" horiz-adv-x="754" 
d="M722 249h-447q22 -40 75 -62t134 -22q64 0 116.5 15t101.5 45v-173q-50 -33 -124.5 -52.5t-156.5 -19.5q-121 0 -210 40.5t-136.5 113.5t-47.5 167q0 89 43.5 159.5t125.5 110.5t193 40q164 0 248.5 -78.5t84.5 -216.5v-67zM314 414.5q-34 -21.5 -45 -58.5h256
q-8 39 -39.5 59.5t-84.5 20.5t-87 -21.5zM385 830l108 -180h-162l-156 180h210z" />
    <glyph glyph-name="eacute" unicode="&#xe9;" horiz-adv-x="754" 
d="M722 249h-447q22 -40 75 -62t134 -22q64 0 116.5 15t101.5 45v-173q-50 -33 -124.5 -52.5t-156.5 -19.5q-121 0 -210 40.5t-136.5 113.5t-47.5 167q0 89 43.5 159.5t125.5 110.5t193 40q164 0 248.5 -78.5t84.5 -216.5v-67zM314 414.5q-34 -21.5 -45 -58.5h256
q-8 39 -39.5 59.5t-84.5 20.5t-87 -21.5zM462 650h-162l108 180h210z" />
    <glyph glyph-name="ecircumflex" unicode="&#xea;" horiz-adv-x="754" 
d="M722 249h-447q22 -40 75 -62t134 -22q64 0 116.5 15t101.5 45v-173q-50 -33 -124.5 -52.5t-156.5 -19.5q-121 0 -210 40.5t-136.5 113.5t-47.5 167q0 89 43.5 159.5t125.5 110.5t193 40q164 0 248.5 -78.5t84.5 -216.5v-67zM314 414.5q-34 -21.5 -45 -58.5h256
q-8 39 -39.5 59.5t-84.5 20.5t-87 -21.5zM473 830l147 -180h-145l-84 82l-81 -82h-143l147 180h159z" />
    <glyph glyph-name="edieresis" unicode="&#xeb;" horiz-adv-x="754" 
d="M722 249h-447q22 -40 75 -62t134 -22q64 0 116.5 15t101.5 45v-173q-50 -33 -124.5 -52.5t-156.5 -19.5q-121 0 -210 40.5t-136.5 113.5t-47.5 167q0 89 43.5 159.5t125.5 110.5t193 40q164 0 248.5 -78.5t84.5 -216.5v-67zM314 414.5q-34 -21.5 -45 -58.5h256
q-8 39 -39.5 59.5t-84.5 20.5t-87 -21.5zM187.5 675q-31.5 28 -31.5 66t31.5 64t76.5 26q46 0 76.5 -26t30.5 -64q0 -39 -31 -66.5t-76 -27.5t-76.5 28zM448.5 675q-31.5 28 -31.5 66t31.5 64t76.5 26q46 0 76.5 -26t30.5 -64q0 -39 -31 -66.5t-76 -27.5t-76.5 28z" />
    <glyph glyph-name="igrave" unicode="&#xec;" horiz-adv-x="357" 
d="M301 0h-245v545h245v-545zM170 790l108 -180h-162l-156 180h210z" />
    <glyph glyph-name="iacute" unicode="&#xed;" horiz-adv-x="357" 
d="M301 0h-245v545h245v-545zM247 610h-162l108 180h210z" />
    <glyph glyph-name="icircumflex" unicode="&#xee;" horiz-adv-x="357" 
d="M301 0h-245v545h245v-545zM258 790l147 -180h-145l-84 82l-81 -82h-143l147 180h159z" />
    <glyph glyph-name="idieresis" unicode="&#xef;" horiz-adv-x="357" 
d="M301 0h-245v545h245v-545zM-27.5 635q-31.5 28 -31.5 66t31.5 64t76.5 26q46 0 76.5 -26t30.5 -64q0 -39 -31 -66.5t-76 -27.5t-76.5 28zM233.5 635q-31.5 28 -31.5 66t31.5 64t76.5 26q46 0 76.5 -26t30.5 -64q0 -39 -31 -66.5t-76 -27.5t-76.5 28z" />
    <glyph glyph-name="eth" unicode="&#xf0;" horiz-adv-x="784" 
d="M648 591q105 -132 105 -284q0 -106 -45.5 -179.5t-127.5 -110.5t-191 -37q-110 0 -192.5 37t-126.5 104t-44 154q0 81 37.5 143t104.5 95.5t153 33.5q64 0 112 -24.5t74 -66.5q-31 69 -102 135h-203v66h123q-37 27 -89 63h271q41 -27 80 -63h137v-66h-76zM488.5 184.5
q34.5 32.5 34.5 88.5q0 54 -33.5 85.5t-89.5 31.5t-91.5 -32t-35.5 -85q0 -56 35.5 -88.5t91.5 -32.5q54 0 88.5 32.5z" />
    <glyph glyph-name="ntilde" unicode="&#xf1;" horiz-adv-x="825" 
d="M715 540q61 -71 61 -209v-331h-245v279q0 66 -28 100t-82 34q-60 0 -90.5 -35t-30.5 -103v-275h-244v585h242v-146q31 88 88.5 130t148.5 42q119 0 180 -71zM478 658.5q-22 8.5 -46 23.5q-19 10 -28.5 14.5t-20.5 4.5q-17 0 -25 -8.5t-8 -27.5h-107q-2 72 30 112.5
t92 40.5q27 0 48 -8.5t45 -23.5q16 -10 27.5 -15t22.5 -5q34 0 31 36h109q2 -71 -30 -111.5t-91 -40.5q-27 0 -49 8.5z" />
    <glyph glyph-name="ograve" unicode="&#xf2;" horiz-adv-x="817" 
d="M204.5 22q-86.5 42 -132 115t-45.5 163t45.5 160.5t131.5 110.5t205 40t205 -40t131 -110t45 -161q0 -90 -45 -163t-131.5 -115t-204.5 -42t-204.5 42zM508.5 199.5q36.5 36.5 36.5 96.5t-36.5 95.5t-99.5 35.5q-64 0 -100.5 -35.5t-36.5 -95.5t36.5 -96.5t100.5 -36.5
q63 0 99.5 36.5zM400 830l108 -180h-162l-156 180h210z" />
    <glyph glyph-name="oacute" unicode="&#xf3;" horiz-adv-x="817" 
d="M204.5 22q-86.5 42 -132 115t-45.5 163t45.5 160.5t131.5 110.5t205 40t205 -40t131 -110t45 -161q0 -90 -45 -163t-131.5 -115t-204.5 -42t-204.5 42zM508.5 199.5q36.5 36.5 36.5 96.5t-36.5 95.5t-99.5 35.5q-64 0 -100.5 -35.5t-36.5 -95.5t36.5 -96.5t100.5 -36.5
q63 0 99.5 36.5zM477 650h-162l108 180h210z" />
    <glyph glyph-name="ocircumflex" unicode="&#xf4;" horiz-adv-x="817" 
d="M204.5 22q-86.5 42 -132 115t-45.5 163t45.5 160.5t131.5 110.5t205 40t205 -40t131 -110t45 -161q0 -90 -45 -163t-131.5 -115t-204.5 -42t-204.5 42zM508.5 199.5q36.5 36.5 36.5 96.5t-36.5 95.5t-99.5 35.5q-64 0 -100.5 -35.5t-36.5 -95.5t36.5 -96.5t100.5 -36.5
q63 0 99.5 36.5zM488 830l147 -180h-145l-84 82l-81 -82h-143l147 180h159z" />
    <glyph glyph-name="otilde" unicode="&#xf5;" horiz-adv-x="817" 
d="M204.5 22q-86.5 42 -132 115t-45.5 163t45.5 160.5t131.5 110.5t205 40t205 -40t131 -110t45 -161q0 -90 -45 -163t-131.5 -115t-204.5 -42t-204.5 42zM508.5 199.5q36.5 36.5 36.5 96.5t-36.5 95.5t-99.5 35.5q-64 0 -100.5 -35.5t-36.5 -95.5t36.5 -96.5t100.5 -36.5
q63 0 99.5 36.5zM441 658.5q-22 8.5 -46 23.5q-19 10 -28.5 14.5t-20.5 4.5q-17 0 -25 -8.5t-8 -27.5h-107q-2 72 30 112.5t92 40.5q27 0 48 -8.5t45 -23.5q16 -10 27.5 -15t22.5 -5q34 0 31 36h109q2 -71 -30 -111.5t-91 -40.5q-27 0 -49 8.5z" />
    <glyph glyph-name="odieresis" unicode="&#xf6;" horiz-adv-x="817" 
d="M204.5 22q-86.5 42 -132 115t-45.5 163t45.5 160.5t131.5 110.5t205 40t205 -40t131 -110t45 -161q0 -90 -45 -163t-131.5 -115t-204.5 -42t-204.5 42zM508.5 199.5q36.5 36.5 36.5 96.5t-36.5 95.5t-99.5 35.5q-64 0 -100.5 -35.5t-36.5 -95.5t36.5 -96.5t100.5 -36.5
q63 0 99.5 36.5zM202.5 675q-31.5 28 -31.5 66t31.5 64t76.5 26q46 0 76.5 -26t30.5 -64q0 -39 -31 -66.5t-76 -27.5t-76.5 28zM463.5 675q-31.5 28 -31.5 66t31.5 64t76.5 26q46 0 76.5 -26t30.5 -64q0 -39 -31 -66.5t-76 -27.5t-76.5 28z" />
    <glyph glyph-name="divide" unicode="&#xf7;" 
d="M254.5 475.5q-35.5 28.5 -35.5 69.5q0 40 35 67t86 27q50 0 84 -27t34 -67q0 -41 -34.5 -69.5t-83.5 -28.5q-50 0 -85.5 28.5zM651 227h-626v189h626v-189zM254.5 32.5q-35.5 28.5 -35.5 69.5q0 40 35.5 67t85.5 27t84 -27t34 -67q0 -41 -34 -69.5t-84 -28.5t-85.5 28.5z
" />
    <glyph glyph-name="oslash" unicode="&#xf8;" horiz-adv-x="817" 
d="M685 528q51 -42 78 -100t27 -128q0 -90 -45 -163t-131.5 -115t-204.5 -42q-89 0 -162 25l-76 -90l-96 77l61 73q-53 43 -81 104t-28 131q0 90 45.5 160.5t131.5 110.5t205 40q88 0 165 -24l71 84l97 -75zM282 239l156 186q-18 2 -29 2q-64 0 -100.5 -35.5t-36.5 -95.5
q0 -29 10 -57zM508.5 199.5q36.5 36.5 36.5 96.5q0 30 -9 54l-155 -185q18 -2 28 -2q63 0 99.5 36.5z" />
    <glyph glyph-name="ugrave" unicode="&#xf9;" horiz-adv-x="822" 
d="M521 585h245v-585h-245v121q-29 -70 -88.5 -106t-142.5 -36q-117 0 -178.5 65.5t-61.5 187.5v353h245v-293q0 -67 26.5 -98.5t82.5 -31.5q58 0 87.5 34t29.5 101v288zM401 830l108 -180h-162l-156 180h210z" />
    <glyph glyph-name="uacute" unicode="&#xfa;" horiz-adv-x="822" 
d="M521 585h245v-585h-245v121q-29 -70 -88.5 -106t-142.5 -36q-117 0 -178.5 65.5t-61.5 187.5v353h245v-293q0 -67 26.5 -98.5t82.5 -31.5q58 0 87.5 34t29.5 101v288zM478 650h-162l108 180h210z" />
    <glyph glyph-name="ucircumflex" unicode="&#xfb;" horiz-adv-x="822" 
d="M521 585h245v-585h-245v121q-29 -70 -88.5 -106t-142.5 -36q-117 0 -178.5 65.5t-61.5 187.5v353h245v-293q0 -67 26.5 -98.5t82.5 -31.5q58 0 87.5 34t29.5 101v288zM489 830l147 -180h-145l-84 82l-81 -82h-143l147 180h159z" />
    <glyph glyph-name="udieresis" unicode="&#xfc;" horiz-adv-x="822" 
d="M521 585h245v-585h-245v121q-29 -70 -88.5 -106t-142.5 -36q-117 0 -178.5 65.5t-61.5 187.5v353h245v-293q0 -67 26.5 -98.5t82.5 -31.5q58 0 87.5 34t29.5 101v288zM203.5 675q-31.5 28 -31.5 66t31.5 64t76.5 26q46 0 76.5 -26t30.5 -64q0 -39 -31 -66.5t-76 -27.5
t-76.5 28zM464.5 675q-31.5 28 -31.5 66t31.5 64t76.5 26q46 0 76.5 -26t30.5 -64q0 -39 -31 -66.5t-76 -27.5t-76.5 28z" />
    <glyph glyph-name="yacute" unicode="&#xfd;" horiz-adv-x="782" 
d="M390 270l141 315h259l-392 -775h-276l131 243l-256 532h261zM462 650h-162l108 180h210z" />
    <glyph glyph-name="thorn" unicode="&#xfe;" horiz-adv-x="854" 
d="M696 570q62 -41 95.5 -112.5t33.5 -160.5q0 -93 -35.5 -165t-99.5 -112t-146 -40q-178 0 -244 138v-308h-244v910h244v-278q25 83 88 126t163 43q83 0 145 -41zM532.5 203q37.5 36 37.5 93q0 56 -37 92t-98 36q-62 0 -99 -36.5t-37 -93.5t36 -92t98 -35t99.5 36z" />
    <glyph glyph-name="ydieresis" unicode="&#xff;" horiz-adv-x="782" 
d="M390 270l141 315h259l-392 -775h-276l131 243l-256 532h261zM187.5 675q-31.5 28 -31.5 66t31.5 64t76.5 26q46 0 76.5 -26t30.5 -64q0 -39 -31 -66.5t-76 -27.5t-76.5 28zM448.5 675q-31.5 28 -31.5 66t31.5 64t76.5 26q46 0 76.5 -26t30.5 -64q0 -39 -31 -66.5
t-76 -27.5t-76.5 28z" />
    <glyph glyph-name="Amacron" unicode="&#x100;" horiz-adv-x="853" 
d="M199 881h455v-122h-455v122zM851 0h-254l-43 134h-263l-43 -134h-247l247 700h358zM423 541l-86 -267h172z" />
    <glyph glyph-name="amacron" unicode="&#x101;" horiz-adv-x="728" 
d="M592 529.5q90 -81.5 90 -235.5v-294h-237v73q-64 -93 -202 -93q-66 0 -114.5 24.5t-74 68t-25.5 97.5q0 56 27.5 99.5t79 67.5t121.5 24q62 0 107.5 -18.5t79.5 -59.5q-5 68 -57 103.5t-135 35.5q-54 0 -104 -18.5t-91 -53.5v183q114 78 275 78q170 0 260 -81.5z
M416.5 136.5q28.5 18.5 28.5 48.5q0 29 -28 47t-74 18q-42 0 -66.5 -18t-24.5 -48t24.5 -48t65.5 -18q46 0 74.5 18.5zM578 659h-435v122h435v-122z" />
    <glyph glyph-name="Abreve" unicode="&#x102;" horiz-adv-x="853" 
d="M325 755.5q-46 21.5 -74.5 64t-30.5 102.5h126q2 -32 24 -51t56 -19t54.5 19t22.5 51h128q-2 -60 -30.5 -102.5t-74 -64t-100.5 -21.5t-101 21.5zM851 0h-254l-43 134h-263l-43 -134h-247l247 700h358zM423 541l-86 -267h172z" />
    <glyph glyph-name="abreve" unicode="&#x103;" horiz-adv-x="728" 
d="M592 529.5q90 -81.5 90 -235.5v-294h-237v73q-64 -93 -202 -93q-66 0 -114.5 24.5t-74 68t-25.5 97.5q0 56 27.5 99.5t79 67.5t121.5 24q62 0 107.5 -18.5t79.5 -59.5q-5 68 -57 103.5t-135 35.5q-54 0 -104 -18.5t-91 -53.5v183q114 78 275 78q170 0 260 -81.5z
M416.5 136.5q28.5 18.5 28.5 48.5q0 29 -28 47t-74 18q-42 0 -66.5 -18t-24.5 -48t24.5 -48t65.5 -18q46 0 74.5 18.5zM265 663.5q-44 21.5 -71 64t-29 102.5h126q2 -32 21 -51t49 -19q29 0 47 19t20 51h128q-4 -90 -59 -139t-136 -49q-52 0 -96 21.5z" />
    <glyph glyph-name="Aogonek" unicode="&#x104;" horiz-adv-x="853" 
d="M873.5 -143q17.5 5 29.5 13v-89q-49 -23 -98 -23q-73 0 -114.5 35.5t-41.5 96.5q0 34 15.5 62.5t45.5 47.5h-113l-43 134h-263l-43 -134h-247l247 700h358l245 -700q-38 0 -62.5 -22.5t-24.5 -54.5q0 -34 19.5 -52.5t56.5 -18.5q16 0 33.5 5zM423 541l-86 -267h172z" />
    <glyph glyph-name="aogonek" unicode="&#x105;" horiz-adv-x="728" 
d="M640 0q-53 0 -80 -23.5t-27 -59.5q0 -26 20 -40.5t56 -14.5q18 0 38 5t35 13v-89q-54 -23 -108 -23q-73 0 -114.5 33t-41.5 89q0 34 14.5 62.5t42.5 47.5h-30v73q-64 -93 -202 -93q-66 0 -114.5 24.5t-74 68t-25.5 97.5q0 56 27.5 99.5t79 67.5t121.5 24
q62 0 107.5 -18.5t79.5 -59.5q-5 68 -57 103.5t-135 35.5q-54 0 -104 -18.5t-91 -53.5v183q114 78 275 78q170 0 260 -81.5t90 -235.5v-294h-42zM416.5 136.5q28.5 18.5 28.5 48.5q0 29 -28 47t-74 18q-42 0 -66.5 -18t-24.5 -48t24.5 -48t65.5 -18q46 0 74.5 18.5z" />
    <glyph glyph-name="Cacute" unicode="&#x106;" horiz-adv-x="846" 
d="M564 742h-163l108 180h211zM243 25q-103 48 -157 131.5t-54 189.5q0 107 55 192.5t159.5 135t249.5 49.5q89 0 162.5 -17.5t139.5 -50.5v-207q-43 30 -106.5 48.5t-135.5 18.5q-118 0 -184.5 -45t-66.5 -118q0 -49 30 -86t86.5 -58t134.5 -21q74 0 138 20t106 53v-202
q-72 -42 -145 -61.5t-166 -19.5q-143 0 -246 48z" />
    <glyph glyph-name="cacute" unicode="&#x107;" horiz-adv-x="702" 
d="M200 22q-86 42 -129.5 114t-43.5 162t45 161t132 111.5t208 40.5q150 0 249 -63v-183q-35 24 -81.5 39t-99.5 15q-93 0 -145.5 -34t-52.5 -89q0 -54 51 -88.5t148 -34.5q50 0 98.5 14.5t83.5 35.5v-177q-110 -66 -255 -66q-122 0 -208 42zM473 650h-162l108 180h210z" />
    <glyph glyph-name="Ccircumflex" unicode="&#x108;" horiz-adv-x="846" 
d="M587 742l-94 84l-91 -84h-143l157 180h159l157 -180h-145zM694 207q64 20 106 53v-202q-72 -42 -145 -61.5t-166 -19.5q-143 0 -246 48t-157 131.5t-54 189.5q0 107 55 192.5t159.5 135t249.5 49.5q89 0 162.5 -17.5t139.5 -50.5v-207q-43 30 -106.5 48.5t-135.5 18.5
q-118 0 -184.5 -45t-66.5 -118q0 -49 30 -86t86.5 -58t134.5 -21q74 0 138 20z" />
    <glyph glyph-name="ccircumflex" unicode="&#x109;" horiz-adv-x="702" 
d="M200 22q-86 42 -129.5 114t-43.5 162t45 161t132 111.5t208 40.5q150 0 249 -63v-183q-35 24 -81.5 39t-99.5 15q-93 0 -145.5 -34t-52.5 -89q0 -54 51 -88.5t148 -34.5q50 0 98.5 14.5t83.5 35.5v-177q-110 -66 -255 -66q-122 0 -208 42zM484 830l147 -180h-145l-84 82
l-81 -82h-143l147 180h159z" />
    <glyph glyph-name="Cdotaccent" unicode="&#x10a;" horiz-adv-x="846" 
d="M398.5 757q-37.5 28 -37.5 72q0 43 38 70.5t96 27.5t94.5 -27.5t36.5 -70.5q0 -44 -36.5 -72t-94.5 -28q-59 0 -96.5 28zM243 25q-103 48 -157 131.5t-54 189.5q0 107 55 192.5t159.5 135t249.5 49.5q89 0 162.5 -17.5t139.5 -50.5v-207q-43 30 -106.5 48.5t-135.5 18.5
q-118 0 -184.5 -45t-66.5 -118q0 -49 30 -86t86.5 -58t134.5 -21q74 0 138 20t106 53v-202q-72 -42 -145 -61.5t-166 -19.5q-143 0 -246 48z" />
    <glyph glyph-name="cdotaccent" unicode="&#x10b;" horiz-adv-x="702" 
d="M200 22q-86 42 -129.5 114t-43.5 162t45 161t132 111.5t208 40.5q150 0 249 -63v-183q-35 24 -81.5 39t-99.5 15q-93 0 -145.5 -34t-52.5 -89q0 -54 51 -88.5t148 -34.5q50 0 98.5 14.5t83.5 35.5v-177q-110 -66 -255 -66q-122 0 -208 42zM309.5 673q-37.5 28 -37.5 72
q0 43 38 70.5t96 27.5t94.5 -27.5t36.5 -70.5q0 -44 -36.5 -72t-94.5 -28q-59 0 -96.5 28z" />
    <glyph glyph-name="Ccaron" unicode="&#x10c;" horiz-adv-x="846" 
d="M732 922l-157 -180h-159l-157 180h143l91 -84l94 84h145zM694 207q64 20 106 53v-202q-72 -42 -145 -61.5t-166 -19.5q-143 0 -246 48t-157 131.5t-54 189.5q0 107 55 192.5t159.5 135t249.5 49.5q89 0 162.5 -17.5t139.5 -50.5v-207q-43 30 -106.5 48.5t-135.5 18.5
q-118 0 -184.5 -45t-66.5 -118q0 -49 30 -86t86.5 -58t134.5 -21q74 0 138 20z" />
    <glyph glyph-name="ccaron" unicode="&#x10d;" horiz-adv-x="702" 
d="M200 22q-86 42 -129.5 114t-43.5 162t45 161t132 111.5t208 40.5q150 0 249 -63v-183q-35 24 -81.5 39t-99.5 15q-93 0 -145.5 -34t-52.5 -89q0 -54 51 -88.5t148 -34.5q50 0 98.5 14.5t83.5 35.5v-177q-110 -66 -255 -66q-122 0 -208 42zM402 748l84 82h145l-147 -180
h-159l-147 180h143z" />
    <glyph glyph-name="Dcaron" unicode="&#x10e;" horiz-adv-x="922" 
d="M699 922l-157 -180h-159l-157 180h143l91 -84l94 84h145zM456 700q141 0 238.5 -44t146 -122.5t48.5 -179.5q0 -99 -50.5 -179.5t-154 -127.5t-256.5 -47h-362v700h390zM424 178q95 0 146 47.5t51 129.5q0 76 -45.5 121.5t-137.5 45.5h-122v-344h108z" />
    <glyph glyph-name="dcaron" unicode="&#x10f;" horiz-adv-x="925" 
d="M808 550l68 180h190l-116 -180h-142zM555 720h245v-720h-245v131q-31 -74 -94.5 -112.5t-156.5 -38.5q-83 0 -145 40.5t-95.5 111t-33.5 159.5q-1 92 35.5 165t103 114t151.5 41q175 0 235 -152v261zM518.5 203.5q37.5 36.5 37.5 94.5q0 56 -36.5 91t-99.5 35
q-62 0 -99 -35.5t-37 -92.5t37 -93t98 -36q62 0 99.5 36.5z" />
    <glyph glyph-name="Dcroat" unicode="&#x110;" horiz-adv-x="922" 
d="M456 700q141 0 238.5 -44t146 -122.5t48.5 -179.5q0 -99 -50.5 -179.5t-154 -127.5t-256.5 -47h-362v317h-53v66h53v317h390zM424 178q95 0 146 47.5t51 129.5q0 76 -45.5 121.5t-137.5 45.5h-122v-139h132v-66h-132v-139h108z" />
    <glyph glyph-name="dcroat" unicode="&#x111;" horiz-adv-x="851" 
d="M851 686v-66h-51v-620h-245v131q-31 -74 -94.5 -112.5t-156.5 -38.5q-83 0 -145 40.5t-95.5 111t-33.5 159.5q-1 92 35.5 165t103 114t151.5 41q175 0 235 -152v161h-139v66h139v34h245v-34h51zM518.5 203.5q37.5 36.5 37.5 94.5q0 56 -36.5 91t-99.5 35q-62 0 -99 -35.5
t-37 -92.5t37 -93t98 -36q62 0 99.5 36.5z" />
    <glyph glyph-name="Emacron" unicode="&#x112;" horiz-adv-x="767" 
d="M166 881h455v-122h-455v122zM316 272v-94h402v-178h-652v700h649v-178h-399v-86h379v-164h-379z" />
    <glyph glyph-name="emacron" unicode="&#x113;" horiz-adv-x="754" 
d="M722 249h-447q22 -40 75 -62t134 -22q64 0 116.5 15t101.5 45v-173q-50 -33 -124.5 -52.5t-156.5 -19.5q-121 0 -210 40.5t-136.5 113.5t-47.5 167q0 89 43.5 159.5t125.5 110.5t193 40q164 0 248.5 -78.5t84.5 -216.5v-67zM314 414.5q-34 -21.5 -45 -58.5h256
q-8 39 -39.5 59.5t-84.5 20.5t-87 -21.5zM611 659h-435v122h435v-122z" />
    <glyph glyph-name="Ebreve" unicode="&#x114;" horiz-adv-x="767" 
d="M292 755.5q-46 21.5 -74.5 64t-30.5 102.5h126q2 -32 24 -51t56 -19t54.5 19t22.5 51h128q-2 -60 -30.5 -102.5t-74 -64t-100.5 -21.5t-101 21.5zM316 272v-94h402v-178h-652v700h649v-178h-399v-86h379v-164h-379z" />
    <glyph glyph-name="ebreve" unicode="&#x115;" horiz-adv-x="754" 
d="M722 249h-447q22 -40 75 -62t134 -22q64 0 116.5 15t101.5 45v-173q-50 -33 -124.5 -52.5t-156.5 -19.5q-121 0 -210 40.5t-136.5 113.5t-47.5 167q0 89 43.5 159.5t125.5 110.5t193 40q164 0 248.5 -78.5t84.5 -216.5v-67zM314 414.5q-34 -21.5 -45 -58.5h256
q-8 39 -39.5 59.5t-84.5 20.5t-87 -21.5zM298 663.5q-44 21.5 -71 64t-29 102.5h126q2 -32 21 -51t49 -19q29 0 47 19t20 51h128q-4 -90 -59 -139t-136 -49q-52 0 -96 21.5z" />
    <glyph glyph-name="Edotaccent" unicode="&#x116;" horiz-adv-x="767" 
d="M297.5 757q-37.5 28 -37.5 72q0 43 38 70.5t96 27.5t94.5 -27.5t36.5 -70.5q0 -44 -36.5 -72t-94.5 -28q-59 0 -96.5 28zM316 272v-94h402v-178h-652v700h649v-178h-399v-86h379v-164h-379z" />
    <glyph glyph-name="edotaccent" unicode="&#x117;" horiz-adv-x="754" 
d="M722 249h-447q22 -40 75 -62t134 -22q64 0 116.5 15t101.5 45v-173q-50 -33 -124.5 -52.5t-156.5 -19.5q-121 0 -210 40.5t-136.5 113.5t-47.5 167q0 89 43.5 159.5t125.5 110.5t193 40q164 0 248.5 -78.5t84.5 -216.5v-67zM314 414.5q-34 -21.5 -45 -58.5h256
q-8 39 -39.5 59.5t-84.5 20.5t-87 -21.5zM298.5 673q-37.5 28 -37.5 72q0 43 38 70.5t96 27.5t94.5 -27.5t36.5 -70.5q0 -44 -36.5 -72t-94.5 -28q-59 0 -96.5 28z" />
    <glyph glyph-name="Eogonek" unicode="&#x118;" horiz-adv-x="767" 
d="M638 0q-38 0 -62.5 -22.5t-24.5 -54.5q0 -34 19.5 -52.5t56.5 -18.5q16 0 33.5 5t29.5 13v-89q-49 -23 -98 -23q-73 0 -114.5 35.5t-41.5 96.5q0 34 15.5 62.5t45.5 47.5h-431v700h649v-178h-399v-86h379v-164h-379v-94h402v-178h-80z" />
    <glyph glyph-name="eogonek" unicode="&#x119;" horiz-adv-x="754" 
d="M722 249h-447q22 -40 75 -62t134 -22q64 0 116.5 15t101.5 45v-173q-46 -30 -112 -49t-140 -22q-33 -23 -33 -64q0 -26 20 -40.5t56 -14.5q18 0 38 5t35 13v-89q-54 -23 -108 -23q-73 0 -114.5 33t-41.5 89q0 57 39 95q-98 13 -168.5 56t-108 110t-37.5 150
q0 89 43.5 159.5t125.5 110.5t193 40q164 0 248.5 -78.5t84.5 -216.5v-67zM314 414.5q-34 -21.5 -45 -58.5h256q-8 39 -39.5 59.5t-84.5 20.5t-87 -21.5z" />
    <glyph glyph-name="Ecaron" unicode="&#x11a;" horiz-adv-x="767" 
d="M631 922l-157 -180h-159l-157 180h143l91 -84l94 84h145zM316 272v-94h402v-178h-652v700h649v-178h-399v-86h379v-164h-379z" />
    <glyph glyph-name="ecaron" unicode="&#x11b;" horiz-adv-x="754" 
d="M722 249h-447q22 -40 75 -62t134 -22q64 0 116.5 15t101.5 45v-173q-50 -33 -124.5 -52.5t-156.5 -19.5q-121 0 -210 40.5t-136.5 113.5t-47.5 167q0 89 43.5 159.5t125.5 110.5t193 40q164 0 248.5 -78.5t84.5 -216.5v-67zM314 414.5q-34 -21.5 -45 -58.5h256
q-8 39 -39.5 59.5t-84.5 20.5t-87 -21.5zM391 748l84 82h145l-147 -180h-159l-147 180h143z" />
    <glyph glyph-name="Gcircumflex" unicode="&#x11c;" horiz-adv-x="938" 
d="M600 742l-94 84l-91 -84h-143l157 180h159l157 -180h-145zM429 426h474v-96q0 -171 -110.5 -261.5t-302.5 -90.5q-141 0 -244.5 47.5t-158.5 132t-55 191.5q0 105 53.5 189.5t163 134t269.5 49.5q179 0 322 -64v-202q-52 24 -120.5 39t-145.5 15q-146 0 -213.5 -48.5
t-67.5 -122.5q0 -73 56.5 -116.5t153.5 -43.5q66 0 110.5 20.5t62.5 59.5h-289z" />
    <glyph glyph-name="gcircumflex" unicode="&#x11d;" horiz-adv-x="842" 
d="M544 585h244v-440q0 -112 -51 -191t-146.5 -120.5t-227.5 -41.5q-87 0 -163 19.5t-120 51.5v176q37 -32 99.5 -55t130.5 -23q114 0 174 53t60 157v15q-34 -77 -93.5 -113t-143.5 -36q-85 0 -148 36t-96.5 99.5t-33.5 144.5q0 87 35.5 153.5t100 103.5t148.5 37
t140.5 -36.5t90.5 -112.5v123zM508.5 233.5q36.5 32.5 36.5 84.5t-35.5 84.5t-95.5 32.5q-59 0 -95 -33t-36 -86q0 -51 35.5 -83t93.5 -32q60 0 96.5 32.5zM499 830l147 -180h-145l-84 82l-81 -82h-143l147 180h159z" />
    <glyph glyph-name="Gbreve" unicode="&#x11e;" horiz-adv-x="938" 
d="M406 755.5q-46 21.5 -74.5 64t-30.5 102.5h126q2 -32 24 -51t56 -19t54.5 19t22.5 51h128q-2 -60 -30.5 -102.5t-74 -64t-100.5 -21.5t-101 21.5zM429 426h474v-96q0 -171 -110.5 -261.5t-302.5 -90.5q-141 0 -244.5 47.5t-158.5 132t-55 191.5q0 105 53.5 189.5t163 134
t269.5 49.5q179 0 322 -64v-202q-52 24 -120.5 39t-145.5 15q-146 0 -213.5 -48.5t-67.5 -122.5q0 -73 56.5 -116.5t153.5 -43.5q66 0 110.5 20.5t62.5 59.5h-289z" />
    <glyph glyph-name="gbreve" unicode="&#x11f;" horiz-adv-x="842" 
d="M544 585h244v-440q0 -112 -51 -191t-146.5 -120.5t-227.5 -41.5q-87 0 -163 19.5t-120 51.5v176q37 -32 99.5 -55t130.5 -23q114 0 174 53t60 157v15q-34 -77 -93.5 -113t-143.5 -36q-85 0 -148 36t-96.5 99.5t-33.5 144.5q0 87 35.5 153.5t100 103.5t148.5 37
t140.5 -36.5t90.5 -112.5v123zM508.5 233.5q36.5 32.5 36.5 84.5t-35.5 84.5t-95.5 32.5q-59 0 -95 -33t-36 -86q0 -51 35.5 -83t93.5 -32q60 0 96.5 32.5zM324 663.5q-44 21.5 -71 64t-29 102.5h126q2 -32 21 -51t49 -19q29 0 47 19t20 51h128q-4 -90 -59 -139t-136 -49
q-52 0 -96 21.5z" />
    <glyph glyph-name="Gdotaccent" unicode="&#x120;" horiz-adv-x="938" 
d="M411.5 757q-37.5 28 -37.5 72q0 43 38 70.5t96 27.5t94.5 -27.5t36.5 -70.5q0 -44 -36.5 -72t-94.5 -28q-59 0 -96.5 28zM429 426h474v-96q0 -171 -110.5 -261.5t-302.5 -90.5q-141 0 -244.5 47.5t-158.5 132t-55 191.5q0 105 53.5 189.5t163 134t269.5 49.5
q179 0 322 -64v-202q-52 24 -120.5 39t-145.5 15q-146 0 -213.5 -48.5t-67.5 -122.5q0 -73 56.5 -116.5t153.5 -43.5q66 0 110.5 20.5t62.5 59.5h-289z" />
    <glyph glyph-name="gdotaccent" unicode="&#x121;" horiz-adv-x="842" 
d="M544 585h244v-440q0 -112 -51 -191t-146.5 -120.5t-227.5 -41.5q-87 0 -163 19.5t-120 51.5v176q37 -32 99.5 -55t130.5 -23q114 0 174 53t60 157v15q-34 -77 -93.5 -113t-143.5 -36q-85 0 -148 36t-96.5 99.5t-33.5 144.5q0 87 35.5 153.5t100 103.5t148.5 37
t140.5 -36.5t90.5 -112.5v123zM508.5 233.5q36.5 32.5 36.5 84.5t-35.5 84.5t-95.5 32.5q-59 0 -95 -33t-36 -86q0 -51 35.5 -83t93.5 -32q60 0 96.5 32.5zM324.5 673q-37.5 28 -37.5 72q0 43 38 70.5t96 27.5t94.5 -27.5t36.5 -70.5q0 -44 -36.5 -72t-94.5 -28
q-59 0 -96.5 28z" />
    <glyph glyph-name="uni0122" unicode="&#x122;" horiz-adv-x="938" 
d="M429 426h474v-96q0 -171 -110.5 -261.5t-302.5 -90.5q-141 0 -244.5 47.5t-158.5 132t-55 191.5q0 105 53.5 189.5t163 134t269.5 49.5q179 0 322 -64v-202q-52 24 -120.5 39t-145.5 15q-146 0 -213.5 -48.5t-67.5 -122.5q0 -73 56.5 -116.5t153.5 -43.5q66 0 110.5 20.5
t62.5 59.5h-289zM463 -238h-142l68 180h190z" />
    <glyph glyph-name="uni0123" unicode="&#x123;" horiz-adv-x="842" 
d="M407 874h142l-68 -220h-190zM544 585h244v-440q0 -112 -51 -191t-146.5 -120.5t-227.5 -41.5q-87 0 -163 19.5t-120 51.5v176q37 -32 99.5 -55t130.5 -23q114 0 174 53t60 157v15q-34 -77 -93.5 -113t-143.5 -36q-85 0 -148 36t-96.5 99.5t-33.5 144.5q0 87 35.5 153.5
t100 103.5t148.5 37t140.5 -36.5t90.5 -112.5v123zM508.5 233.5q36.5 32.5 36.5 84.5t-35.5 84.5t-95.5 32.5q-59 0 -95 -33t-36 -86q0 -51 35.5 -83t93.5 -32q60 0 96.5 32.5z" />
    <glyph glyph-name="Hcircumflex" unicode="&#x124;" horiz-adv-x="915" 
d="M551 742l-94 84l-91 -84h-143l157 180h159l157 -180h-145zM599 447v253h250v-700h-250v268h-283v-268h-250v700h250v-253h283z" />
    <glyph glyph-name="hcircumflex" unicode="&#x125;" horiz-adv-x="825" 
d="M715 540q61 -71 61 -209v-331h-245v279q0 66 -28 100t-82 34q-60 0 -90.5 -35t-30.5 -103v-275h-244v720h244v-276q31 85 88 126t147 41q119 0 180 -71zM494 925l147 -180h-145l-84 82l-81 -82h-143l147 180h159z" />
    <glyph glyph-name="Hbar" unicode="&#x126;" horiz-adv-x="977" 
d="M880 613h80v-86h-80v-527h-250v268h-283v-268h-250v527h-80v86h80v87h250v-87h283v87h250v-87zM347 447h283v80h-283v-80z" />
    <glyph glyph-name="hbar" unicode="&#x127;" horiz-adv-x="831" 
d="M715 540q61 -71 61 -209v-331h-245v279q0 66 -28 100t-82 34q-60 0 -90.5 -35t-30.5 -103v-275h-244v620h-52v66h52v34h244v-34h139v-66h-139v-176q31 85 88 126t147 41q119 0 180 -71z" />
    <glyph glyph-name="Itilde" unicode="&#x128;" horiz-adv-x="382" 
d="M-27 755q-2 79 32.5 123.5t99.5 44.5q32 0 57.5 -9t55.5 -26q21 -11 34 -16.5t26 -5.5q26 0 38 12t10 34h102q2 -78 -32.5 -122.5t-98.5 -44.5q-33 0 -58 9t-57 26q-24 12 -35 16.5t-24 4.5q-26 0 -38 -11.5t-12 -34.5h-100zM316 0h-250v701h250v-701z" />
    <glyph glyph-name="itilde" unicode="&#x129;" horiz-adv-x="357" 
d="M301 0h-245v545h245v-545zM211 618.5q-22 8.5 -46 23.5q-19 10 -28.5 14.5t-20.5 4.5q-17 0 -25 -8.5t-8 -27.5h-107q-2 72 30 112.5t92 40.5q27 0 48 -8.5t45 -23.5q16 -10 27.5 -15t22.5 -5q34 0 31 36h109q2 -71 -30 -111.5t-91 -40.5q-27 0 -49 8.5z" />
    <glyph glyph-name="Imacron" unicode="&#x12a;" horiz-adv-x="382" 
d="M419 759h-455v122h455v-122zM316 0h-250v701h250v-701z" />
    <glyph glyph-name="imacron" unicode="&#x12b;" horiz-adv-x="357" 
d="M301 0h-245v545h245v-545zM396 619h-435v122h435v-122z" />
    <glyph glyph-name="Ibreve" unicode="&#x12c;" horiz-adv-x="382" 
d="M90 755.5q-46 21.5 -74.5 64t-30.5 102.5h126q2 -32 24 -51t56 -19t54.5 19t22.5 51h128q-2 -60 -30.5 -102.5t-74 -64t-100.5 -21.5t-101 21.5zM316 0h-250v701h250v-701z" />
    <glyph glyph-name="ibreve" unicode="&#x12d;" horiz-adv-x="357" 
d="M301 0h-245v545h245v-545zM83 623.5q-44 21.5 -71 64t-29 102.5h126q2 -32 21 -51t49 -19q29 0 47 19t20 51h128q-4 -90 -59 -139t-136 -49q-52 0 -96 21.5z" />
    <glyph glyph-name="Iogonek" unicode="&#x12e;" horiz-adv-x="388" 
d="M338.5 -143q17.5 5 29.5 13v-89q-49 -23 -98 -23q-73 0 -114.5 35.5t-41.5 96.5q0 34 15.5 62.5t45.5 47.5h-109v701h250v-701q-38 0 -62.5 -22.5t-24.5 -54.5q0 -34 19.5 -52.5t56.5 -18.5q16 0 33.5 5z" />
    <glyph glyph-name="iogonek" unicode="&#x12f;" horiz-adv-x="363" 
d="M89.5 610q-37.5 28 -37.5 72q0 43 38 70.5t96 27.5t94.5 -27.5t36.5 -70.5q0 -44 -36.5 -72t-94.5 -28q-59 0 -96.5 28zM297 -133q20 5 35 13v-89q-54 -23 -108 -23q-73 0 -114.5 33t-41.5 89q0 34 14.5 62.5t42.5 47.5h-63v545h245v-545h-17q-53 0 -80 -23.5t-27 -59.5
q0 -26 20 -40.5t56 -14.5q18 0 38 5z" />
    <glyph glyph-name="Idotaccent" unicode="&#x130;" horiz-adv-x="382" 
d="M95.5 757q-37.5 28 -37.5 72q0 43 38 70.5t96 27.5t94.5 -27.5t36.5 -70.5q0 -44 -36.5 -72t-94.5 -28q-59 0 -96.5 28zM316 0h-250v701h250v-701z" />
    <glyph glyph-name="dotlessi" unicode="&#x131;" horiz-adv-x="357" 
d="M301 0h-245v545h245v-545z" />
    <glyph glyph-name="IJ" unicode="&#x132;" horiz-adv-x="952" 
d="M316 0h-250v701h250v-701zM475.5 -6.5q-51.5 16.5 -77.5 39.5v188q47 -41 116 -41q60 0 94.5 31.5t34.5 91.5v397h250v-453q0 -136 -81 -203t-220 -67q-65 0 -116.5 16.5z" />
    <glyph glyph-name="ij" unicode="&#x133;" horiz-adv-x="723" 
d="M83.5 610q-37.5 28 -37.5 72q0 43 38 70.5t96 27.5t94.5 -27.5t36.5 -70.5q0 -44 -36.5 -72t-94.5 -28q-59 0 -96.5 28zM301 0h-245v545h245v-545zM450 610q-38 28 -38 71t38 71t97 28q57 0 93.5 -28t36.5 -71t-36.5 -71t-93.5 -28q-59 0 -97 28zM350.5 -202
q-34.5 8 -55.5 20v153q28 -18 61 -18q66 0 66 71v523h245v-554q0 -96 -63 -149.5t-180 -53.5q-39 0 -73.5 8z" />
    <glyph glyph-name="Jcircumflex" unicode="&#x134;" horiz-adv-x="570" 
d="M479 742l-94 84l-91 -84h-143l157 180h159l157 -180h-145zM261 700h250v-453q0 -136 -81 -203t-220 -67q-65 0 -116.5 16.5t-77.5 39.5v188q47 -41 116 -41q60 0 94.5 31.5t34.5 91.5v397z" />
    <glyph glyph-name="jcircumflex" unicode="&#x135;" horiz-adv-x="366" 
d="M-6.5 -202q-34.5 8 -55.5 20v153q28 -18 61 -18q66 0 66 71v523h245v-554q0 -96 -63 -149.5t-180 -53.5q-39 0 -73.5 8zM268 792l147 -180h-145l-84 82l-81 -82h-143l147 180h159z" />
    <glyph glyph-name="uni0136" unicode="&#x136;" horiz-adv-x="859" 
d="M868 700l-304 -313l308 -387h-309l-247 328v-328h-250v700h250v-269l253 269h299zM430 -238h-142l68 180h190z" />
    <glyph glyph-name="uni0137" unicode="&#x137;" horiz-adv-x="771" 
d="M771 585l-228 -246l246 -339h-280l-208 307v-307h-245v720h245v-353l194 218h276zM381 -238h-142l68 180h190z" />
    <glyph glyph-name="Lacute" unicode="&#x139;" horiz-adv-x="723" 
d="M206 922h211l-156 -180h-163zM316 700v-496h393v-204h-643v700h250z" />
    <glyph glyph-name="lacute" unicode="&#x13a;" horiz-adv-x="350" 
d="M300 0h-244v720h244v-720zM244 785h-162l108 180h210z" />
    <glyph glyph-name="uni013B" unicode="&#x13b;" horiz-adv-x="723" 
d="M316 700v-496h393v-204h-643v700h250zM353 -238h-142l68 180h190z" />
    <glyph glyph-name="uni013C" unicode="&#x13c;" horiz-adv-x="356" 
d="M300 0h-244v720h244v-720zM161 -238h-142l68 180h190z" />
    <glyph glyph-name="Lcaron" unicode="&#x13d;" horiz-adv-x="724" 
d="M316 700v-496h393v-204h-643v700h250zM433 700h179l-95 -230h-133z" />
    <glyph glyph-name="lcaron" unicode="&#x13e;" horiz-adv-x="436" 
d="M300 0h-244v720h244v-720zM461 540h-142l68 180h190z" />
    <glyph glyph-name="Ldot" unicode="&#x13f;" horiz-adv-x="736" 
d="M316 700v-496h393v-204h-643v700h250zM480 284.5q-32 15.5 -50.5 42.5t-18.5 59q0 49 40.5 82.5t100.5 33.5t100 -33.5t40 -82.5q0 -50 -40 -83.5t-100 -33.5q-40 0 -72 15.5z" />
    <glyph glyph-name="ldot" unicode="&#x140;" horiz-adv-x="569" 
d="M300 0h-244v720h244v-720zM395 234.5q-32 15.5 -50.5 42.5t-18.5 59q0 49 40.5 82.5t100.5 33.5t100 -33.5t40 -82.5q0 -50 -40 -83.5t-100 -33.5q-40 0 -72 15.5z" />
    <glyph glyph-name="Lslash" unicode="&#x141;" horiz-adv-x="768" 
d="M361 401v-197h393v-204h-643v285l-90 -42v104l90 42v311h250v-195l92 43v-104z" />
    <glyph glyph-name="lslash" unicode="&#x142;" horiz-adv-x="464" 
d="M353 527l82 52v-153l-82 -52v-374h-244v220l-80 -50v153l80 50v347h244v-193z" />
    <glyph glyph-name="Nacute" unicode="&#x143;" horiz-adv-x="919" 
d="M478 922h211l-156 -180h-163zM632 266v434h221v-700h-319l-246 442v-442h-222v700h329z" />
    <glyph glyph-name="nacute" unicode="&#x144;" horiz-adv-x="825" 
d="M715 540q61 -71 61 -209v-331h-245v279q0 66 -28 100t-82 34q-60 0 -90.5 -35t-30.5 -103v-275h-244v585h242v-146q31 88 88.5 130t148.5 42q119 0 180 -71zM514 650h-162l108 180h210z" />
    <glyph glyph-name="uni0145" unicode="&#x145;" horiz-adv-x="919" 
d="M632 266v434h221v-700h-319l-246 442v-442h-222v700h329zM448 -238h-142l68 180h190z" />
    <glyph glyph-name="uni0146" unicode="&#x146;" horiz-adv-x="825" 
d="M715 540q61 -71 61 -209v-331h-245v279q0 66 -28 100t-82 34q-60 0 -90.5 -35t-30.5 -103v-275h-244v585h242v-146q31 88 88.5 130t148.5 42q119 0 180 -71zM402 -238h-142l68 180h190z" />
    <glyph glyph-name="Ncaron" unicode="&#x147;" horiz-adv-x="919" 
d="M701 922l-157 -180h-159l-157 180h143l91 -84l94 84h145zM632 266v434h221v-700h-319l-246 442v-442h-222v700h329z" />
    <glyph glyph-name="ncaron" unicode="&#x148;" horiz-adv-x="825" 
d="M715 540q61 -71 61 -209v-331h-245v279q0 66 -28 100t-82 34q-60 0 -90.5 -35t-30.5 -103v-275h-244v585h242v-146q31 88 88.5 130t148.5 42q119 0 180 -71zM443 748l84 82h145l-147 -180h-159l-147 180h143z" />
    <glyph glyph-name="Eng" unicode="&#x14a;" horiz-adv-x="919" 
d="M853 700v-631q0 -85 -33.5 -145.5t-94 -92t-139.5 -31.5q-58 0 -103.5 14.5t-67.5 35.5v166q16 -14 46.5 -25t65.5 -11q63 0 88 40l-327 443v-463h-222v700h329l237 -343v343h221z" />
    <glyph glyph-name="eng" unicode="&#x14b;" horiz-adv-x="825" 
d="M715 540q61 -71 61 -209v-338q0 -96 -63 -149.5t-180 -53.5q-39 0 -73.5 8t-55.5 20v153q28 -18 61 -18q66 0 66 71v255q0 66 -28 100t-82 34q-60 0 -90.5 -35t-30.5 -103v-275h-244v585h242v-146q31 88 88.5 130t148.5 42q119 0 180 -71z" />
    <glyph glyph-name="Omacron" unicode="&#x14c;" horiz-adv-x="976" 
d="M716 759h-455v122h455v-122zM248 27q-104 50 -160 136.5t-56 190.5q0 106 56 190t159.5 131.5t241.5 47.5q136 0 239.5 -47.5t159.5 -131.5t56 -190q0 -105 -56.5 -191t-160 -136t-239.5 -50t-240 50zM624 228q51 48 51 124q0 75 -51 121.5t-136 46.5q-86 0 -137 -46.5
t-51 -121.5q0 -77 51.5 -124.5t136.5 -47.5t136 48z" />
    <glyph glyph-name="omacron" unicode="&#x14d;" horiz-adv-x="817" 
d="M204.5 22q-86.5 42 -132 115t-45.5 163t45.5 160.5t131.5 110.5t205 40t205 -40t131 -110t45 -161q0 -90 -45 -163t-131.5 -115t-204.5 -42t-204.5 42zM508.5 199.5q36.5 36.5 36.5 96.5t-36.5 95.5t-99.5 35.5q-64 0 -100.5 -35.5t-36.5 -95.5t36.5 -96.5t100.5 -36.5
q63 0 99.5 36.5zM626 659h-435v122h435v-122z" />
    <glyph glyph-name="Obreve" unicode="&#x14e;" horiz-adv-x="976" 
d="M387 755.5q-46 21.5 -74.5 64t-30.5 102.5h126q2 -32 24 -51t56 -19t54.5 19t22.5 51h128q-2 -60 -30.5 -102.5t-74 -64t-100.5 -21.5t-101 21.5zM248 27q-104 50 -160 136.5t-56 190.5q0 106 56 190t159.5 131.5t241.5 47.5q136 0 239.5 -47.5t159.5 -131.5t56 -190
q0 -105 -56.5 -191t-160 -136t-239.5 -50t-240 50zM624 228q51 48 51 124q0 75 -51 121.5t-136 46.5q-86 0 -137 -46.5t-51 -121.5q0 -77 51.5 -124.5t136.5 -47.5t136 48z" />
    <glyph glyph-name="obreve" unicode="&#x14f;" horiz-adv-x="817" 
d="M204.5 22q-86.5 42 -132 115t-45.5 163t45.5 160.5t131.5 110.5t205 40t205 -40t131 -110t45 -161q0 -90 -45 -163t-131.5 -115t-204.5 -42t-204.5 42zM508.5 199.5q36.5 36.5 36.5 96.5t-36.5 95.5t-99.5 35.5q-64 0 -100.5 -35.5t-36.5 -95.5t36.5 -96.5t100.5 -36.5
q63 0 99.5 36.5zM313 663.5q-44 21.5 -71 64t-29 102.5h126q2 -32 21 -51t49 -19q29 0 47 19t20 51h128q-4 -90 -59 -139t-136 -49q-52 0 -96 21.5z" />
    <glyph glyph-name="Ohungarumlaut" unicode="&#x150;" horiz-adv-x="976" 
d="M427 742h-112l118 180h140zM617 742h-112l118 180h140zM248 27q-104 50 -160 136.5t-56 190.5q0 106 56 190t159.5 131.5t241.5 47.5q136 0 239.5 -47.5t159.5 -131.5t56 -190q0 -105 -56.5 -191t-160 -136t-239.5 -50t-240 50zM624 228q51 48 51 124q0 75 -51 121.5
t-136 46.5q-86 0 -137 -46.5t-51 -121.5q0 -77 51.5 -124.5t136.5 -47.5t136 48z" />
    <glyph glyph-name="ohungarumlaut" unicode="&#x151;" horiz-adv-x="817" 
d="M204.5 22q-86.5 42 -132 115t-45.5 163t45.5 160.5t131.5 110.5t205 40t205 -40t131 -110t45 -161q0 -90 -45 -163t-131.5 -115t-204.5 -42t-204.5 42zM508.5 199.5q36.5 36.5 36.5 96.5t-36.5 95.5t-99.5 35.5q-64 0 -100.5 -35.5t-36.5 -95.5t36.5 -96.5t100.5 -36.5
q63 0 99.5 36.5zM367 650h-127l78 180h155zM572 650h-127l78 180h155z" />
    <glyph glyph-name="OE" unicode="&#x152;" horiz-adv-x="1375" 
d="M944 178h382v-178h-612v48q-96 -71 -246 -71q-131 0 -230 50t-152.5 136.5t-53.5 190.5q0 106 53.5 190t152.5 131.5t231 47.5q150 0 245 -67v44h609v-178h-379v-86h359v-164h-359v-94zM624 228q51 48 51 124q0 75 -51 121.5t-136 46.5q-86 0 -137 -46.5t-51 -121.5
q0 -77 51.5 -124.5t136.5 -47.5t136 48z" />
    <glyph glyph-name="oe" unicode="&#x153;" horiz-adv-x="1280" 
d="M1248 249h-447q22 -40 75 -62t134 -22q64 0 116.5 15t101.5 45v-173q-50 -33 -124.5 -52.5t-156.5 -19.5q-174 0 -282 84q-97 -84 -256 -84q-118 0 -204.5 42t-132 115t-45.5 163t45.5 160.5t131.5 110.5t205 40q157 0 253 -77q97 77 253 77q164 0 248.5 -78.5
t84.5 -216.5v-67zM840 414.5q-34 -21.5 -45 -58.5h256q-8 39 -39.5 59.5t-84.5 20.5t-87 -21.5zM508.5 199.5q36.5 36.5 36.5 96.5t-36.5 95.5t-99.5 35.5q-64 0 -100.5 -35.5t-36.5 -95.5t36.5 -96.5t100.5 -36.5q63 0 99.5 36.5z" />
    <glyph glyph-name="Racute" unicode="&#x154;" horiz-adv-x="864" 
d="M459 922h211l-156 -180h-163zM836 0h-294l-226 287v-287h-250v700h493q82 0 143 -29.5t94 -82.5t33 -124q0 -94 -54.5 -154t-145.5 -68zM316 361h141q55 0 84 21.5t29 62.5q0 79 -106 79h-148v-163z" />
    <glyph glyph-name="racute" unicode="&#x155;" horiz-adv-x="580" 
d="M566 574v-216q-38 25 -99 25q-80 0 -123 -48.5t-43 -150.5v-184h-245v585h240v-186q20 102 64.5 150.5t114.5 48.5q53 0 91 -24zM393 650h-162l108 180h210z" />
    <glyph glyph-name="uni0156" unicode="&#x156;" horiz-adv-x="864" 
d="M316 287v-287h-250v700h493q82 0 143 -29.5t94 -82.5t33 -124q0 -94 -54.5 -154t-145.5 -68l207 -242h-294zM316 524v-163h141q55 0 84 21.5t29 62.5q0 79 -106 79h-148zM432 -238h-142l68 180h190z" />
    <glyph glyph-name="uni0157" unicode="&#x157;" horiz-adv-x="580" 
d="M566 574v-216q-38 25 -99 25q-80 0 -123 -48.5t-43 -150.5v-184h-245v585h240v-186q20 102 64.5 150.5t114.5 48.5q53 0 91 -24zM155 -238h-142l68 180h190z" />
    <glyph glyph-name="Rcaron" unicode="&#x158;" horiz-adv-x="864" 
d="M682 922l-157 -180h-159l-157 180h143l91 -84l94 84h145zM836 0h-294l-226 287v-287h-250v700h493q82 0 143 -29.5t94 -82.5t33 -124q0 -94 -54.5 -154t-145.5 -68zM316 361h141q55 0 84 21.5t29 62.5q0 79 -106 79h-148v-163z" />
    <glyph glyph-name="rcaron" unicode="&#x159;" horiz-adv-x="580" 
d="M566 574v-216q-38 25 -99 25q-80 0 -123 -48.5t-43 -150.5v-184h-245v585h240v-186q20 102 64.5 150.5t114.5 48.5q53 0 91 -24zM322 748l84 82h145l-147 -180h-159l-147 180h143z" />
    <glyph glyph-name="Sacute" unicode="&#x15a;" horiz-adv-x="769" 
d="M469 742h-163l108 180h211zM198.5 2.5q-86.5 23.5 -150.5 63.5v181q67 -42 147 -66t162 -24q60 0 88.5 11t28.5 34q0 21 -20 33t-71 21l-100 18q-124 22 -182 76.5t-58 143.5q0 68 39.5 119t120 79.5t198.5 28.5q100 0 173 -20.5t121 -49.5v-174q-44 25 -113 43t-149 18
q-129 0 -129 -42q0 -17 17 -26t65 -16l112 -18q123 -21 181 -72t58 -145q0 -72 -44 -126.5t-123.5 -84t-184.5 -29.5q-100 0 -186.5 23.5z" />
    <glyph glyph-name="sacute" unicode="&#x15b;" horiz-adv-x="683" 
d="M183 1q-81 21 -146 61v166q49 -38 131.5 -62.5t159.5 -24.5q36 0 54.5 9.5t18.5 22.5q0 15 -10 25t-39 17l-120 27q-103 24 -146.5 66.5t-43.5 111.5q0 58 38 101t108 66.5t164 23.5q84 0 154 -18t116 -46v-157q-47 28 -108.5 44.5t-126.5 16.5q-94 0 -94 -32
q0 -15 14.5 -22.5t53.5 -15.5l100 -18q98 -17 146 -59.5t48 -125.5q0 -91 -79.5 -144.5t-225.5 -53.5q-86 0 -167 21zM419 650h-162l108 180h210z" />
    <glyph glyph-name="Scircumflex" unicode="&#x15c;" horiz-adv-x="769" 
d="M492 742l-94 84l-91 -84h-143l157 180h159l157 -180h-145zM498 436q123 -21 181 -72t58 -145q0 -72 -44 -126.5t-123.5 -84t-184.5 -29.5q-100 0 -186.5 23.5t-150.5 63.5v181q67 -42 147 -66t162 -24q60 0 88.5 11t28.5 34q0 21 -20 33t-71 21l-100 18
q-124 22 -182 76.5t-58 143.5q0 68 39.5 119t120 79.5t198.5 28.5q100 0 173 -20.5t121 -49.5v-174q-44 25 -113 43t-149 18q-129 0 -129 -42q0 -17 17 -26t65 -16z" />
    <glyph glyph-name="scircumflex" unicode="&#x15d;" horiz-adv-x="683" 
d="M183 1q-81 21 -146 61v166q49 -38 131.5 -62.5t159.5 -24.5q36 0 54.5 9.5t18.5 22.5q0 15 -10 25t-39 17l-120 27q-103 24 -146.5 66.5t-43.5 111.5q0 58 38 101t108 66.5t164 23.5q84 0 154 -18t116 -46v-157q-47 28 -108.5 44.5t-126.5 16.5q-94 0 -94 -32
q0 -15 14.5 -22.5t53.5 -15.5l100 -18q98 -17 146 -59.5t48 -125.5q0 -91 -79.5 -144.5t-225.5 -53.5q-86 0 -167 21zM430 830l147 -180h-145l-84 82l-81 -82h-143l147 180h159z" />
    <glyph glyph-name="Scedilla" unicode="&#x15e;" horiz-adv-x="769" 
d="M697.5 98.5q-39.5 -52.5 -111 -83t-166.5 -35.5v-7h24q55 0 86.5 -28.5t31.5 -74.5q0 -49 -38 -80.5t-103 -31.5q-60 0 -121 23v91q50 -26 100 -26q22 0 34.5 8.5t12.5 22.5t-12.5 21.5t-34.5 7.5h-47v74q-90 4 -168 27t-137 59v181q67 -42 147 -66t162 -24q60 0 88.5 11
t28.5 34q0 21 -20 33t-71 21l-100 18q-124 22 -182 76.5t-58 143.5q0 68 39.5 119t120 79.5t198.5 28.5q100 0 173 -20.5t121 -49.5v-174q-44 25 -113 43t-149 18q-129 0 -129 -42q0 -17 17 -26t65 -16l112 -18q123 -21 181 -72t58 -145q0 -68 -39.5 -120.5z" />
    <glyph glyph-name="scedilla" unicode="&#x15f;" horiz-adv-x="683" 
d="M581 37.5q-74 -53.5 -211 -57.5v-7h24q55 0 86.5 -28.5t31.5 -74.5q0 -49 -38 -80.5t-103 -31.5q-60 0 -121 23v91q50 -26 100 -26q22 0 34.5 8.5t12.5 22.5t-12.5 21.5t-34.5 7.5h-47v76q-73 4 -141.5 24.5t-124.5 55.5v166q49 -38 131.5 -62.5t159.5 -24.5
q36 0 54.5 9.5t18.5 22.5q0 15 -10 25t-39 17l-120 27q-103 24 -146.5 66.5t-43.5 111.5q0 58 38 101t108 66.5t164 23.5q84 0 154 -18t116 -46v-157q-47 28 -108.5 44.5t-126.5 16.5q-94 0 -94 -32q0 -15 14.5 -22.5t53.5 -15.5l100 -18q98 -17 146 -59.5t48 -125.5
q0 -87 -74 -140.5z" />
    <glyph glyph-name="Scaron" unicode="&#x160;" horiz-adv-x="769" 
d="M637 922l-157 -180h-159l-157 180h143l91 -84l94 84h145zM498 436q123 -21 181 -72t58 -145q0 -72 -44 -126.5t-123.5 -84t-184.5 -29.5q-100 0 -186.5 23.5t-150.5 63.5v181q67 -42 147 -66t162 -24q60 0 88.5 11t28.5 34q0 21 -20 33t-71 21l-100 18q-124 22 -182 76.5
t-58 143.5q0 68 39.5 119t120 79.5t198.5 28.5q100 0 173 -20.5t121 -49.5v-174q-44 25 -113 43t-149 18q-129 0 -129 -42q0 -17 17 -26t65 -16z" />
    <glyph glyph-name="scaron" unicode="&#x161;" horiz-adv-x="683" 
d="M183 1q-81 21 -146 61v166q49 -38 131.5 -62.5t159.5 -24.5q36 0 54.5 9.5t18.5 22.5q0 15 -10 25t-39 17l-120 27q-103 24 -146.5 66.5t-43.5 111.5q0 58 38 101t108 66.5t164 23.5q84 0 154 -18t116 -46v-157q-47 28 -108.5 44.5t-126.5 16.5q-94 0 -94 -32
q0 -15 14.5 -22.5t53.5 -15.5l100 -18q98 -17 146 -59.5t48 -125.5q0 -91 -79.5 -144.5t-225.5 -53.5q-86 0 -167 21zM348 748l84 82h145l-147 -180h-159l-147 180h143z" />
    <glyph glyph-name="uni0162" unicode="&#x162;" horiz-adv-x="759" 
d="M507 0h-100v-27h24q55 0 86.5 -28.5t31.5 -74.5q0 -49 -38 -80.5t-103 -31.5q-60 0 -121 23v91q50 -26 100 -26q22 0 34.5 8.5t12.5 22.5t-12.5 21.5t-34.5 7.5h-47v94h-83v503h-243v197h731v-197h-238v-503z" />
    <glyph glyph-name="uni0163" unicode="&#x163;" horiz-adv-x="609" 
d="M420 0h-99v-27h24q55 0 86.5 -28.5t31.5 -74.5q0 -49 -38 -80.5t-103 -31.5q-60 0 -121 23v91q50 -26 100 -26q22 0 34.5 8.5t12.5 22.5t-12.5 21.5t-34.5 7.5h-47v94h-79v410h-163v175h163v102l245 36v-138h177v-175h-177v-410z" />
    <glyph glyph-name="Tcaron" unicode="&#x164;" horiz-adv-x="759" 
d="M618 922l-157 -180h-159l-157 180h143l91 -84l94 84h145zM745 700v-197h-238v-503h-250v503h-243v197h731z" />
    <glyph glyph-name="tcaron" unicode="&#x165;" horiz-adv-x="609" 
d="M420 585h177v-175h-177v-410h-245v410h-163v175h163v102l245 36v-138zM662 640h-162l108 180h210z" />
    <glyph glyph-name="Tbar" unicode="&#x166;" horiz-adv-x="759" 
d="M745 700v-197h-238v-120h134v-66h-134v-317h-250v317h-138v66h138v120h-243v197h731z" />
    <glyph glyph-name="tbar" unicode="&#x167;" horiz-adv-x="609" 
d="M597 585v-175h-177v-84h95v-66h-95v-260h-245v260h-95v66h95v84h-163v175h163v102l245 36v-138h177z" />
    <glyph glyph-name="Utilde" unicode="&#x168;" horiz-adv-x="877" 
d="M221 755q-2 79 32.5 123.5t99.5 44.5q32 0 57.5 -9t55.5 -26q21 -11 34 -16.5t26 -5.5q26 0 38 12t10 34h102q2 -78 -32.5 -122.5t-98.5 -44.5q-33 0 -58 9t-57 26q-24 12 -35 16.5t-24 4.5q-26 0 -38 -11.5t-12 -34.5h-100zM235.5 16.5q-86.5 39.5 -133 113.5t-46.5 175
v395h249v-390q0 -61 35 -93.5t99 -32.5q63 0 98 33t35 93v390h249v-395q0 -101 -46.5 -175t-132.5 -113.5t-203 -39.5t-203.5 39.5z" />
    <glyph glyph-name="utilde" unicode="&#x169;" horiz-adv-x="822" 
d="M521 585h245v-585h-245v121q-29 -70 -88.5 -106t-142.5 -36q-117 0 -178.5 65.5t-61.5 187.5v353h245v-293q0 -67 26.5 -98.5t82.5 -31.5q58 0 87.5 34t29.5 101v288zM442 658.5q-22 8.5 -46 23.5q-19 10 -28.5 14.5t-20.5 4.5q-17 0 -25 -8.5t-8 -27.5h-107
q-2 72 30 112.5t92 40.5q27 0 48 -8.5t45 -23.5q16 -10 27.5 -15t22.5 -5q34 0 31 36h109q2 -71 -30 -111.5t-91 -40.5q-27 0 -49 8.5z" />
    <glyph glyph-name="Umacron" unicode="&#x16a;" horiz-adv-x="877" 
d="M667 759h-455v122h455v-122zM235.5 16.5q-86.5 39.5 -133 113.5t-46.5 175v395h249v-390q0 -61 35 -93.5t99 -32.5q63 0 98 33t35 93v390h249v-395q0 -101 -46.5 -175t-132.5 -113.5t-203 -39.5t-203.5 39.5z" />
    <glyph glyph-name="umacron" unicode="&#x16b;" horiz-adv-x="822" 
d="M521 585h245v-585h-245v121q-29 -70 -88.5 -106t-142.5 -36q-117 0 -178.5 65.5t-61.5 187.5v353h245v-293q0 -67 26.5 -98.5t82.5 -31.5q58 0 87.5 34t29.5 101v288zM627 659h-435v122h435v-122z" />
    <glyph glyph-name="Ubreve" unicode="&#x16c;" horiz-adv-x="877" 
d="M338 755.5q-46 21.5 -74.5 64t-30.5 102.5h126q2 -32 24 -51t56 -19t54.5 19t22.5 51h128q-2 -60 -30.5 -102.5t-74 -64t-100.5 -21.5t-101 21.5zM235.5 16.5q-86.5 39.5 -133 113.5t-46.5 175v395h249v-390q0 -61 35 -93.5t99 -32.5q63 0 98 33t35 93v390h249v-395
q0 -101 -46.5 -175t-132.5 -113.5t-203 -39.5t-203.5 39.5z" />
    <glyph glyph-name="ubreve" unicode="&#x16d;" horiz-adv-x="822" 
d="M521 585h245v-585h-245v121q-29 -70 -88.5 -106t-142.5 -36q-117 0 -178.5 65.5t-61.5 187.5v353h245v-293q0 -67 26.5 -98.5t82.5 -31.5q58 0 87.5 34t29.5 101v288zM314 663.5q-44 21.5 -71 64t-29 102.5h126q2 -32 21 -51t49 -19q29 0 47 19t20 51h128
q-4 -90 -59 -139t-136 -49q-52 0 -96 21.5z" />
    <glyph glyph-name="Uring" unicode="&#x16e;" horiz-adv-x="877" 
d="M327.5 757.5q-43.5 36.5 -43.5 93.5q0 56 43.5 92t111.5 36t111 -36t43 -92q0 -57 -43 -93.5t-111 -36.5t-111.5 36.5zM478 815q15 14 15 36q0 21 -15 34.5t-39 13.5t-39.5 -13.5t-15.5 -34.5q0 -22 15.5 -36t39.5 -14t39 14zM235.5 16.5q-86.5 39.5 -133 113.5
t-46.5 175v395h249v-390q0 -61 35 -93.5t99 -32.5q63 0 98 33t35 93v390h249v-395q0 -101 -46.5 -175t-132.5 -113.5t-203 -39.5t-203.5 39.5z" />
    <glyph glyph-name="uring" unicode="&#x16f;" horiz-adv-x="822" 
d="M521 585h245v-585h-245v121q-29 -70 -88.5 -106t-142.5 -36q-117 0 -178.5 65.5t-61.5 187.5v353h245v-293q0 -67 26.5 -98.5t82.5 -31.5q58 0 87.5 34t29.5 101v288zM307 672q-39 36 -39 93q0 53 40 87.5t102 34.5q63 0 102 -35.5t39 -90.5t-39.5 -90t-101.5 -35
q-64 0 -103 36zM445.5 727.5q13.5 13.5 13.5 35.5q0 20 -13.5 33t-35.5 13t-36 -13t-14 -33q0 -22 14 -35.5t36 -13.5t35.5 13.5z" />
    <glyph glyph-name="Uhungarumlaut" unicode="&#x170;" horiz-adv-x="877" 
d="M378 742h-112l118 180h140zM568 742h-112l118 180h140zM235.5 16.5q-86.5 39.5 -133 113.5t-46.5 175v395h249v-390q0 -61 35 -93.5t99 -32.5q63 0 98 33t35 93v390h249v-395q0 -101 -46.5 -175t-132.5 -113.5t-203 -39.5t-203.5 39.5z" />
    <glyph glyph-name="uhungarumlaut" unicode="&#x171;" horiz-adv-x="822" 
d="M521 585h245v-585h-245v121q-29 -70 -88.5 -106t-142.5 -36q-117 0 -178.5 65.5t-61.5 187.5v353h245v-293q0 -67 26.5 -98.5t82.5 -31.5q58 0 87.5 34t29.5 101v288zM368 650h-127l78 180h155zM573 650h-127l78 180h155z" />
    <glyph glyph-name="Uogonek" unicode="&#x172;" horiz-adv-x="877" 
d="M572 700h249v-395q0 -134 -81.5 -219.5t-224.5 -103.5q-30 -24 -30 -59q0 -34 19.5 -52.5t56.5 -18.5q16 0 33.5 5t29.5 13v-89q-49 -23 -98 -23q-73 0 -114.5 35.5t-41.5 96.5q0 51 34 88q-107 6 -185.5 47t-120.5 112.5t-42 167.5v395h249v-390q0 -61 35 -93.5
t99 -32.5q63 0 98 33t35 93v390z" />
    <glyph glyph-name="uogonek" unicode="&#x173;" horiz-adv-x="822" 
d="M747 -133q20 5 35 13v-89q-54 -23 -108 -23q-73 0 -114.5 33t-41.5 89q0 34 14.5 62.5t42.5 47.5h-54v121q-29 -70 -88.5 -106t-142.5 -36q-117 0 -178.5 65.5t-61.5 187.5v353h245v-293q0 -67 26.5 -98.5t82.5 -31.5q58 0 87.5 34t29.5 101v288h245v-585h-26
q-53 0 -80 -23.5t-27 -59.5q0 -26 20 -40.5t56 -14.5q18 0 38 5z" />
    <glyph glyph-name="Wcircumflex" unicode="&#x174;" horiz-adv-x="1220" 
d="M697 742l-94 84l-91 -84h-143l157 180h159l157 -180h-145zM863 269l98 431h250l-176 -700h-320l-124 431l-117 -431h-289l-177 700h252l94 -409l110 409h279z" />
    <glyph glyph-name="wcircumflex" unicode="&#x175;" horiz-adv-x="1137" 
d="M803 232l87 353h244l-185 -585h-270l-117 352l-112 -352h-259l-191 585h255l83 -351l108 351h248zM646 830l147 -180h-145l-84 82l-81 -82h-143l147 180h159z" />
    <glyph glyph-name="Ycircumflex" unicode="&#x176;" horiz-adv-x="871" 
d="M529 742l-94 84l-91 -84h-143l157 180h159l157 -180h-145zM434 443l159 257h281l-304 -467v-233h-270v233l-302 467h280z" />
    <glyph glyph-name="ycircumflex" unicode="&#x177;" horiz-adv-x="782" 
d="M390 270l141 315h259l-392 -775h-276l131 243l-256 532h261zM473 830l147 -180h-145l-84 82l-81 -82h-143l147 180h159z" />
    <glyph glyph-name="Ydieresis" unicode="&#x178;" horiz-adv-x="871" 
d="M227 758.5q-31 29.5 -31 69.5t30.5 67.5t74.5 27.5t73.5 -27.5t29.5 -67.5t-30 -69.5t-73 -29.5t-74 29.5zM502.5 758.5q-30.5 29.5 -30.5 69.5t30.5 67.5t73.5 27.5q44 0 74 -27.5t30 -67.5t-30 -69.5t-74 -29.5q-43 0 -73.5 29.5zM434 443l159 257h281l-304 -467v-233
h-270v233l-302 467h280z" />
    <glyph glyph-name="Zacute" unicode="&#x179;" horiz-adv-x="777" 
d="M406 922h211l-156 -180h-163zM724 534l-365 -349h380v-185h-696v171l350 344h-345v185h676v-166z" />
    <glyph glyph-name="zacute" unicode="&#x17a;" horiz-adv-x="718" 
d="M672 424l-326 -255h345v-169h-659v158l326 258h-319v169h633v-161zM429 650h-162l108 180h210z" />
    <glyph glyph-name="Zdotaccent" unicode="&#x17b;" horiz-adv-x="777" 
d="M295.5 757q-37.5 28 -37.5 72q0 43 38 70.5t96 27.5t94.5 -27.5t36.5 -70.5q0 -44 -36.5 -72t-94.5 -28q-59 0 -96.5 28zM724 534l-365 -349h380v-185h-696v171l350 344h-345v185h676v-166z" />
    <glyph glyph-name="zdotaccent" unicode="&#x17c;" horiz-adv-x="718" 
d="M672 424l-326 -255h345v-169h-659v158l326 258h-319v169h633v-161zM265.5 673q-37.5 28 -37.5 72q0 43 38 70.5t96 27.5t94.5 -27.5t36.5 -70.5q0 -44 -36.5 -72t-94.5 -28q-59 0 -96.5 28z" />
    <glyph glyph-name="Zcaron" unicode="&#x17d;" horiz-adv-x="777" 
d="M629 922l-157 -180h-159l-157 180h143l91 -84l94 84h145zM724 534l-365 -349h380v-185h-696v171l350 344h-345v185h676v-166z" />
    <glyph glyph-name="zcaron" unicode="&#x17e;" horiz-adv-x="718" 
d="M672 424l-326 -255h345v-169h-659v158l326 258h-319v169h633v-161zM358 748l84 82h145l-147 -180h-159l-147 180h143z" />
    <glyph glyph-name="florin" unicode="&#x192;" horiz-adv-x="714" 
d="M527 491.5q-27 -20.5 -34 -66.5h164v-140h-182l-8 -64q-16 -122 -83 -181t-195 -59q-52 0 -94.5 10t-67.5 27v152q39 -21 95 -21q47 0 72 20.5t31 65.5l7 50h-145v140h163q17 130 85 192.5t196 62.5q52 0 94.5 -10t67.5 -27v-152q-34 21 -85 21q-54 0 -81 -20.5z" />
    <glyph glyph-name="AEacute" unicode="&#x1fc;" horiz-adv-x="1253" 
d="M754 922h211l-156 -180h-163zM802 272v-94h402v-178h-652v134h-225l-75 -135h-267l412 701h804v-178h-399v-86h379v-164h-379zM552 542l-148 -268h148v268z" />
    <glyph glyph-name="aeacute" unicode="&#x1fd;" horiz-adv-x="1170" 
d="M1138 249h-447q22 -40 75 -62t134 -22q64 0 116.5 15t101.5 45v-173q-50 -33 -124.5 -52.5t-156.5 -19.5q-97 0 -172.5 29t-124.5 82q-79 -111 -247 -111q-82 0 -141.5 24.5t-91 68t-31.5 97.5q0 56 27.5 99.5t79 67.5t121.5 24q62 0 107.5 -18.5t79.5 -59.5
q-5 68 -57 103.5t-135 35.5q-54 0 -104 -18.5t-91 -53.5v183q114 78 275 78q150 0 233 -78q44 37 105 57.5t135 20.5q164 0 248.5 -78.5t84.5 -216.5v-67zM730 414.5q-34 -21.5 -45 -58.5h256q-8 39 -39.5 59.5t-84.5 20.5t-87 -21.5zM416.5 136.5q28.5 18.5 28.5 48.5
q0 29 -28 47t-74 18q-42 0 -66.5 -18t-24.5 -48t24.5 -48t65.5 -18q46 0 74.5 18.5zM652 650h-162l108 180h210z" />
    <glyph glyph-name="Oslashacute" unicode="&#x1fe;" horiz-adv-x="976" 
d="M503 922h211l-156 -180h-163zM815 623q63 -50 96 -119t33 -150q0 -105 -56.5 -191t-160 -136t-239.5 -50q-102 0 -190 30l-69 -83l-103 85l51 61q-70 52 -107.5 125.5t-37.5 158.5q0 106 56 190t159.5 131.5t241.5 47.5q114 0 207 -34l70 84l103 -85zM330 252l218 261
q-25 7 -60 7q-86 0 -137 -46.5t-51 -121.5q0 -58 30 -100zM624 228q51 48 51 124q0 45 -19 81l-210 -250q19 -3 42 -3q85 0 136 48z" />
    <glyph glyph-name="oslashacute" unicode="&#x1ff;" horiz-adv-x="817" 
d="M685 528q51 -42 78 -100t27 -128q0 -90 -45 -163t-131.5 -115t-204.5 -42q-89 0 -162 25l-76 -90l-96 77l61 73q-53 43 -81 104t-28 131q0 90 45.5 160.5t131.5 110.5t205 40q88 0 165 -24l71 84l97 -75zM282 239l156 186q-18 2 -29 2q-64 0 -100.5 -35.5t-36.5 -95.5
q0 -29 10 -57zM508.5 199.5q36.5 36.5 36.5 96.5q0 30 -9 54l-155 -185q18 -2 28 -2q63 0 99.5 36.5zM477 650h-162l108 180h210z" />
    <glyph glyph-name="uni0218" unicode="&#x218;" horiz-adv-x="769" 
d="M198.5 2.5q-86.5 23.5 -150.5 63.5v181q67 -42 147 -66t162 -24q60 0 88.5 11t28.5 34q0 21 -20 33t-71 21l-100 18q-124 22 -182 76.5t-58 143.5q0 68 39.5 119t120 79.5t198.5 28.5q100 0 173 -20.5t121 -49.5v-174q-44 25 -113 43t-149 18q-129 0 -129 -42
q0 -17 17 -26t65 -16l112 -18q123 -21 181 -72t58 -145q0 -72 -44 -126.5t-123.5 -84t-184.5 -29.5q-100 0 -186.5 23.5zM389 -238h-142l68 180h190z" />
    <glyph glyph-name="uni0219" unicode="&#x219;" horiz-adv-x="683" 
d="M183 1q-81 21 -146 61v166q49 -38 131.5 -62.5t159.5 -24.5q36 0 54.5 9.5t18.5 22.5q0 15 -10 25t-39 17l-120 27q-103 24 -146.5 66.5t-43.5 111.5q0 58 38 101t108 66.5t164 23.5q84 0 154 -18t116 -46v-157q-47 28 -108.5 44.5t-126.5 16.5q-94 0 -94 -32
q0 -15 14.5 -22.5t53.5 -15.5l100 -18q98 -17 146 -59.5t48 -125.5q0 -91 -79.5 -144.5t-225.5 -53.5q-86 0 -167 21zM329 -238h-142l68 180h190z" />
    <glyph glyph-name="uni021A" unicode="&#x21a;" horiz-adv-x="759" 
d="M745 700v-197h-238v-503h-250v503h-243v197h731zM366 -238h-142l68 180h190z" />
    <glyph glyph-name="uni021B" unicode="&#x21b;" horiz-adv-x="609" 
d="M420 585h177v-175h-177v-410h-245v410h-163v175h163v102l245 36v-138zM280 -238h-142l68 180h190z" />
    <glyph glyph-name="uni0226" unicode="&#x226;" horiz-adv-x="853" 
d="M330.5 757q-37.5 28 -37.5 72q0 43 38 70.5t96 27.5t94.5 -27.5t36.5 -70.5q0 -44 -36.5 -72t-94.5 -28q-59 0 -96.5 28zM851 0h-254l-43 134h-263l-43 -134h-247l247 700h358zM423 541l-86 -267h172z" />
    <glyph glyph-name="uni0227" unicode="&#x227;" horiz-adv-x="728" 
d="M592 529.5q90 -81.5 90 -235.5v-294h-237v73q-64 -93 -202 -93q-66 0 -114.5 24.5t-74 68t-25.5 97.5q0 56 27.5 99.5t79 67.5t121.5 24q62 0 107.5 -18.5t79.5 -59.5q-5 68 -57 103.5t-135 35.5q-54 0 -104 -18.5t-91 -53.5v183q114 78 275 78q170 0 260 -81.5z
M416.5 136.5q28.5 18.5 28.5 48.5q0 29 -28 47t-74 18q-42 0 -66.5 -18t-24.5 -48t24.5 -48t65.5 -18q46 0 74.5 18.5zM265.5 673q-37.5 28 -37.5 72q0 43 38 70.5t96 27.5t94.5 -27.5t36.5 -70.5q0 -44 -36.5 -72t-94.5 -28q-59 0 -96.5 28z" />
    <glyph glyph-name="uni0232" unicode="&#x232;" horiz-adv-x="871" 
d="M209 881h455v-122h-455v122zM434 443l159 257h281l-304 -467v-233h-270v233l-302 467h280z" />
    <glyph glyph-name="uni0233" unicode="&#x233;" horiz-adv-x="782" 
d="M390 270l141 315h259l-392 -775h-276l131 243l-256 532h261zM611 659h-435v122h435v-122z" />
    <glyph glyph-name="uni0237" unicode="&#x237;" horiz-adv-x="366" 
d="M-6.5 -202q-34.5 8 -55.5 20v153q28 -18 61 -18q66 0 66 71v523h245v-554q0 -96 -63 -149.5t-180 -53.5q-39 0 -73.5 8z" />
    <glyph glyph-name="circumflex" unicode="&#x2c6;" horiz-adv-x="513" 
d="M336 830l147 -180h-145l-84 82l-81 -82h-143l147 180h159z" />
    <glyph glyph-name="caron" unicode="&#x2c7;" horiz-adv-x="513" 
d="M254 748l84 82h145l-147 -180h-159l-147 180h143z" />
    <glyph glyph-name="breve" unicode="&#x2d8;" horiz-adv-x="491" 
d="M150 663.5q-44 21.5 -71 64t-29 102.5h126q2 -32 21 -51t49 -19q29 0 47 19t20 51h128q-4 -90 -59 -139t-136 -49q-52 0 -96 21.5z" />
    <glyph glyph-name="dotaccent" unicode="&#x2d9;" horiz-adv-x="311" 
d="M60.5 673q-37.5 28 -37.5 72q0 43 38 70.5t96 27.5t94.5 -27.5t36.5 -70.5q0 -44 -36.5 -72t-94.5 -28q-59 0 -96.5 28z" />
    <glyph glyph-name="ring" unicode="&#x2da;" horiz-adv-x="383" 
d="M89 672q-39 36 -39 93q0 53 40 87.5t102 34.5q63 0 102 -35.5t39 -90.5t-39.5 -90t-101.5 -35q-64 0 -103 36zM227.5 727.5q13.5 13.5 13.5 35.5q0 20 -13.5 33t-35.5 13t-36 -13t-14 -33q0 -22 14 -35.5t36 -13.5t35.5 13.5z" />
    <glyph glyph-name="ogonek" unicode="&#x2db;" horiz-adv-x="344" 
d="M91.5 -199q-41.5 33 -41.5 89q0 64 49.5 104.5t142.5 40.5l30 -35q-53 0 -80 -23.5t-27 -59.5q0 -26 20 -40.5t56 -14.5q18 0 38 5t35 13v-89q-54 -23 -108 -23q-73 0 -114.5 33z" />
    <glyph glyph-name="tilde" unicode="&#x2dc;" horiz-adv-x="485" 
d="M275 658.5q-22 8.5 -46 23.5q-19 10 -28.5 14.5t-20.5 4.5q-17 0 -25 -8.5t-8 -27.5h-107q-2 72 30 112.5t92 40.5q27 0 48 -8.5t45 -23.5q16 -10 27.5 -15t22.5 -5q34 0 31 36h109q2 -71 -30 -111.5t-91 -40.5q-27 0 -49 8.5z" />
    <glyph glyph-name="hungarumlaut" unicode="&#x2dd;" horiz-adv-x="498" 
d="M167 650h-127l78 180h155zM372 650h-127l78 180h155z" />
    <glyph glyph-name="uni0394" unicode="&#x394;" horiz-adv-x="764" 
d="M265 665h235l235 -509v-156h-706v156zM507 170l-125 284l-124 -284h249z" />
    <glyph glyph-name="uni03A9" unicode="&#x3a9;" horiz-adv-x="835" 
d="M759.5 257.5q-32.5 -54.5 -92.5 -84.5h109v-173h-333v225q51 13 80.5 49t29.5 87q0 57 -37 93.5t-99 36.5t-98.5 -36.5t-36.5 -93.5q0 -51 29 -87t81 -49v-225h-333v173h110q-61 30 -93.5 84.5t-32.5 116.5q0 89 47.5 159t133 108.5t193.5 38.5q109 0 194 -38.5
t133 -108.5t48 -159q0 -62 -32.5 -116.5z" />
    <glyph glyph-name="uni03BC" unicode="&#x3bc;" horiz-adv-x="828" 
d="M527 585h245v-585h-245v120q-30 -70 -88 -106t-136 -34h-3v-170h-244v775h245v-293q0 -67 26.5 -98.5t82.5 -31.5q58 0 87.5 34t29.5 101v288z" />
    <glyph glyph-name="pi" unicode="&#x3c0;" horiz-adv-x="930" 
d="M893 389h-120v-151q0 -27 16.5 -42.5t41.5 -15.5q28 0 51 16v-174q-22 -14 -57 -23t-78 -9q-100 0 -159.5 58t-59.5 159v182h-145v-388h-245v388h-121v196h876v-196z" />
    <glyph glyph-name="Wgrave" unicode="&#x1e80;" horiz-adv-x="1220" 
d="M628 922l108 -180h-163l-156 180h211zM863 269l98 431h250l-176 -700h-320l-124 431l-117 -431h-289l-177 700h252l94 -409l110 409h279z" />
    <glyph glyph-name="wgrave" unicode="&#x1e81;" horiz-adv-x="1137" 
d="M803 232l87 353h244l-185 -585h-270l-117 352l-112 -352h-259l-191 585h255l83 -351l108 351h248zM558 830l108 -180h-162l-156 180h210z" />
    <glyph glyph-name="Wacute" unicode="&#x1e82;" horiz-adv-x="1220" 
d="M619 922h211l-156 -180h-163zM863 269l98 431h250l-176 -700h-320l-124 431l-117 -431h-289l-177 700h252l94 -409l110 409h279z" />
    <glyph glyph-name="wacute" unicode="&#x1e83;" horiz-adv-x="1137" 
d="M803 232l87 353h244l-185 -585h-270l-117 352l-112 -352h-259l-191 585h255l83 -351l108 351h248zM635 650h-162l108 180h210z" />
    <glyph glyph-name="Wdieresis" unicode="&#x1e84;" horiz-adv-x="1220" 
d="M395 758.5q-31 29.5 -31 69.5t30.5 67.5t74.5 27.5t73.5 -27.5t29.5 -67.5t-30 -69.5t-73 -29.5t-74 29.5zM670.5 758.5q-30.5 29.5 -30.5 69.5t30.5 67.5t73.5 27.5q44 0 74 -27.5t30 -67.5t-30 -69.5t-74 -29.5q-43 0 -73.5 29.5zM863 269l98 431h250l-176 -700h-320
l-124 431l-117 -431h-289l-177 700h252l94 -409l110 409h279z" />
    <glyph glyph-name="wdieresis" unicode="&#x1e85;" horiz-adv-x="1137" 
d="M803 232l87 353h244l-185 -585h-270l-117 352l-112 -352h-259l-191 585h255l83 -351l108 351h248zM360.5 675q-31.5 28 -31.5 66t31.5 64t76.5 26q46 0 76.5 -26t30.5 -64q0 -39 -31 -66.5t-76 -27.5t-76.5 28zM621.5 675q-31.5 28 -31.5 66t31.5 64t76.5 26
q46 0 76.5 -26t30.5 -64q0 -39 -31 -66.5t-76 -27.5t-76.5 28z" />
    <glyph glyph-name="uni1E9E" unicode="&#x1e9e;" horiz-adv-x="885" 
d="M674 394q83 -17 132 -64.5t49 -120.5q0 -67 -38.5 -118t-107.5 -78.5t-159 -27.5q-55 0 -110.5 9.5t-84.5 23.5v176q48 -16 111 -16q51 0 81 13.5t30 37.5q0 20 -22 31.5t-67 11.5h-133v150l229 108q-35 9 -78 9q-97 0 -149 -43.5t-52 -124.5v-371h-250v368
q0 107 50 186.5t148.5 122.5t241.5 43q167 0 299 -66v-201z" />
    <glyph glyph-name="Ygrave" unicode="&#x1ef2;" horiz-adv-x="871" 
d="M460 922l108 -180h-163l-156 180h211zM434 443l159 257h281l-304 -467v-233h-270v233l-302 467h280z" />
    <glyph glyph-name="ygrave" unicode="&#x1ef3;" horiz-adv-x="782" 
d="M390 270l141 315h259l-392 -775h-276l131 243l-256 532h261zM385 830l108 -180h-162l-156 180h210z" />
    <glyph glyph-name="uni2002" unicode="&#x2002;" horiz-adv-x="300" 
 />
    <glyph glyph-name="uni2003" unicode="&#x2003;" horiz-adv-x="600" 
 />
    <glyph glyph-name="uni2009" unicode="&#x2009;" horiz-adv-x="100" 
 />
    <glyph glyph-name="uni200A" unicode="&#x200a;" horiz-adv-x="75" 
 />
    <glyph glyph-name="endash" unicode="&#x2013;" horiz-adv-x="876" 
d="M820 227h-764v189h764v-189z" />
    <glyph glyph-name="emdash" unicode="&#x2014;" horiz-adv-x="1116" 
d="M1060 227h-1004v189h1004v-189z" />
    <glyph glyph-name="quoteleft" unicode="&#x2018;" horiz-adv-x="335" 
d="M156 740h156l-69 -345h-227z" />
    <glyph glyph-name="quoteright" unicode="&#x2019;" horiz-adv-x="329" 
d="M186 395h-156l69 345h227z" />
    <glyph glyph-name="quotesinglbase" unicode="&#x201a;" horiz-adv-x="329" 
d="M186 -150h-156l69 345h227z" />
    <glyph glyph-name="quotedblleft" unicode="&#x201c;" horiz-adv-x="608" 
d="M156 740h156l-69 -345h-227zM429 740h156l-69 -345h-227z" />
    <glyph glyph-name="quotedblright" unicode="&#x201d;" horiz-adv-x="602" 
d="M186 395h-156l69 345h227zM459 395h-156l69 345h227z" />
    <glyph glyph-name="quotedblbase" unicode="&#x201e;" horiz-adv-x="602" 
d="M186 -150h-156l69 345h227zM459 -150h-156l69 345h227z" />
    <glyph glyph-name="dagger" unicode="&#x2020;" horiz-adv-x="595" 
d="M407 618h159v-161h-159v-337h-219v337h-159v161h159v125h219v-125z" />
    <glyph glyph-name="daggerdbl" unicode="&#x2021;" horiz-adv-x="637" 
d="M587 623v-161h-159v-61h159v-161h-159v-120h-219v120h-159v161h159v61h-159v161h159v120h219v-120h159z" />
    <glyph glyph-name="bullet" unicode="&#x2022;" horiz-adv-x="730" 
d="M212 113.5q-70 36.5 -111 99.5t-41 137q0 75 41 137.5t111 99t153 36.5q82 0 152 -36.5t111.5 -99.5t41.5 -138q0 -74 -41.5 -136.5t-111.5 -99t-152 -36.5q-83 0 -153 36.5z" />
    <glyph glyph-name="ellipsis" unicode="&#x2026;" horiz-adv-x="1089" 
d="M128 -4.5q-32 15.5 -50.5 42.5t-18.5 59q0 49 40.5 82.5t100.5 33.5t100 -33.5t40 -82.5q0 -50 -40 -83.5t-100 -33.5q-40 0 -72 15.5zM473 -4.5q-32 15.5 -50.5 42.5t-18.5 59q0 49 40.5 82.5t100.5 33.5t100 -33.5t40 -82.5q0 -50 -40 -83.5t-100 -33.5q-40 0 -72 15.5
zM818 -4.5q-32 15.5 -50.5 42.5t-18.5 59q0 49 40.5 82.5t100.5 33.5t100 -33.5t40 -82.5q0 -50 -40 -83.5t-100 -33.5q-40 0 -72 15.5z" />
    <glyph glyph-name="perthousand" unicode="&#x2030;" horiz-adv-x="1869" 
d="M153 244.5q-59 30.5 -92.5 85.5t-33.5 128q0 72 33.5 127t93 85t133.5 30t133 -30t92.5 -85.5t33.5 -127.5t-33.5 -127.5t-92.5 -85.5t-133 -30q-75 0 -134 30.5zM582 0h-194l339 665h192zM342.5 380q19.5 27 19.5 77q0 51 -19.5 78.5t-56.5 27.5q-36 0 -55.5 -27
t-19.5 -78t19.5 -78t55.5 -27q37 0 56.5 27zM896.5 15q-58.5 30 -92 85.5t-33.5 127.5t33.5 127.5t92 86t132.5 30.5q75 0 134.5 -30.5t93 -86t33.5 -127.5t-34 -127t-93 -85.5t-134 -30.5q-74 0 -132.5 30zM1448 15q-59 30 -92 85.5t-33 127.5t33.5 127.5t92 86t132.5 30.5
q75 0 134.5 -30.5t93 -86t33.5 -127.5t-34 -127t-93 -85.5t-134 -30.5q-74 0 -133 30zM1085.5 150q19.5 27 19.5 78t-19.5 78t-56.5 27q-36 0 -55 -27t-19 -78t19 -78t55 -27q37 0 56.5 27zM1636.5 150q19.5 27 19.5 78t-19.5 78t-55.5 27t-55 -27t-19 -78t19 -78t55 -27
t55.5 27z" />
    <glyph glyph-name="guilsinglleft" unicode="&#x2039;" horiz-adv-x="460" 
d="M426 585l-169 -280l181 -305h-219l-188 304l176 281h219z" />
    <glyph glyph-name="guilsinglright" unicode="&#x203a;" horiz-adv-x="460" 
d="M34 585h219l176 -281l-188 -304h-219l181 305z" />
    <glyph glyph-name="fraction" unicode="&#x2044;" horiz-adv-x="210" 
d="M-17 0h-187l428 700h186z" />
    <glyph glyph-name="uni2070" unicode="&#x2070;" horiz-adv-x="527" 
d="M142 312.5q-53 28.5 -82.5 79.5t-29.5 117q0 67 29.5 119t82.5 81t122 29t122 -29t82 -81t29 -120q0 -66 -29 -117t-82 -79t-122 -28t-122 28.5zM314.5 440q18.5 24 18.5 68q0 46 -18.5 72t-50.5 26t-50.5 -26t-18.5 -71q0 -44 18 -68.5t51 -24.5q32 0 50.5 24z" />
    <glyph glyph-name="uni2074" unicode="&#x2074;" horiz-adv-x="502" 
d="M405 485h69v-102h-69v-87h-147v87h-231v110l176 233h202v-241zM258 608l-89 -123h89v123z" />
    <glyph glyph-name="uni2075" unicode="&#x2075;" horiz-adv-x="460" 
d="M386.5 537.5q42.5 -35.5 42.5 -95.5q0 -72 -59 -114.5t-159 -42.5q-50 0 -98 12.5t-73 31.5v108q31 -19 65 -28t79 -9q40 0 63 11t23 31t-21.5 31t-61.5 11t-76.5 -7.5t-62.5 -19.5v269h360v-118h-228v-53q39 18 92 18q72 0 114.5 -35.5z" />
    <glyph glyph-name="uni2076" unicode="&#x2076;" horiz-adv-x="499" 
d="M424.5 546.5q43.5 -38.5 43.5 -102.5q0 -47 -27.5 -84t-77 -57.5t-112.5 -20.5q-103 0 -161.5 56.5t-58.5 155.5q0 113 67.5 178.5t183.5 65.5q51 0 94.5 -10t71.5 -29v-128q-27 20 -63.5 31.5t-75.5 11.5q-52 0 -84.5 -24t-37.5 -68q16 30 48.5 46.5t74.5 16.5
q71 0 114.5 -38.5zM296.5 408q17.5 15 17.5 38t-17 38t-45 15q-26 0 -43.5 -15t-17.5 -38t17.5 -38t43.5 -15q27 0 44.5 15z" />
    <glyph glyph-name="uni2077" unicode="&#x2077;" horiz-adv-x="431" 
d="M28 606v120h383v-122l-200 -308h-182l221 310h-222z" />
    <glyph glyph-name="uni2078" unicode="&#x2078;" horiz-adv-x="492" 
d="M461 418q0 -61 -59 -98.5t-155 -37.5q-63 0 -112 17t-76 48t-27 71q0 39 20 64.5t61 39.5q-72 26 -72 91q0 37 26 65t73 44t107 16q91 0 147.5 -34.5t56.5 -90.5q0 -65 -71 -91q81 -27 81 -104zM207.5 618q-14.5 -11 -14.5 -31t14.5 -31.5t39.5 -11.5q24 0 38 11.5
t14 31.5q0 19 -14 30.5t-38 11.5q-25 0 -39.5 -11zM291.5 403q16.5 12 16.5 32q0 22 -16.5 34.5t-44.5 12.5q-29 0 -46 -12.5t-17 -34.5q0 -20 17.5 -32t45.5 -12t44.5 12z" />
    <glyph glyph-name="uni2079" unicode="&#x2079;" horiz-adv-x="496" 
d="M407 681.5q58 -56.5 58 -156.5q0 -113 -66 -178t-180 -65q-49 0 -94 12t-73 32v121q25 -24 61 -37t78 -13q53 0 83 24t35 69q-17 -29 -47.5 -44.5t-71.5 -15.5q-72 0 -115.5 38.5t-43.5 102.5q0 49 27 87t76 59t113 21q102 0 160 -56.5zM291 528q18 16 18 42
q0 25 -18 41.5t-45 16.5q-29 0 -47 -16.5t-18 -42.5q0 -25 17.5 -41t45.5 -16q29 0 47 16z" />
    <glyph glyph-name="uni20A9" unicode="&#x20a9;" horiz-adv-x="1220" 
d="M1186 454v-83h-107l-12 -47h119v-83h-140l-62 -241h-296l-42 241h-102l-40 -241h-267l-63 241h-140v83h119l-13 47h-106v83h85l-55 211h223l33 -211h104l41 211h278l42 -211h112l37 211h221l-54 -211h85zM608 454l-14 84l-14 -84h28zM407 371h-73l7 -47h57zM566 371
l-8 -47h73l-8 47h-57zM811 324h63l9 47h-82zM354 241l13 -77l15 77h-28zM827 241l18 -87l15 87h-33z" />
    <glyph glyph-name="Euro" unicode="&#x20ac;" horiz-adv-x="843" 
d="M699 173q58 18 94 43v-169q-64 -36 -127.5 -53t-145.5 -17q-156 0 -256.5 64.5t-133.5 176.5h-101v90h86v19q0 19 1 29h-87v90h104q37 110 138.5 172.5t255.5 62.5q79 0 139.5 -15t122.5 -44v-171q-34 24 -91.5 41t-120.5 17q-129 0 -186 -63h277l-23 -90h-292
q-1 -7 -1 -23q0 -17 1 -25h283l-23 -90h-220q58 -63 184 -63q64 0 122 18z" />
    <glyph glyph-name="uni20BF" unicode="&#x20bf;" horiz-adv-x="823" 
d="M740 74.5q-52 -51.5 -157 -67.5v-126h-123v119h-107v-119h-123v119h-162v665h162v120h123v-120h107v120h123v-126q89 -14 136 -57.5t47 -104.5q0 -49 -29.5 -83t-85.5 -48q70 -15 105.5 -58t35.5 -107q0 -75 -52 -126.5zM495.5 496q-18.5 14 -59.5 14h-135v-110h137
q38 0 57 13.5t19 38.5q0 30 -18.5 44zM301 155h138q50 0 73.5 16t23.5 49q0 29 -22 43t-69 14h-144v-122z" />
    <glyph glyph-name="uni2113" unicode="&#x2113;" 
d="M568 154q38 9 69 26v-156q-79 -39 -175 -39q-99 0 -176 34.5t-124 101.5q-68 -22 -139 -39v160q34 8 82 23q-6 36 -6 77q0 101 35 177.5t102.5 118.5t160.5 42q70 0 123.5 -23t82.5 -64t29 -94q0 -85 -68 -160.5t-200 -139.5q43 -54 132 -54q34 0 72 9zM322 355
q100 61 100 134q0 20 -8 30t-23 10q-31 0 -50 -45t-19 -122v-7z" />
    <glyph glyph-name="uni2116" unicode="&#x2116;" horiz-adv-x="1456" 
d="M1306 680q60 -30 92 -82t32 -117t-32 -117t-92 -82t-141 -30q-80 0 -140 30t-92 82t-32 117t32 117t92 82t140 30q81 0 141 -30zM402 700l237 -434v434h221v-700h-319l-246 442v-442h-222v700h329zM1226 423.5q22 22.5 22 57.5t-22 57t-61 22t-61 -21.5t-22 -57.5t22 -58
t61 -22t61 22.5z" />
    <glyph glyph-name="uni2117" unicode="&#x2117;" horiz-adv-x="884" 
d="M647 639q94 -46 148 -126.5t54 -180.5q0 -99 -54 -179.5t-148 -126.5t-210 -46t-210 46t-148 126.5t-54 179.5q0 100 54 180.5t148 126.5t210 46t210 -46zM604.5 97.5q73.5 34.5 115 95.5t41.5 139t-41.5 139.5t-115 96t-167.5 34.5t-167.5 -34.5t-115 -96t-41.5 -139.5
t41.5 -139t115 -95.5t167.5 -34.5t167.5 34.5zM522 507q64 0 100.5 -34t36.5 -90q0 -57 -41.5 -91t-105.5 -34h-104v-101h-131v350h245zM461 334q57 0 57 45q0 43 -53 43h-57v-88h53z" />
    <glyph glyph-name="trademark" unicode="&#x2122;" horiz-adv-x="1012" 
d="M925 666l37 -357h-125l-21 257l-73 -257h-123l-70 257l-21 -257h-114l31 357h185l58 -204l60 204h176zM29 665h371v-103h-124v-252h-125v252h-122v103z" />
    <glyph glyph-name="Omega" unicode="&#x2126;" horiz-adv-x="835" 
d="M759.5 257.5q-32.5 -54.5 -92.5 -84.5h109v-173h-333v225q51 13 80.5 49t29.5 87q0 57 -37 93.5t-99 36.5t-98.5 -36.5t-36.5 -93.5q0 -51 29 -87t81 -49v-225h-333v173h110q-61 30 -93.5 84.5t-32.5 116.5q0 89 47.5 159t133 108.5t193.5 38.5q109 0 194 -38.5
t133 -108.5t48 -159q0 -62 -32.5 -116.5z" />
    <glyph glyph-name="estimated" unicode="&#x212e;" horiz-adv-x="739" 
d="M214.5 26.5q-83.5 46.5 -130.5 126t-47 176.5q0 98 43.5 178t124.5 126.5t188 46.5q91 0 162.5 -37t112 -106.5t40.5 -161.5v-59h-461v-195q71 -44 166 -44q83 0 150.5 27.5t112.5 73.5v-103q-109 -95 -273 -95q-105 0 -188.5 46.5zM247 393h281v167q-56 35 -135 35
q-85 0 -146 -42v-160z" />
    <glyph glyph-name="onethird" unicode="&#x2153;" horiz-adv-x="1106" 
d="M24 639l165 89h131v-433h-160v281l-136 -74v137zM390 0h-187l428 700h186zM1052.5 182q22.5 -28 22.5 -68q0 -61 -58 -98.5t-153 -37.5q-104 0 -172 41v103q53 -35 137 -35q36 0 56.5 10.5t20.5 28.5q0 30 -55 30h-128l22 96h99q29 0 42.5 7t13.5 22q0 32 -72 32
q-40 0 -76 -10t-60 -28v118q33 18 79 27.5t95 9.5q89 0 142.5 -33t53.5 -88q0 -32 -19 -54.5t-54 -33.5q41 -11 63.5 -39z" />
    <glyph glyph-name="twothirds" unicode="&#x2154;" horiz-adv-x="1198" 
d="M255 406h157v-111h-373v95l123 76q45 26 62 45.5t17 43.5t-18 37t-52 13q-32 0 -70 -17.5t-62 -40.5v140q73 51 175 51q89 0 141 -40.5t52 -110.5q0 -104 -126 -168zM482 0h-187l428 700h186zM1144.5 182q22.5 -28 22.5 -68q0 -61 -58 -98.5t-153 -37.5q-104 0 -172 41
v103q53 -35 137 -35q36 0 56.5 10.5t20.5 28.5q0 30 -55 30h-128l22 96h99q29 0 42.5 7t13.5 22q0 32 -72 32q-40 0 -76 -10t-60 -28v118q33 18 79 27.5t95 9.5q89 0 142.5 -33t53.5 -88q0 -32 -19 -54.5t-54 -33.5q41 -11 63.5 -39z" />
    <glyph glyph-name="arrowleft" unicode="&#x2190;" horiz-adv-x="794" 
d="M296 454h471v-188h-473l209 -201h-242l-234 234v118l234 238h242z" />
    <glyph glyph-name="arrowup" unicode="&#x2191;" horiz-adv-x="620" 
d="M371 720l224 -234v-232l-181 196v-450h-208v448l-181 -194v232l228 234h118z" />
    <glyph glyph-name="arrowright" unicode="&#x2192;" horiz-adv-x="794" 
d="M291 655h242l234 -238v-118l-234 -234h-242l209 201h-473v188h471z" />
    <glyph glyph-name="arrowdown" unicode="&#x2193;" horiz-adv-x="636" 
d="M422 700v-450l181 196v-232l-224 -234h-118l-228 234v232l181 -194v448h208z" />
    <glyph glyph-name="uni2196" unicode="&#x2196;" horiz-adv-x="678" 
d="M347 535l306 -309l-137 -133l-306 306v-241l-165 154v388h380l166 -165h-244z" />
    <glyph glyph-name="uni2197" unicode="&#x2197;" horiz-adv-x="678" 
d="M87 535l166 165h380v-388l-165 -154v241l-306 -306l-137 133l306 309h-244z" />
    <glyph glyph-name="uni2198" unicode="&#x2198;" horiz-adv-x="684" 
d="M469 301v241l165 -154v-388h-380l-166 165h244l-306 309l137 133z" />
    <glyph glyph-name="uni2199" unicode="&#x2199;" horiz-adv-x="684" 
d="M521 607l137 -133l-306 -309h244l-166 -165h-380v388l165 154v-241z" />
    <glyph glyph-name="uni21A4" unicode="&#x21a4;" horiz-adv-x="901" 
d="M665 454v200h188v-591h-188v203h-363l209 -201h-242l-234 234v118l234 238h242l-207 -201h361z" />
    <glyph glyph-name="uni21A5" unicode="&#x21a5;" horiz-adv-x="660" 
d="M615 486v-232l-181 196v-272h181v-178h-570v178h181v270l-181 -194v232l228 234h118z" />
    <glyph glyph-name="uni21A6" unicode="&#x21a6;" horiz-adv-x="901" 
d="M390 655h242l234 -238v-118l-234 -234h-242l209 201h-363v-203h-188v591h188v-200h361z" />
    <glyph glyph-name="uni21A7" unicode="&#x21a7;" horiz-adv-x="660" 
d="M615 700v-178h-181v-272l181 196v-232l-224 -234h-118l-228 234v232l181 -194v270h-181v178h570z" />
    <glyph glyph-name="uni21B0" unicode="&#x21b0;" horiz-adv-x="835" 
d="M790 0h-208v311h-285l209 -201h-242l-234 234v118l234 238h242l-207 -201h491v-499z" />
    <glyph glyph-name="uni21B1" unicode="&#x21b1;" horiz-adv-x="835" 
d="M253 311v-311h-208v499h491l-207 201h242l234 -238v-118l-234 -234h-242l209 201h-285z" />
    <glyph glyph-name="uni21B2" unicode="&#x21b2;" horiz-adv-x="835" 
d="M582 389v311h208v-499h-491l207 -201h-242l-234 238v118l234 234h242l-209 -201h285z" />
    <glyph glyph-name="uni21B3" unicode="&#x21b3;" horiz-adv-x="835" 
d="M45 700h208v-311h285l-209 201h242l234 -234v-118l-234 -238h-242l207 201h-491v499z" />
    <glyph glyph-name="partialdiff" unicode="&#x2202;" horiz-adv-x="738" 
d="M520 641q88 -44 137.5 -129.5t49.5 -205.5q0 -110 -44.5 -183.5t-122 -109.5t-175.5 -36q-100 0 -176 32t-118 88.5t-42 128.5q0 66 31 114.5t86 74.5t125 26q74 0 128 -28t80 -76q-5 77 -58 123.5t-148 46.5q-63 0 -119 -17t-93 -43v180q43 27 111 42.5t145 15.5
q115 0 203 -44zM441 162.5q30 26.5 30 67.5q0 40 -30.5 66.5t-76.5 26.5q-49 0 -78.5 -26t-29.5 -67t31 -67.5t77 -26.5q47 0 77 26.5z" />
    <glyph glyph-name="Delta" unicode="&#x2206;" horiz-adv-x="764" 
d="M265 665h235l235 -509v-156h-706v156zM507 170l-125 284l-124 -284h249z" />
    <glyph glyph-name="product" unicode="&#x220f;" horiz-adv-x="953" 
d="M923 665v-197h-120v-468h-240v468h-173v-468h-240v468h-120v197h893z" />
    <glyph glyph-name="summation" unicode="&#x2211;" 
d="M52 665h579v-178h-324l209 -214l-210 -215h325v-178h-579v189l194 202l-194 201v193z" />
    <glyph glyph-name="minus" unicode="&#x2212;" 
d="M651 227h-626v189h626v-189z" />
    <glyph glyph-name="uni2215" unicode="&#x2215;" horiz-adv-x="593" 
d="M274 -120h-254l299 920h254z" />
    <glyph glyph-name="radical" unicode="&#x221a;" horiz-adv-x="854" 
d="M482 665h361v-186h-188l-227 -599h-235l-195 510h227l81 -236z" />
    <glyph glyph-name="infinity" unicode="&#x221e;" 
d="M100.5 190.5q-39.5 23.5 -62.5 63.5t-23 89t23 89t62.5 63.5t86.5 23.5q48 0 84.5 -18t67.5 -56q32 39 67 56.5t83 17.5q47 0 86.5 -23.5t62.5 -63.5t23 -89t-23 -89t-62.5 -63.5t-86.5 -23.5q-49 0 -83.5 17t-66.5 57q-32 -40 -67.5 -57t-84.5 -17q-47 0 -86.5 23.5z
M232.5 306q13.5 10 33.5 38q-19 26 -33 36t-31 10q-20 0 -33 -13.5t-13 -33.5t13 -33.5t33 -13.5q17 0 30.5 10zM507 309.5q13 13.5 13 33.5t-13 33.5t-32 13.5q-18 0 -32.5 -10t-32.5 -36q20 -28 33.5 -38t31.5 -10q19 0 32 13.5z" />
    <glyph glyph-name="integral" unicode="&#x222b;" horiz-adv-x="624" 
d="M70 -120q-37 10 -59 27v152q31 -21 75 -21q37 0 57 20.5t26 65.5l40 300q17 131 79.5 193.5t181.5 62.5q46 0 83 -10t59 -27v-152q-27 21 -65 21q-45 0 -67 -21t-28 -68l-41 -313q-16 -122 -78 -181t-180 -59q-46 0 -83 10z" />
    <glyph glyph-name="approxequal" unicode="&#x2248;" 
d="M375.5 72q-30.5 13 -66.5 37q-25 18 -42.5 26t-38.5 8q-20 0 -32.5 -14t-12.5 -42q0 -11 1 -18h-172q-1 13 -1 37q0 112 53.5 174t152.5 62q40 0 70.5 -12.5t67.5 -35.5q32 -19 51.5 -27.5t42.5 -8.5q26 0 39 16t10 58h169q5 -129 -51.5 -201t-163.5 -72q-46 0 -76.5 13z
M375.5 359q-30.5 13 -66.5 37q-25 18 -42.5 26t-38.5 8q-20 0 -32.5 -14t-12.5 -42q0 -11 1 -18h-172q-1 13 -1 37q0 112 53.5 174t152.5 62q40 0 70.5 -12.5t67.5 -35.5q32 -19 51.5 -27.5t42.5 -8.5q26 0 39 16t10 58h169q5 -129 -51.5 -201t-163.5 -72q-46 0 -76.5 13z
" />
    <glyph glyph-name="notequal" unicode="&#x2260;" 
d="M651 546v-189h-225l-28 -71h253v-189h-329l-48 -119h-146l48 119h-151v189h227l28 71h-255v189h331l44 109h146l-44 -109h149z" />
    <glyph glyph-name="lessequal" unicode="&#x2264;" 
d="M244 460l404 -50v-179l-625 127v202l625 127v-178zM24 27v189h626v-189h-626z" />
    <glyph glyph-name="greaterequal" unicode="&#x2265;" 
d="M28 509v178l625 -127v-202l-625 -127v179l404 50zM652 27h-626v189h626v-189z" />
    <glyph glyph-name="angleleft" unicode="&#x2329;" horiz-adv-x="436" 
d="M413 800l-169 -441l181 -479h-219l-188 478l176 442h219z" />
    <glyph glyph-name="angleright" unicode="&#x232a;" horiz-adv-x="436" 
d="M23 800h219l176 -442l-188 -478h-219l181 479z" />
    <glyph glyph-name="uni2460" unicode="&#x2460;" horiz-adv-x="894" 
d="M237 26q-94 46 -148 126.5t-54 179.5q0 100 54 180.5t148 126.5t210 46t210 -46t148 -126.5t54 -180.5q0 -99 -54 -179.5t-148 -126.5t-210 -46t-210 46zM614.5 97.5q73.5 34.5 115 95.5t41.5 139t-41.5 139.5t-115 96t-167.5 34.5t-167.5 -34.5t-115 -96t-41.5 -139.5
t41.5 -139t115 -95.5t167.5 -34.5t167.5 34.5zM540 133h-146v255l-123 -67v125l150 81h119v-394z" />
    <glyph glyph-name="uni2461" unicode="&#x2461;" horiz-adv-x="894" 
d="M237 26q-94 46 -148 126.5t-54 179.5q0 100 54 180.5t148 126.5t210 46t210 -46t148 -126.5t54 -180.5q0 -99 -54 -179.5t-148 -126.5t-210 -46t-210 46zM614.5 97.5q73.5 34.5 115 95.5t41.5 139t-41.5 139.5t-115 96t-167.5 34.5t-167.5 -34.5t-115 -96t-41.5 -139.5
t41.5 -139t115 -95.5t167.5 -34.5t167.5 34.5zM282 134v87l112 69q41 23 56.5 40.5t15.5 40.5q0 22 -16.5 33.5t-47.5 11.5q-29 0 -63.5 -16t-56.5 -37v128q69 46 159 46q82 0 129 -37t47 -100q0 -94 -115 -153l-24 -12h143v-101h-339z" />
    <glyph glyph-name="uni2462" unicode="&#x2462;" horiz-adv-x="894" 
d="M237 26q-94 46 -148 126.5t-54 179.5q0 100 54 180.5t148 126.5t210 46t210 -46t148 -126.5t54 -180.5q0 -99 -54 -179.5t-148 -126.5t-210 -46t-210 46zM614.5 97.5q73.5 34.5 115 95.5t41.5 139t-41.5 139.5t-115 96t-167.5 34.5t-167.5 -34.5t-115 -96t-41.5 -139.5
t41.5 -139t115 -95.5t167.5 -34.5t167.5 34.5zM355.5 133.5q-40.5 9.5 -71.5 27.5v94q48 -32 125 -32q33 0 51.5 9.5t18.5 26.5q0 27 -50 27h-117l20 87h90q27 0 39 6.5t12 20.5q0 29 -65 29q-37 0 -69.5 -9t-54.5 -26v107q30 16 71.5 25t86.5 9q82 0 130.5 -30t48.5 -80
q0 -29 -17.5 -49.5t-49.5 -29.5q38 -11 58 -36t20 -62q0 -56 -52.5 -90t-138.5 -34q-45 0 -85.5 9.5z" />
    <glyph glyph-name="uni2463" unicode="&#x2463;" horiz-adv-x="894" 
d="M237 26q-94 46 -148 126.5t-54 179.5q0 100 54 180.5t148 126.5t210 46t210 -46t148 -126.5t54 -180.5q0 -99 -54 -179.5t-148 -126.5t-210 -46t-210 46zM614.5 97.5q73.5 34.5 115 95.5t41.5 139t-41.5 139.5t-115 96t-167.5 34.5t-167.5 -34.5t-115 -96t-41.5 -139.5
t41.5 -139t115 -95.5t167.5 -34.5t167.5 34.5zM567 134h-133v79h-210v100l160 212h183v-219h63v-93h-63v-79zM434 418l-81 -112h81v112z" />
    <glyph glyph-name="uni2464" unicode="&#x2464;" horiz-adv-x="894" 
d="M237 26q-94 46 -148 126.5t-54 179.5q0 100 54 180.5t148 126.5t210 46t210 -46t148 -126.5t54 -180.5q0 -99 -54 -179.5t-148 -126.5t-210 -46t-210 46zM614.5 97.5q73.5 34.5 115 95.5t41.5 139t-41.5 139.5t-115 96t-167.5 34.5t-167.5 -34.5t-115 -96t-41.5 -139.5
t41.5 -139t115 -95.5t167.5 -34.5t167.5 34.5zM332 135q-44 11 -66 29v98q29 -17 60 -25t71 -8q37 0 58 10t21 28t-19.5 28t-56.5 10t-70 -7t-56 -18v245h327v-107h-207v-48q37 16 83 16q66 0 104.5 -32t38.5 -87q0 -65 -53.5 -104t-144.5 -39q-46 0 -90 11z" />
    <glyph glyph-name="uni2465" unicode="&#x2465;" horiz-adv-x="894" 
d="M237 26q-94 46 -148 126.5t-54 179.5q0 100 54 180.5t148 126.5t210 46t210 -46t148 -126.5t54 -180.5q0 -99 -54 -179.5t-148 -126.5t-210 -46t-210 46zM614.5 97.5q73.5 34.5 115 95.5t41.5 139t-41.5 139.5t-115 96t-167.5 34.5t-167.5 -34.5t-115 -96t-41.5 -139.5
t41.5 -139t115 -95.5t167.5 -34.5t167.5 34.5zM292.5 172.5q-53.5 51.5 -53.5 141.5q0 103 61.5 162.5t167.5 59.5q46 0 85.5 -9.5t64.5 -26.5v-116q-24 19 -57 29t-69 10q-48 0 -77 -22t-34 -61q15 27 44.5 42t67.5 15q65 0 104.5 -35t39.5 -93q0 -43 -25 -77t-70 -52.5
t-103 -18.5q-93 0 -146.5 51.5zM481 235.5q16 13.5 16 34.5q0 22 -16 35.5t-41 13.5q-24 0 -39.5 -14t-15.5 -35q0 -20 15.5 -34t39.5 -14q25 0 41 13.5z" />
    <glyph glyph-name="uni2466" unicode="&#x2466;" horiz-adv-x="894" 
d="M237 26q-94 46 -148 126.5t-54 179.5q0 100 54 180.5t148 126.5t210 46t210 -46t148 -126.5t54 -180.5q0 -99 -54 -179.5t-148 -126.5t-210 -46t-210 46zM614.5 97.5q73.5 34.5 115 95.5t41.5 139t-41.5 139.5t-115 96t-167.5 34.5t-167.5 -34.5t-115 -96t-41.5 -139.5
t41.5 -139t115 -95.5t167.5 -34.5t167.5 34.5zM445 134h-166l201 282h-202v109h348v-111z" />
    <glyph glyph-name="uni2467" unicode="&#x2467;" horiz-adv-x="894" 
d="M237 26q-94 46 -148 126.5t-54 179.5q0 100 54 180.5t148 126.5t210 46t210 -46t148 -126.5t54 -180.5q0 -99 -54 -179.5t-148 -126.5t-210 -46t-210 46zM614.5 97.5q73.5 34.5 115 95.5t41.5 139t-41.5 139.5t-115 96t-167.5 34.5t-167.5 -34.5t-115 -96t-41.5 -139.5
t41.5 -139t115 -95.5t167.5 -34.5t167.5 34.5zM304 155q-54 34 -54 90q0 71 74 94q-65 24 -65 83q0 51 52 82.5t135 31.5t134 -31.5t51 -82.5q0 -59 -65 -83q74 -24 74 -94q0 -56 -53.5 -90t-140.5 -34q-88 0 -142 34zM480.5 370.5q12.5 10.5 12.5 28.5q0 17 -12.5 27.5
t-34.5 10.5q-23 0 -36 -10.5t-13 -27.5q0 -18 13 -28.5t36 -10.5q22 0 34.5 10.5zM486 231.5q15 11.5 15 28.5q0 20 -15 31.5t-40 11.5q-27 0 -42 -11.5t-15 -31.5q0 -18 15.5 -29t41.5 -11q25 0 40 11.5z" />
    <glyph glyph-name="uni2468" unicode="&#x2468;" horiz-adv-x="894" 
d="M237 26q-94 46 -148 126.5t-54 179.5q0 100 54 180.5t148 126.5t210 46t210 -46t148 -126.5t54 -180.5q0 -99 -54 -179.5t-148 -126.5t-210 -46t-210 46zM614.5 97.5q73.5 34.5 115 95.5t41.5 139t-41.5 139.5t-115 96t-167.5 34.5t-167.5 -34.5t-115 -96t-41.5 -139.5
t41.5 -139t115 -95.5t167.5 -34.5t167.5 34.5zM343 132q-41 11 -67 29v110q22 -22 55 -33.5t71 -11.5q48 0 75.5 21.5t31.5 62.5q-15 -26 -43 -40t-65 -14q-65 0 -104.5 35t-39.5 93q0 68 54 110t142 42q93 0 145.5 -51.5t52.5 -142.5q0 -102 -60 -161.5t-163 -59.5
q-44 0 -85 11zM493 344.5q17 14.5 17 38.5q0 23 -16.5 38t-41.5 15q-26 0 -42.5 -15t-16.5 -39q0 -23 16 -37.5t41 -14.5q26 0 43 14.5z" />
    <glyph glyph-name="uni2469" unicode="&#x2469;" horiz-adv-x="894" 
d="M237 26q-94 46 -148 126.5t-54 179.5q0 100 54 180.5t148 126.5t210 46t210 -46t148 -126.5t54 -180.5q0 -99 -54 -179.5t-148 -126.5t-210 -46t-210 46zM614.5 97.5q73.5 34.5 115 95.5t41.5 139t-41.5 139.5t-115 96t-167.5 34.5t-167.5 -34.5t-115 -96t-41.5 -139.5
t41.5 -139t115 -95.5t167.5 -34.5t167.5 34.5zM463.5 152.5q-39.5 25.5 -61.5 71t-22 104.5q0 60 22 106.5t61.5 72.5t89.5 26t89.5 -26t61 -72.5t21.5 -107.5q0 -59 -21.5 -104.5t-61 -70.5t-89.5 -25t-89.5 25.5zM356 133h-114v267l-77 -59v115l107 71h84v-394zM590 266.5
q14 21.5 14 60.5q0 41 -14 64.5t-37 23.5q-24 0 -37 -23t-13 -64q0 -40 13 -61.5t37 -21.5q23 0 37 21.5z" />
    <glyph glyph-name="uni24EA" unicode="&#x24ea;" horiz-adv-x="899" 
d="M239 26q-94 46 -148 126.5t-54 179.5q0 100 54 180.5t148 126.5t210 46t210 -46t148 -126.5t54 -180.5q0 -99 -54 -179.5t-148 -126.5t-210 -46t-210 46zM616.5 97.5q73.5 34.5 115 95.5t41.5 139t-41.5 139.5t-115 96t-167.5 34.5t-167.5 -34.5t-115 -96t-41.5 -139.5
t41.5 -139t115 -95.5t167.5 -34.5t167.5 34.5zM340.5 151.5q-47.5 25.5 -74 71.5t-26.5 105q0 60 26.5 106.5t74 72.5t108.5 26q62 0 109.5 -26t73.5 -72.5t26 -107.5q0 -59 -26 -105t-73.5 -71t-109.5 -25q-61 0 -108.5 25.5zM494.5 266.5q16.5 21.5 16.5 60.5
q0 41 -16.5 64.5t-45.5 23.5q-28 0 -44.5 -23.5t-16.5 -63.5t16 -61.5t45 -21.5t45.5 21.5z" />
    <glyph glyph-name="uni24FF" unicode="&#x24ff;" horiz-adv-x="899" 
d="M659 26q94 46 148 126.5t54 179.5q0 100 -54 180.5t-148 126.5t-210 46t-210 -46t-148 -126.5t-54 -180.5q0 -99 54 -179.5t148 -126.5t210 -46t210 46zM340.5 151.5q-47.5 25.5 -74 71.5t-26.5 105q0 60 26.5 106.5t74 72.5t108.5 26q62 0 109.5 -26t73.5 -72.5
t26 -107.5q0 -59 -26 -105t-73.5 -71t-109.5 -25q-61 0 -108.5 25.5zM494.5 266.5q16.5 21.5 16.5 60.5q0 41 -16.5 64.5t-45.5 23.5q-28 0 -44.5 -23.5t-16.5 -63.5t16 -61.5t45 -21.5t45.5 21.5z" />
    <glyph glyph-name="filledbox" unicode="&#x25a0;" horiz-adv-x="733" 
d="M669 30h-605v605h605v-605z" />
    <glyph glyph-name="H22073" unicode="&#x25a1;" horiz-adv-x="733" 
d="M669 30h-605v605h605v-605zM165 537v-409h402v409h-402z" />
    <glyph glyph-name="triagup" unicode="&#x25b2;" horiz-adv-x="745" 
d="M725 30h-705l352 670z" />
    <glyph glyph-name="uni25B3" unicode="&#x25b3;" horiz-adv-x="745" 
d="M20 30l352 670l353 -670h-705zM179 124h387l-194 370z" />
    <glyph glyph-name="uni25B6" unicode="&#x25b6;" horiz-adv-x="722" 
d="M704 339l-620 -342v705z" />
    <glyph glyph-name="uni25B7" unicode="&#x25b7;" horiz-adv-x="722" 
d="M84 -3v705l620 -363zM187 156l339 186l-339 198v-384z" />
    <glyph glyph-name="triagdn" unicode="&#x25bc;" horiz-adv-x="739" 
d="M369 -35l-352 670h705z" />
    <glyph glyph-name="uni25BD" unicode="&#x25bd;" horiz-adv-x="739" 
d="M369 -35l-352 670h705zM369 171l194 370h-387z" />
    <glyph glyph-name="uni25C0" unicode="&#x25c0;" horiz-adv-x="722" 
d="M638 702v-705l-620 342z" />
    <glyph glyph-name="uni25C1" unicode="&#x25c1;" horiz-adv-x="722" 
d="M638 -3l-620 342l620 363v-705zM535 156v384l-339 -198z" />
    <glyph glyph-name="uni25C6" unicode="&#x25c6;" horiz-adv-x="891" 
d="M874 327l-431 -427l-425 427l425 428z" />
    <glyph glyph-name="uni25C7" unicode="&#x25c7;" horiz-adv-x="891" 
d="M874 327l-431 -427l-425 427l425 428zM159 327l284 -286l289 286l-289 288z" />
    <glyph glyph-name="lozenge" unicode="&#x25ca;" horiz-adv-x="693" 
d="M267 665h158l240 -325l-240 -340h-158l-239 340zM228 335l118 -171l118 171l-118 166z" />
    <glyph glyph-name="circle" unicode="&#x25cb;" horiz-adv-x="714" 
d="M193.5 51.5q-73.5 42.5 -116 116t-42.5 161.5q0 89 42.5 162.5t116 116.5t162.5 43t163 -43t116.5 -116.5t42.5 -162.5q0 -88 -42.5 -161.5t-116 -116t-163.5 -42.5q-89 0 -162.5 42.5zM465.5 137.5q49.5 29.5 78 80t28.5 111.5q0 62 -28.5 113t-78 80.5t-109.5 29.5
q-59 0 -108.5 -29.5t-78 -80.5t-28.5 -113q0 -61 28.5 -111.5t78 -80t108.5 -29.5q60 0 109.5 29.5z" />
    <glyph glyph-name="H18533" unicode="&#x25cf;" horiz-adv-x="714" 
d="M193.5 51.5q-73.5 42.5 -116 116t-42.5 161.5q0 89 42.5 162.5t116 116.5t162.5 43t163 -43t116.5 -116.5t42.5 -162.5q0 -88 -42.5 -161.5t-116 -116t-163.5 -42.5q-89 0 -162.5 42.5z" />
    <glyph glyph-name="uni2661" unicode="&#x2661;" horiz-adv-x="778" 
d="M693 642.5q52 -57.5 52 -152.5q0 -117 -87 -240.5t-270 -283.5q-180 159 -267.5 283t-87.5 241q0 95 52 152.5t137 57.5q58 0 102.5 -26.5t64.5 -76.5q20 50 64.5 76.5t102.5 26.5q85 0 137 -57.5zM580 312.5q59 88.5 59 166.5q0 57 -26 90.5t-71 33.5q-88 0 -100 -118
h-106q-12 118 -100 118q-45 0 -71 -33t-26 -90q0 -78 59 -167.5t190 -211.5q133 123 192 211.5z" />
    <glyph glyph-name="heart" unicode="&#x2665;" horiz-adv-x="778" 
d="M656 674q42 -26 65.5 -74t23.5 -110q0 -116 -87 -240t-270 -284q-178 157 -266.5 282t-88.5 243q0 62 23.5 109.5t66 73.5t96.5 26q67 0 111.5 -39t58.5 -105q14 66 58.5 105t111.5 39q55 0 97 -26z" />
    <glyph glyph-name="uni2776" unicode="&#x2776;" horiz-adv-x="894" 
d="M657 26q94 46 148 126.5t54 179.5q0 100 -54 180.5t-148 126.5t-210 46t-210 -46t-148 -126.5t-54 -180.5q0 -99 54 -179.5t148 -126.5t210 -46t210 46zM540 133h-146v255l-123 -67v125l150 81h119v-394z" />
    <glyph glyph-name="uni2777" unicode="&#x2777;" horiz-adv-x="894" 
d="M657 26q94 46 148 126.5t54 179.5q0 100 -54 180.5t-148 126.5t-210 46t-210 -46t-148 -126.5t-54 -180.5q0 -99 54 -179.5t148 -126.5t210 -46t210 46zM282 134v87l112 69q41 23 56.5 40.5t15.5 40.5q0 22 -16.5 33.5t-47.5 11.5q-29 0 -63.5 -16t-56.5 -37v128
q69 46 159 46q82 0 129 -37t47 -100q0 -94 -115 -153l-24 -12h143v-101h-339z" />
    <glyph glyph-name="uni2778" unicode="&#x2778;" horiz-adv-x="894" 
d="M657 26q94 46 148 126.5t54 179.5q0 100 -54 180.5t-148 126.5t-210 46t-210 -46t-148 -126.5t-54 -180.5q0 -99 54 -179.5t148 -126.5t210 -46t210 46zM355.5 133.5q-40.5 9.5 -71.5 27.5v94q48 -32 125 -32q33 0 51.5 9.5t18.5 26.5q0 27 -50 27h-117l20 87h90
q27 0 39 6.5t12 20.5q0 29 -65 29q-37 0 -69.5 -9t-54.5 -26v107q30 16 71.5 25t86.5 9q82 0 130.5 -30t48.5 -80q0 -29 -17.5 -49.5t-49.5 -29.5q38 -11 58 -36t20 -62q0 -56 -52.5 -90t-138.5 -34q-45 0 -85.5 9.5z" />
    <glyph glyph-name="uni2779" unicode="&#x2779;" horiz-adv-x="894" 
d="M657 26q94 46 148 126.5t54 179.5q0 100 -54 180.5t-148 126.5t-210 46t-210 -46t-148 -126.5t-54 -180.5q0 -99 54 -179.5t148 -126.5t210 -46t210 46zM567 134h-133v79h-210v100l160 212h183v-219h63v-93h-63v-79zM434 418l-81 -112h81v112z" />
    <glyph glyph-name="uni277A" unicode="&#x277a;" horiz-adv-x="894" 
d="M657 26q94 46 148 126.5t54 179.5q0 100 -54 180.5t-148 126.5t-210 46t-210 -46t-148 -126.5t-54 -180.5q0 -99 54 -179.5t148 -126.5t210 -46t210 46zM332 135q-44 11 -66 29v98q29 -17 60 -25t71 -8q37 0 58 10t21 28t-19.5 28t-56.5 10t-70 -7t-56 -18v245h327v-107
h-207v-48q37 16 83 16q66 0 104.5 -32t38.5 -87q0 -65 -53.5 -104t-144.5 -39q-46 0 -90 11z" />
    <glyph glyph-name="uni277B" unicode="&#x277b;" horiz-adv-x="894" 
d="M657 26q94 46 148 126.5t54 179.5q0 100 -54 180.5t-148 126.5t-210 46t-210 -46t-148 -126.5t-54 -180.5q0 -99 54 -179.5t148 -126.5t210 -46t210 46zM292.5 172.5q-53.5 51.5 -53.5 141.5q0 103 61.5 162.5t167.5 59.5q46 0 85.5 -9.5t64.5 -26.5v-116q-24 19 -57 29
t-69 10q-48 0 -77 -22t-34 -61q15 27 44.5 42t67.5 15q65 0 104.5 -35t39.5 -93q0 -43 -25 -77t-70 -52.5t-103 -18.5q-93 0 -146.5 51.5zM481 235.5q16 13.5 16 34.5q0 22 -16 35.5t-41 13.5q-24 0 -39.5 -14t-15.5 -35q0 -20 15.5 -34t39.5 -14q25 0 41 13.5z" />
    <glyph glyph-name="uni277C" unicode="&#x277c;" horiz-adv-x="894" 
d="M657 26q94 46 148 126.5t54 179.5q0 100 -54 180.5t-148 126.5t-210 46t-210 -46t-148 -126.5t-54 -180.5q0 -99 54 -179.5t148 -126.5t210 -46t210 46zM445 134h-166l201 282h-202v109h348v-111z" />
    <glyph glyph-name="uni277D" unicode="&#x277d;" horiz-adv-x="894" 
d="M657 26q94 46 148 126.5t54 179.5q0 100 -54 180.5t-148 126.5t-210 46t-210 -46t-148 -126.5t-54 -180.5q0 -99 54 -179.5t148 -126.5t210 -46t210 46zM304 155q-54 34 -54 90q0 71 74 94q-65 24 -65 83q0 51 52 82.5t135 31.5t134 -31.5t51 -82.5q0 -59 -65 -83
q74 -24 74 -94q0 -56 -53.5 -90t-140.5 -34q-88 0 -142 34zM480.5 370.5q12.5 10.5 12.5 28.5q0 17 -12.5 27.5t-34.5 10.5q-23 0 -36 -10.5t-13 -27.5q0 -18 13 -28.5t36 -10.5q22 0 34.5 10.5zM486 231.5q15 11.5 15 28.5q0 20 -15 31.5t-40 11.5q-27 0 -42 -11.5
t-15 -31.5q0 -18 15.5 -29t41.5 -11q25 0 40 11.5z" />
    <glyph glyph-name="uni277E" unicode="&#x277e;" horiz-adv-x="894" 
d="M657 26q94 46 148 126.5t54 179.5q0 100 -54 180.5t-148 126.5t-210 46t-210 -46t-148 -126.5t-54 -180.5q0 -99 54 -179.5t148 -126.5t210 -46t210 46zM343 132q-41 11 -67 29v110q22 -22 55 -33.5t71 -11.5q48 0 75.5 21.5t31.5 62.5q-15 -26 -43 -40t-65 -14
q-65 0 -104.5 35t-39.5 93q0 68 54 110t142 42q93 0 145.5 -51.5t52.5 -142.5q0 -102 -60 -161.5t-163 -59.5q-44 0 -85 11zM493 344.5q17 14.5 17 38.5q0 23 -16.5 38t-41.5 15q-26 0 -42.5 -15t-16.5 -39q0 -23 16 -37.5t41 -14.5q26 0 43 14.5z" />
    <glyph glyph-name="uni277F" unicode="&#x277f;" horiz-adv-x="894" 
d="M657 26q94 46 148 126.5t54 179.5q0 100 -54 180.5t-148 126.5t-210 46t-210 -46t-148 -126.5t-54 -180.5q0 -99 54 -179.5t148 -126.5t210 -46t210 46zM463.5 152.5q-39.5 25.5 -61.5 71t-22 104.5q0 60 22 106.5t61.5 72.5t89.5 26t89.5 -26t61 -72.5t21.5 -107.5
q0 -59 -21.5 -104.5t-61 -70.5t-89.5 -25t-89.5 25.5zM356 133h-114v267l-77 -59v115l107 71h84v-394zM590 266.5q14 21.5 14 60.5q0 41 -14 64.5t-37 23.5q-24 0 -37 -23t-13 -64q0 -40 13 -61.5t37 -21.5q23 0 37 21.5z" />
    <glyph glyph-name="uni300A" unicode="&#x300a;" horiz-adv-x="768" 
d="M413 800l-169 -441l181 -479h-219l-188 478l176 442h219zM745 800l-169 -441l181 -479h-219l-188 478l176 442h219z" />
    <glyph glyph-name="uni300B" unicode="&#x300b;" horiz-adv-x="768" 
d="M23 800h219l176 -442l-188 -478h-219l181 479zM355 800h219l176 -442l-188 -478h-219l181 479z" />
    <glyph glyph-name="uni300C" unicode="&#x300c;" horiz-adv-x="488" 
d="M291 306h-233v494h410v-168h-177v-326z" />
    <glyph glyph-name="uni300D" unicode="&#x300d;" horiz-adv-x="474" 
d="M184 374h233v-494h-410v168h177v326z" />
    <glyph glyph-name="uni300E" unicode="&#x300e;" horiz-adv-x="487" 
d="M287 317h-229v483h403v-209h-174v-274zM143 715v-313h59v254h173v59h-232z" />
    <glyph glyph-name="uni300F" unicode="&#x300f;" horiz-adv-x="476" 
d="M190 362h229v-483h-403v209h174v274zM334 -36v313h-59v-254h-173v-59h232z" />
    <glyph glyph-name="uni3010" unicode="&#x3010;" horiz-adv-x="437" 
d="M65 -120v921h380q-165 -189 -165 -457q0 -271 165 -464h-380z" />
    <glyph glyph-name="uni3011" unicode="&#x3011;" horiz-adv-x="437" 
d="M-8 -120q165 193 165 464q0 268 -165 457h380v-921h-380z" />
    <glyph glyph-name="uni3014" unicode="&#x3014;" horiz-adv-x="428" 
d="M421 8l-148 -147l-226 226v510l226 226l148 -147l-163 -163v-342z" />
    <glyph glyph-name="uni3015" unicode="&#x3015;" horiz-adv-x="428" 
d="M381 87l-226 -226l-148 147l163 163v342l-163 163l148 147l226 -226v-510z" />
    <glyph glyph-name="uniF8FF" unicode="&#xf8ff;" horiz-adv-x="983" 
d="M952 279v-11q0 -10 -2 -30q-4 -20 -5 -30q-2 -22 -2 -32q-2 -36 -42 -31q-10 1 -26 6q-14 5 -30 6q-44 2 -71 10q-7 3 -13 4l-3 1q-5 0 -8 -11q-10 -29 -24 -58q-19 -42 -34 -60q-20 -26 -58 -56q-26 -23 -57.5 -34t-76.5 -20q-58 -12 -100 -12q-30 0 -57 6q-18 4 -33 5
q-26 2 -38 5q-37 11 -77 37q-17 10 -36 27q-18 18 -20 22h-4q-13 0 -21 12q-3 8 -3 14q0 7 4 17l-3 5q-21 36 -33.5 70t-21.5 80q-7 36 -7 76q0 39 7 91q11 88 46 162q12 28 20 44t21 30q9 7 31 22l9 6q7 7 22 17q12 10 36 24q12 7 34 17q15 6 51 18q47 16 94 16q26 0 53 -5
q69 -11 140 -52q45 -24 73 -44t46 -47q23 -30 38 -66q12 -28 24 -73q5 -10 11 -37q9 3 26 11q12 6 28 12q16 5 40 20q14 9 24 9q14 0 23 -12q7 -9 7 -18q0 -8 -5 -21q-5 -20 -5 -45q0 -8 2 -32q5 -38 6 -65zM895 274q0 16 -1 24q-4 43 -4 83v11q-10 -6 -25 -11l-37 -14
q-32 -12 -51 -12q-10 0 -16 6t-11 21l-3 22q0 10 -2 24q-6 44 -26 84.5t-48 68.5q-50 49 -114 76.5t-128 27.5q-10 0 -32 -2q-48 -5 -91 -24q-56 -25 -78 -41q-22 -17 -36 -31t-23 -30q-30 -56 -39 -93q-10 -42 -17 -102q-4 -31 -4 -94q0 -26 17 -88q12 -45 25 -67
q37 57 38 111q1 35 -3 79q-2 12 -3.5 22t-2.5 17q0 2 -3 10.5t-3 17.5q0 22 22 27q22 0 31 -19.5t17 -74.5q5 -32 5 -62q0 -11 -2 -33q-4 -39 -24 -85q-11 -22 -23 -40l-16 -24q0 -2 7.5 -10.5t16.5 -16.5q7 -7 28 -17q22 -13 41 -20t44 -10q41 -6 88 -6q52 0 78 9
q23 8 36 10q28 2 44 10q6 2 16.5 12t18.5 21q38 28 50 42q20 29 31 61q14 21 15 31q0 2 1 4.5t2 6.5q-11 0 -16 1q-34 8 -50 9q-35 2 -44 16q-5 8 -5 17q0 13 10 21.5t25 7.5q39 -4 81 -17q11 -3 13 0q0 14 5 31q4 43 33 43q15 0 21.5 -6.5t6.5 -15.5q0 -5 -1.5 -9.5
t-2.5 -6.5q-8 -32 -10 -49q4 -2 6 -2q43 -9 88 -14q16 -2 28 -7q2 10 2 15q4 28 4 54zM437 439q0 -5 -5 -25q-4 -26 -11.5 -41t-29.5 -25q-25 -12 -48 -12q-22 0 -41 11q-14 8 -22 23q-11 29 -11 56q0 15 5 25t15 10q11 0 19 -9.5t10 -25.5q2 -26 16 -34q6 -2 10 -2
q14 0 25 8q6 6 9 25q2 12 9 24q11 17 26 17q10 0 17 -8q7 -7 7 -17zM652 453q12 0 18.5 -10t6.5 -28q0 -27 -15 -50t-38 -30q-25 -11 -44 -11q-16 0 -27 8q-15 10 -21 28t-9 47q-1 20 4.5 30t21.5 10q14 0 21 -8t7 -21q0 -35 6 -41q5 -1 15 3.5t14 9.5q3 6 5 24q2 12 7.5 22
t14.5 14q8 3 13 3z" />
    <glyph glyph-name="M.aalt" horiz-adv-x="1126" 
d="M565 317l109 383h386v-700h-241v491l-139 -491h-251l-132 496v-496h-231v700h397z" />
    <glyph glyph-name="a.salt" horiz-adv-x="855" 
d="M554 585h245v-585h-245v130q-60 -150 -241 -150q-85 0 -149.5 40t-99.5 111.5t-35 162.5q0 90 36 162t101.5 113.5t151.5 41.5q90 0 148 -38t88 -114v126zM517.5 203.5q37.5 36.5 37.5 94.5q0 56 -36.5 91t-99.5 35q-62 0 -99 -35.5t-37 -92.5t37 -93t98 -36
q62 0 99.5 36.5z" />
    <glyph glyph-name="aacute.aalt" horiz-adv-x="855" 
d="M554 585h245v-585h-245v130q-60 -150 -241 -150q-85 0 -149.5 40t-99.5 111.5t-35 162.5q0 90 36 162t101.5 113.5t151.5 41.5q90 0 148 -38t88 -114v126zM517.5 203.5q37.5 36.5 37.5 94.5q0 56 -36.5 91t-99.5 35q-62 0 -99 -35.5t-37 -92.5t37 -93t98 -36
q62 0 99.5 36.5zM495 650h-162l108 180h210z" />
    <glyph glyph-name="abreve.aalt" horiz-adv-x="855" 
d="M554 585h245v-585h-245v130q-60 -150 -241 -150q-85 0 -149.5 40t-99.5 111.5t-35 162.5q0 90 36 162t101.5 113.5t151.5 41.5q90 0 148 -38t88 -114v126zM517.5 203.5q37.5 36.5 37.5 94.5q0 56 -36.5 91t-99.5 35q-62 0 -99 -35.5t-37 -92.5t37 -93t98 -36
q62 0 99.5 36.5zM331 663.5q-44 21.5 -71 64t-29 102.5h126q2 -32 21 -51t49 -19q29 0 47 19t20 51h128q-4 -90 -59 -139t-136 -49q-52 0 -96 21.5z" />
    <glyph glyph-name="acircumflex.aalt" horiz-adv-x="855" 
d="M554 585h245v-585h-245v130q-60 -150 -241 -150q-85 0 -149.5 40t-99.5 111.5t-35 162.5q0 90 36 162t101.5 113.5t151.5 41.5q90 0 148 -38t88 -114v126zM517.5 203.5q37.5 36.5 37.5 94.5q0 56 -36.5 91t-99.5 35q-62 0 -99 -35.5t-37 -92.5t37 -93t98 -36
q62 0 99.5 36.5zM506 830l147 -180h-145l-84 82l-81 -82h-143l147 180h159z" />
    <glyph glyph-name="adieresis.aalt" horiz-adv-x="855" 
d="M554 585h245v-585h-245v130q-60 -150 -241 -150q-85 0 -149.5 40t-99.5 111.5t-35 162.5q0 90 36 162t101.5 113.5t151.5 41.5q90 0 148 -38t88 -114v126zM517.5 203.5q37.5 36.5 37.5 94.5q0 56 -36.5 91t-99.5 35q-62 0 -99 -35.5t-37 -92.5t37 -93t98 -36
q62 0 99.5 36.5zM220.5 675q-31.5 28 -31.5 66t31.5 64t76.5 26q46 0 76.5 -26t30.5 -64q0 -39 -31 -66.5t-76 -27.5t-76.5 28zM481.5 675q-31.5 28 -31.5 66t31.5 64t76.5 26q46 0 76.5 -26t30.5 -64q0 -39 -31 -66.5t-76 -27.5t-76.5 28z" />
    <glyph glyph-name="uni0227.aalt" horiz-adv-x="855" 
d="M554 585h245v-585h-245v130q-60 -150 -241 -150q-85 0 -149.5 40t-99.5 111.5t-35 162.5q0 90 36 162t101.5 113.5t151.5 41.5q90 0 148 -38t88 -114v126zM517.5 203.5q37.5 36.5 37.5 94.5q0 56 -36.5 91t-99.5 35q-62 0 -99 -35.5t-37 -92.5t37 -93t98 -36
q62 0 99.5 36.5zM331.5 673q-37.5 28 -37.5 72q0 43 38 70.5t96 27.5t94.5 -27.5t36.5 -70.5q0 -44 -36.5 -72t-94.5 -28q-59 0 -96.5 28z" />
    <glyph glyph-name="agrave.aalt" horiz-adv-x="855" 
d="M554 585h245v-585h-245v130q-60 -150 -241 -150q-85 0 -149.5 40t-99.5 111.5t-35 162.5q0 90 36 162t101.5 113.5t151.5 41.5q90 0 148 -38t88 -114v126zM517.5 203.5q37.5 36.5 37.5 94.5q0 56 -36.5 91t-99.5 35q-62 0 -99 -35.5t-37 -92.5t37 -93t98 -36
q62 0 99.5 36.5zM418 830l108 -180h-162l-156 180h210z" />
    <glyph glyph-name="amacron.aalt" horiz-adv-x="855" 
d="M554 585h245v-585h-245v130q-60 -150 -241 -150q-85 0 -149.5 40t-99.5 111.5t-35 162.5q0 90 36 162t101.5 113.5t151.5 41.5q90 0 148 -38t88 -114v126zM517.5 203.5q37.5 36.5 37.5 94.5q0 56 -36.5 91t-99.5 35q-62 0 -99 -35.5t-37 -92.5t37 -93t98 -36
q62 0 99.5 36.5zM644 659h-435v122h435v-122z" />
    <glyph glyph-name="aogonek.aalt" horiz-adv-x="855" 
d="M780 -133q20 5 35 13v-89q-54 -23 -108 -23q-73 0 -114.5 33t-41.5 89q0 34 14.5 62.5t42.5 47.5h-54v130q-60 -150 -241 -150q-85 0 -149.5 40t-99.5 111.5t-35 162.5q0 90 36 162t101.5 113.5t151.5 41.5q90 0 148 -38t88 -114v126h245v-585h-26q-53 0 -80 -23.5
t-27 -59.5q0 -26 20 -40.5t56 -14.5q18 0 38 5zM517.5 203.5q37.5 36.5 37.5 94.5q0 56 -36.5 91t-99.5 35q-62 0 -99 -35.5t-37 -92.5t37 -93t98 -36q62 0 99.5 36.5z" />
    <glyph glyph-name="aring.aalt" horiz-adv-x="855" 
d="M554 585h245v-585h-245v130q-60 -150 -241 -150q-85 0 -149.5 40t-99.5 111.5t-35 162.5q0 90 36 162t101.5 113.5t151.5 41.5q90 0 148 -38t88 -114v126zM517.5 203.5q37.5 36.5 37.5 94.5q0 56 -36.5 91t-99.5 35q-62 0 -99 -35.5t-37 -92.5t37 -93t98 -36
q62 0 99.5 36.5zM324 672q-39 36 -39 93q0 53 40 87.5t102 34.5q63 0 102 -35.5t39 -90.5t-39.5 -90t-101.5 -35q-64 0 -103 36zM462.5 727.5q13.5 13.5 13.5 35.5q0 20 -13.5 33t-35.5 13t-36 -13t-14 -33q0 -22 14 -35.5t36 -13.5t35.5 13.5z" />
    <glyph glyph-name="atilde.aalt" horiz-adv-x="855" 
d="M554 585h245v-585h-245v130q-60 -150 -241 -150q-85 0 -149.5 40t-99.5 111.5t-35 162.5q0 90 36 162t101.5 113.5t151.5 41.5q90 0 148 -38t88 -114v126zM517.5 203.5q37.5 36.5 37.5 94.5q0 56 -36.5 91t-99.5 35q-62 0 -99 -35.5t-37 -92.5t37 -93t98 -36
q62 0 99.5 36.5zM459 658.5q-22 8.5 -46 23.5q-19 10 -28.5 14.5t-20.5 4.5q-17 0 -25 -8.5t-8 -27.5h-107q-2 72 30 112.5t92 40.5q27 0 48 -8.5t45 -23.5q16 -10 27.5 -15t22.5 -5q34 0 31 36h109q2 -71 -30 -111.5t-91 -40.5q-27 0 -49 8.5z" />
    <glyph glyph-name="i.locl" horiz-adv-x="357" 
d="M83.5 610q-37.5 28 -37.5 72q0 43 38 70.5t96 27.5t94.5 -27.5t36.5 -70.5q0 -44 -36.5 -72t-94.5 -28q-59 0 -96.5 28zM301 0h-245v545h245v-545z" />
    <glyph glyph-name="t.ss03" horiz-adv-x="611" 
d="M593 410h-197v-170q0 -41 29.5 -64t81.5 -23q44 0 80 18v-163q-25 -12 -72 -20t-96 -8q-268 0 -268 240v190h-143v175h143v102l245 36v-138h197v-175z" />
    <glyph glyph-name="tbar.aalt" horiz-adv-x="613" 
d="M593 410h-197v-74h129v-66h-129v-30q0 -41 29.5 -64t81.5 -23q44 0 80 18v-163q-25 -12 -72 -20t-96 -8q-268 0 -268 240v50h-61v66h61v74h-143v175h143v102l245 36v-138h197v-175z" />
    <glyph glyph-name="tcaron.aalt" horiz-adv-x="611" 
d="M593 410h-197v-170q0 -41 29.5 -64t81.5 -23q44 0 80 18v-163q-25 -12 -72 -20t-96 -8q-268 0 -268 240v190h-143v175h143v102l245 36v-138h197v-175zM643 640h-162l108 180h210z" />
    <glyph glyph-name="uni0163.ss03" horiz-adv-x="611" 
d="M593 410h-197v-170q0 -41 29.5 -64t81.5 -23q44 0 80 18v-163q-25 -12 -72 -20t-96 -8h-17v-7h24q55 0 86.5 -28.5t31.5 -74.5q0 -49 -38 -80.5t-103 -31.5q-60 0 -121 23v91q50 -26 100 -26q22 0 34.5 8.5t12.5 22.5t-12.5 21.5t-34.5 7.5h-47v81q-184 34 -184 233v190
h-143v175h143v102l245 36v-138h197v-175z" />
    <glyph glyph-name="uni021B.aalt" horiz-adv-x="611" 
d="M593 410h-197v-170q0 -41 29.5 -64t81.5 -23q44 0 80 18v-163q-25 -12 -72 -20t-96 -8q-268 0 -268 240v190h-143v175h143v102l245 36v-138h197v-175zM361 -238h-142l68 180h190z" />
    <glyph glyph-name="u.ss04" horiz-adv-x="810" 
d="M202.5 17.5q-80.5 38.5 -118 104.5t-37.5 150v313h245v-283q0 -67 27 -98.5t86 -31.5t86 31.5t27 98.5v283h245v-313q0 -84 -38.5 -150t-118.5 -104.5t-201 -38.5q-122 0 -202.5 38.5z" />
    <glyph glyph-name="uacute.aalt" horiz-adv-x="810" 
d="M202.5 17.5q-80.5 38.5 -118 104.5t-37.5 150v313h245v-283q0 -67 27 -98.5t86 -31.5t86 31.5t27 98.5v283h245v-313q0 -84 -38.5 -150t-118.5 -104.5t-201 -38.5q-122 0 -202.5 38.5zM474 650h-162l108 180h210z" />
    <glyph glyph-name="ubreve.aalt" horiz-adv-x="810" 
d="M202.5 17.5q-80.5 38.5 -118 104.5t-37.5 150v313h245v-283q0 -67 27 -98.5t86 -31.5t86 31.5t27 98.5v283h245v-313q0 -84 -38.5 -150t-118.5 -104.5t-201 -38.5q-122 0 -202.5 38.5zM310 663.5q-44 21.5 -71 64t-29 102.5h126q2 -32 21 -51t49 -19q29 0 47 19t20 51
h128q-4 -90 -59 -139t-136 -49q-52 0 -96 21.5z" />
    <glyph glyph-name="ucircumflex.aalt" horiz-adv-x="810" 
d="M202.5 17.5q-80.5 38.5 -118 104.5t-37.5 150v313h245v-283q0 -67 27 -98.5t86 -31.5t86 31.5t27 98.5v283h245v-313q0 -84 -38.5 -150t-118.5 -104.5t-201 -38.5q-122 0 -202.5 38.5zM485 830l147 -180h-145l-84 82l-81 -82h-143l147 180h159z" />
    <glyph glyph-name="udieresis.aalt" horiz-adv-x="810" 
d="M202.5 17.5q-80.5 38.5 -118 104.5t-37.5 150v313h245v-283q0 -67 27 -98.5t86 -31.5t86 31.5t27 98.5v283h245v-313q0 -84 -38.5 -150t-118.5 -104.5t-201 -38.5q-122 0 -202.5 38.5zM199.5 675q-31.5 28 -31.5 66t31.5 64t76.5 26q46 0 76.5 -26t30.5 -64
q0 -39 -31 -66.5t-76 -27.5t-76.5 28zM460.5 675q-31.5 28 -31.5 66t31.5 64t76.5 26q46 0 76.5 -26t30.5 -64q0 -39 -31 -66.5t-76 -27.5t-76.5 28z" />
    <glyph glyph-name="ugrave.aalt" horiz-adv-x="810" 
d="M202.5 17.5q-80.5 38.5 -118 104.5t-37.5 150v313h245v-283q0 -67 27 -98.5t86 -31.5t86 31.5t27 98.5v283h245v-313q0 -84 -38.5 -150t-118.5 -104.5t-201 -38.5q-122 0 -202.5 38.5zM397 830l108 -180h-162l-156 180h210z" />
    <glyph glyph-name="uhungarumlaut.aalt" horiz-adv-x="810" 
d="M202.5 17.5q-80.5 38.5 -118 104.5t-37.5 150v313h245v-283q0 -67 27 -98.5t86 -31.5t86 31.5t27 98.5v283h245v-313q0 -84 -38.5 -150t-118.5 -104.5t-201 -38.5q-122 0 -202.5 38.5zM364 650h-127l78 180h155zM569 650h-127l78 180h155z" />
    <glyph glyph-name="umacron.aalt" horiz-adv-x="810" 
d="M202.5 17.5q-80.5 38.5 -118 104.5t-37.5 150v313h245v-283q0 -67 27 -98.5t86 -31.5t86 31.5t27 98.5v283h245v-313q0 -84 -38.5 -150t-118.5 -104.5t-201 -38.5q-122 0 -202.5 38.5zM623 659h-435v122h435v-122z" />
    <glyph glyph-name="uogonek.aalt" horiz-adv-x="810" 
d="M518 585h245v-313q0 -118 -74 -197t-223 -93q-17 -12 -25.5 -29t-8.5 -36q0 -26 20 -40.5t56 -14.5q18 0 38 5t35 13v-89q-54 -23 -108 -23q-73 0 -114.5 33t-41.5 89q0 53 35 91q-154 12 -229.5 91.5t-75.5 199.5v313h245v-283q0 -67 27 -98.5t86 -31.5t86 31.5t27 98.5
v283z" />
    <glyph glyph-name="uring.aalt" horiz-adv-x="810" 
d="M202.5 17.5q-80.5 38.5 -118 104.5t-37.5 150v313h245v-283q0 -67 27 -98.5t86 -31.5t86 31.5t27 98.5v283h245v-313q0 -84 -38.5 -150t-118.5 -104.5t-201 -38.5q-122 0 -202.5 38.5zM303 672q-39 36 -39 93q0 53 40 87.5t102 34.5q63 0 102 -35.5t39 -90.5t-39.5 -90
t-101.5 -35q-64 0 -103 36zM441.5 727.5q13.5 13.5 13.5 35.5q0 20 -13.5 33t-35.5 13t-36 -13t-14 -33q0 -22 14 -35.5t36 -13.5t35.5 13.5z" />
    <glyph glyph-name="utilde.aalt" horiz-adv-x="810" 
d="M202.5 17.5q-80.5 38.5 -118 104.5t-37.5 150v313h245v-283q0 -67 27 -98.5t86 -31.5t86 31.5t27 98.5v283h245v-313q0 -84 -38.5 -150t-118.5 -104.5t-201 -38.5q-122 0 -202.5 38.5zM438 658.5q-22 8.5 -46 23.5q-19 10 -28.5 14.5t-20.5 4.5q-17 0 -25 -8.5t-8 -27.5
h-107q-2 72 30 112.5t92 40.5q27 0 48 -8.5t45 -23.5q16 -10 27.5 -15t22.5 -5q34 0 31 36h109q2 -71 -30 -111.5t-91 -40.5q-27 0 -49 8.5z" />
    <glyph glyph-name="I_S_B_N.dlig" horiz-adv-x="2929" 
d="M316 0h-250v701h250v-701zM580.5 2.5q-86.5 23.5 -150.5 63.5v181q67 -42 147 -66t162 -24q60 0 88.5 11t28.5 34q0 21 -20 33t-71 21l-100 18q-124 22 -182 76.5t-58 143.5q0 68 39.5 119t120 79.5t198.5 28.5q100 0 173 -20.5t121 -49.5v-174q-44 25 -113 43t-149 18
q-129 0 -129 -42q0 -17 17 -26t65 -16l112 -18q123 -21 181 -72t58 -145q0 -72 -44 -126.5t-123.5 -84t-184.5 -29.5q-100 0 -186.5 23.5zM1942 324.5q37 -45.5 37 -112.5q0 -96 -79.5 -154t-239.5 -58h-443v700h457q90 0 152.5 -23t94 -63t31.5 -91q0 -52 -31 -87.5
t-90 -49.5q74 -16 111 -61.5zM1462 537v-116h144q80 0 80 55q0 31 -19.5 46t-62.5 15h-142zM1607 163q53 0 78 17t25 52q0 30 -23.5 45t-72.5 15h-152v-129h145zM2642 266v434h221v-700h-319l-246 442v-442h-222v700h329z" />
    <glyph glyph-name="ordfeminine.aalt" horiz-adv-x="792" 
d="M500 747h228v-527h-228v112q-26 -64 -78 -97t-128 -33t-134 35.5t-90 100t-32 147.5t33 147.5t92 101t135 36.5q75 0 125 -32.5t77 -98.5v108zM469.5 409q31.5 30 31.5 79q0 48 -31 76.5t-83 28.5t-82.5 -29t-30.5 -78q0 -48 30.5 -77.5t81.5 -29.5q52 0 83.5 30z" />
    <glyph glyph-name="a.superior" horiz-adv-x="537" 
d="M431 719q64 -58 64 -167v-210h-176v49q-43 -63 -134 -63q-70 0 -112 38t-42 100q0 63 45 100.5t119 37.5q41 0 71 -12.5t52 -40.5q-3 42 -36.5 65.5t-90.5 23.5q-81 0 -141 -51v131q81 57 197 57q120 0 184 -58zM301.5 444q17.5 12 17.5 32q0 19 -18 31t-47 12
q-25 0 -41 -12t-16 -32t15.5 -31.5t41.5 -11.5q30 0 47.5 12z" />
    <glyph glyph-name="a.superior.salt" horiz-adv-x="621" 
d="M394 757h178v-415h-178v77q-45 -89 -163 -89q-59 0 -105 28t-71 78.5t-25 115.5t26 115.5t72.5 79t105.5 28.5q113 0 160 -90v72zM369.5 492q25.5 24 25.5 62t-25 61t-66 23q-40 0 -65 -23.5t-25 -61.5t25 -61.5t65 -23.5t65.5 24z" />
    <glyph glyph-name="b.aalt" horiz-adv-x="624" 
d="M499.5 749q44.5 -28 69.5 -79t25 -116q0 -66 -25.5 -117.5t-71.5 -80t-104 -28.5q-113 0 -163 79v-65h-181v514h181v-169q23 44 65 67t102 23q58 0 102.5 -28zM380.5 492.5q24.5 22.5 24.5 60.5q0 37 -24 60t-64 23t-64 -23t-24 -61t23.5 -60t63.5 -22t64.5 22.5z" />
    <glyph glyph-name="c.aalt" horiz-adv-x="516" 
d="M156 358q-61 28 -94 78.5t-33 117.5q0 66 33.5 116t95 77.5t142.5 27.5q106 0 176 -45v-137q-23 18 -56.5 29.5t-72.5 11.5q-61 0 -97 -22t-36 -59q0 -38 35.5 -59.5t98.5 -21.5q37 0 71.5 11t58.5 27v-132q-76 -48 -181 -48q-80 0 -141 28z" />
    <glyph glyph-name="d.aalt" horiz-adv-x="621" 
d="M394 856h178v-514h-178v77q-23 -45 -66.5 -68t-103.5 -23q-57 0 -101 28t-68.5 79t-24.5 117q0 64 26 114t73 78.5t106 28.5q115 0 159 -90v173zM369.5 490q25.5 24 25.5 62t-25 61t-66 23q-40 0 -65 -23.5t-25 -61.5t25 -61.5t65 -23.5t65.5 24z" />
    <glyph glyph-name="e.aalt" horiz-adv-x="552" 
d="M519 516h-307q33 -50 138 -50q44 0 81 10t74 31v-125q-36 -24 -89 -38t-110 -14q-83 0 -146 28t-97 79t-34 119q0 65 32 115t89.5 77t133.5 27q113 0 174 -54t61 -154v-51zM236 632.5q-23 -13.5 -31 -37.5h169q-12 51 -82 51q-33 0 -56 -13.5z" />
    <glyph glyph-name="f.aalt" horiz-adv-x="482" 
d="M305 696h152v-119h-149v-235h-177v235h-111v119h108q-5 84 49.5 129.5t160.5 45.5q80 0 127 -27v-118q-31 21 -82 21q-75 0 -78 -51z" />
    <glyph glyph-name="g.aalt" horiz-adv-x="612" 
d="M387 755h177v-309q0 -117 -79 -182.5t-219 -65.5q-60 0 -114 14t-86 37v133q23 -23 68 -41t95 -18q153 0 158 135q-49 -90 -160 -90q-89 0 -143 54.5t-54 143.5q0 61 25 108t71 73t105 26q109 0 156 -90v72zM363.5 510.5q24.5 21.5 24.5 55.5q0 35 -24 56t-63 21
t-63 -21.5t-24 -56.5q0 -34 24 -55t62 -21q39 0 63.5 21.5z" />
    <glyph glyph-name="h.aalt" horiz-adv-x="599" 
d="M511.5 722.5q43.5 -50.5 43.5 -147.5v-233h-177v197q0 89 -73 89q-79 0 -79 -92v-194h-177v514h177v-181q23 50 62 74t96 24q84 0 127.5 -50.5z" />
    <glyph glyph-name="i.superior" horiz-adv-x="285" 
d="M74 767q-27 21 -27 53q0 31 27 51t69 20t68.5 -20t26.5 -51q0 -33 -26.5 -53.5t-68.5 -20.5t-69 21zM231 342h-177v387h177v-387z" />
    <glyph glyph-name="j.aalt" horiz-adv-x="276" 
d="M69.5 768.5q-27.5 20.5 -27.5 51.5q0 32 27.5 52.5t70.5 20.5q41 0 67.5 -20.5t26.5 -52.5t-26.5 -52t-67.5 -20q-43 0 -70.5 20.5zM2 204.5q-25 5.5 -41 15.5v116q12 -9 22.5 -13t24.5 -4q41 0 41 46v366h178v-388q0 -69 -45 -106.5t-127 -37.5q-28 0 -53 5.5z" />
    <glyph glyph-name="k.aalt" horiz-adv-x="564" 
d="M395 583l173 -241h-204l-138 205v-205h-177v514h177v-244l129 145h202z" />
    <glyph glyph-name="l.aalt" horiz-adv-x="285" 
d="M231 342h-177v514h177v-514z" />
    <glyph glyph-name="m.aalt" horiz-adv-x="861" 
d="M775.5 724.5q40.5 -48.5 40.5 -139.5v-243h-178v204q0 81 -56 81q-27 0 -43 -18t-18 -52v-215h-177v210q0 37 -14.5 56t-41.5 19q-31 0 -47.5 -26.5t-13.5 -73.5l-1 1v-186h-177v413h175v-76q38 94 143 94q53 0 89.5 -26t52.5 -75q37 101 149 101q77 0 117.5 -48.5z" />
    <glyph glyph-name="n.aalt" horiz-adv-x="599" 
d="M511.5 722.5q43.5 -50.5 43.5 -147.5v-233h-177v197q0 89 -73 89q-79 0 -79 -92v-194h-177v413h175v-85q23 53 62.5 78t97.5 25q84 0 127.5 -50.5z" />
    <glyph glyph-name="o.superior" horiz-adv-x="594" 
d="M158 358.5q-61 28.5 -95 79.5t-34 118q0 66 33 115.5t94 76.5t142 27t141.5 -27t93.5 -76.5t33 -115.5q0 -67 -33.5 -118t-94.5 -79.5t-140 -28.5t-140 28.5zM363.5 489q24.5 24 24.5 64t-24.5 63.5t-65.5 23.5q-42 0 -66.5 -23.5t-24.5 -63.5q0 -41 24.5 -64.5
t66.5 -23.5q41 0 65.5 24z" />
    <glyph glyph-name="p.aalt" horiz-adv-x="619" 
d="M496 747q44 -28 68.5 -78t24.5 -115q0 -66 -25 -117t-70 -79t-103 -28q-115 0 -165 83v-201h-177v545h177v-80q43 98 169 98q57 0 101 -28zM380 491.5q25 23.5 25 61.5t-24.5 61.5t-65.5 23.5q-40 0 -65 -24t-25 -62t24 -61t65 -23t66 23.5z" />
    <glyph glyph-name="q.aalt" horiz-adv-x="621" 
d="M394 757h178v-545h-178v207q-45 -89 -163 -89q-59 0 -105 28t-71 78.5t-25 115.5t26 115.5t72.5 79t105.5 28.5q113 0 160 -90v72zM369.5 492q25.5 24 25.5 62t-25 61t-66 23q-40 0 -65 -23.5t-25 -61.5t25 -61.5t65 -23.5t65.5 24z" />
    <glyph glyph-name="r.aalt" horiz-adv-x="432" 
d="M410 748v-160q-11 10 -30.5 15.5t-42.5 5.5q-110 0 -111 -131v-136h-177v415h174v-100q16 55 46 82t74 27q40 0 67 -18z" />
    <glyph glyph-name="s.aalt" horiz-adv-x="501" 
d="M139 345q-57 15 -103 44v125q32 -28 91 -46t115 -18q21 0 33.5 5t12.5 13q0 10 -5.5 15.5t-21.5 9.5l-87 19q-70 16 -102 46.5t-32 80.5q0 62 59 99t159 37q56 0 106.5 -12t84.5 -34v-118q-34 21 -78 33t-88 12q-61 0 -61 -18q0 -8 6.5 -12.5t32.5 -9.5l74 -13
q72 -13 104.5 -44t32.5 -88q0 -66 -57 -103.5t-158 -37.5q-61 0 -118 15z" />
    <glyph glyph-name="t.superior" horiz-adv-x="440" 
d="M300 753h123v-121h-123v-290h-169v290h-113v121h113v71l169 25v-96z" />
    <glyph glyph-name="t.superior.ss03" horiz-adv-x="457" 
d="M431 628h-137v-114q0 -26 19.5 -41t53.5 -15t59 15v-122q-17 -9 -51.5 -15t-68.5 -6q-190 0 -190 170v128h-99v129h99v70l178 26v-96h137v-129z" />
    <glyph glyph-name="u.superior" horiz-adv-x="597" 
d="M371 757h177v-415h-177v73q-23 -42 -62.5 -64t-93.5 -22q-82 0 -126 46.5t-44 133.5v248h177v-207q0 -44 17.5 -65t54.5 -21q77 0 77 90v203z" />
    <glyph glyph-name="u.superior.ss04" horiz-adv-x="589" 
d="M109 383.5q-66 54.5 -66 152.5v221h177v-200q0 -45 18 -65.5t56 -20.5q39 0 57 20.5t18 65.5v200h177v-221q0 -97 -66.5 -152t-185.5 -55t-185 54.5z" />
    <glyph glyph-name="v.aalt" horiz-adv-x="571" 
d="M286 529l91 228h189l-190 -415h-181l-190 415h189z" />
    <glyph glyph-name="w.aalt" horiz-adv-x="816" 
d="M571 523l57 234h178l-131 -415h-193l-78 236l-75 -236h-185l-135 415h186l55 -231l71 231h177z" />
    <glyph glyph-name="x.superior" horiz-adv-x="560" 
d="M412 562l145 -220h-205l-76 118l-74 -118h-197l143 220l-135 195h196l68 -106l71 106h199z" />
    <glyph glyph-name="y.aalt" horiz-adv-x="569" 
d="M284 545l95 212h189l-269 -531h-199l85 159l-179 372h190z" />
    <glyph glyph-name="z.aalt" horiz-adv-x="533" 
d="M487 640l-219 -171h232v-127h-464v117l218 173h-213v125h446v-117z" />
    <glyph glyph-name="zero.zero" horiz-adv-x="797" 
d="M588 638q82 -45 126.5 -125.5t44.5 -184.5q0 -101 -44.5 -180t-126.5 -122.5t-190 -43.5q-107 0 -189 44t-127 122.5t-45 180.5q0 103 45 183.5t127 125.5t189 45q108 0 190 -45zM309 449.5q-32 -45.5 -32 -120.5q0 -19 1 -28l182 176q-25 18 -62 18q-57 0 -89 -45.5z
M488 212.5q31 42.5 31 115.5q0 17 -1 25l-175 -170q26 -13 55 -13q59 0 90 42.5z" />
    <glyph glyph-name="zero.oldstyle.case" horiz-adv-x="798" 
d="M210 28q-82 46 -127.5 128.5t-45.5 188.5q0 108 45.5 192t127.5 131t189 47q108 0 190 -47t126.5 -131.5t44.5 -192.5q0 -106 -44.5 -188t-126.5 -128t-190 -46q-107 0 -189 46zM489 217q31 47 31 127q0 83 -31 132.5t-90 49.5q-57 0 -89 -49t-32 -132q0 -81 31.5 -128
t89.5 -47q59 0 90 47z" />
    <glyph glyph-name="one.oldstyle.case" horiz-adv-x="541" 
d="M23 563l255 137h195v-700h-233v487l-217 -117v193z" />
    <glyph glyph-name="two.oldstyle.case" horiz-adv-x="664" 
d="M342 155h278v-155h-571v140l190 123q74 47 102 83t28 80q0 45 -30.5 71.5t-90.5 26.5q-55 0 -109 -21t-91 -55v186q115 81 268 81q92 0 159 -30t102 -84.5t35 -126.5q0 -78 -47.5 -144.5t-148.5 -128.5z" />
    <glyph glyph-name="three.oldstyle.case" horiz-adv-x="678" 
d="M600 313q40 -47 40 -115q0 -64 -40.5 -113t-114.5 -76t-172 -27q-158 0 -265 64v148q32 -21 86 -35.5t124 -14.5q64 0 97.5 20t33.5 55q0 60 -106 60h-182l31 139h150q53 0 75.5 15.5t22.5 43.5q0 30 -30.5 46.5t-93.5 16.5q-66 0 -120.5 -15.5t-86.5 -37.5v172
q52 26 122 41t146 15q96 0 164.5 -25t103.5 -68.5t35 -98.5q0 -57 -34.5 -96t-101.5 -52q76 -15 116 -62z" />
    <glyph glyph-name="four.oldstyle.case" horiz-adv-x="742" 
d="M607 296h109v-150h-109v-146h-216v146h-368v170l276 384h308v-404zM391 542l-168 -246h168v246z" />
    <glyph glyph-name="five.oldstyle.case" horiz-adv-x="685" 
d="M540.5 423q54.5 -27 83.5 -75.5t29 -112.5q0 -74 -40 -131.5t-116.5 -89.5t-182.5 -32q-76 0 -149.5 19.5t-114.5 48.5v159q90 -55 222 -55q71 0 108.5 22.5t37.5 58.5q0 38 -35.5 59.5t-107.5 21.5q-59 0 -114 -11.5t-96 -28.5v424h553v-169h-363v-116q30 16 70.5 25.5
t85.5 9.5q75 0 129.5 -27z" />
    <glyph glyph-name="six.oldstyle.case" horiz-adv-x="755" 
d="M600 433q55 -27 86 -77.5t31 -118.5q0 -75 -42 -134t-118 -92.5t-176 -33.5q-99 0 -176.5 37.5t-122 114t-44.5 191.5q0 125 49.5 214t138 135t203.5 46q76 0 144.5 -16.5t111.5 -44.5v-188q-36 28 -92.5 46t-120.5 18q-94 0 -147 -48.5t-58 -129.5q26 50 79.5 79
t127.5 29q71 0 126 -27zM459 170q31 28 31 71q0 42 -29.5 69t-78.5 27q-47 0 -77 -27t-30 -69q0 -43 30 -71t77 -28q46 0 77 28z" />
    <glyph glyph-name="seven.oldstyle.case" horiz-adv-x="642" 
d="M29 518v182h591v-190l-313 -510h-266l349 518h-361z" />
    <glyph glyph-name="eight.oldstyle.case" horiz-adv-x="743" 
d="M668.5 302.5q35.5 -43.5 35.5 -109.5q0 -61 -39.5 -110.5t-114.5 -77.5t-177 -28t-177.5 28.5t-116 77.5t-40.5 111q0 65 36 108.5t117 63.5q-138 37 -138 152q0 55 38 100t110.5 71t170.5 26q97 0 168.5 -26t109.5 -71t38 -100t-32 -94t-105 -58q81 -20 116.5 -63.5z
M303.5 533q-25.5 -21 -25.5 -55q0 -35 25.5 -57t69.5 -22q43 0 68 22t25 57q0 34 -25 55t-68 21q-44 0 -69.5 -21zM451.5 161.5q29.5 22.5 29.5 57.5q0 38 -29 61t-79 23q-52 0 -81 -23t-29 -61q0 -35 29.5 -57.5t80.5 -22.5q49 0 78.5 22.5z" />
    <glyph glyph-name="nine.oldstyle.case" horiz-adv-x="750" 
d="M546.5 678q76.5 -37 120.5 -114t44 -193q0 -125 -48.5 -213.5t-135.5 -134.5t-200 -46q-74 0 -142.5 19t-112.5 50v172q37 -32 93 -51t119 -19q96 0 146.5 48.5t52.5 136.5q-26 -52 -78 -80.5t-123 -28.5t-126 27t-86.5 77.5t-31.5 119.5q0 77 41 137.5t117 95t177 34.5
q97 0 173.5 -37zM445.5 374.5q29.5 27.5 29.5 71.5q0 43 -29.5 71.5t-74.5 28.5q-48 0 -77 -29t-29 -73q0 -43 28.5 -70t75.5 -27t76.5 27.5z" />
    <glyph glyph-name="zero.oldstyle.case.zero" horiz-adv-x="798" 
d="M589 668q82 -47 126.5 -131.5t44.5 -192.5q0 -106 -44.5 -188t-126.5 -128t-190 -46q-107 0 -189 46t-127.5 128.5t-45.5 188.5q0 108 45.5 192t127.5 131t189 47q108 0 190 -47zM310 477q-32 -49 -32 -132q0 -15 2 -37l194 187q-29 31 -75 31q-57 0 -89 -49zM489 217
q31 47 31 127v15l-179 -173q26 -16 58 -16q59 0 90 47z" />
    <glyph glyph-name="zero.oldstyle" horiz-adv-x="788" 
d="M205 20.5q-82 40.5 -127 113.5t-45 167q0 95 45 169t127 115.5t189 41.5q108 0 190 -41.5t126.5 -115.5t44.5 -170q0 -94 -44.5 -166.5t-126.5 -113t-190 -40.5q-107 0 -189 40.5zM482.5 204q32.5 36 32.5 97q0 64 -32.5 101t-88.5 37t-88.5 -37t-32.5 -101q0 -61 33 -97
t88 -36q56 0 88.5 36z" />
    <glyph glyph-name="one.oldstyle" horiz-adv-x="534" 
d="M24 475l254 137h195v-612h-233v399l-216 -117v193z" />
    <glyph glyph-name="two.oldstyle" horiz-adv-x="654" 
d="M363 154h252v-154h-571v136l204 107q66 35 88.5 59.5t22.5 56.5q0 38 -28.5 60.5t-83.5 22.5t-109 -18.5t-91 -48.5v182q114 70 268 70q90 0 154.5 -28.5t98 -80.5t33.5 -122q0 -64 -38.5 -117t-130.5 -94z" />
    <glyph glyph-name="three.oldstyle" horiz-adv-x="666" 
d="M594 220.5q40 -47.5 40 -116.5q0 -64 -40.5 -114t-114.5 -77.5t-172 -27.5q-156 0 -265 65v150q31 -21 85.5 -35.5t124.5 -14.5q64 0 97.5 20t33.5 56q0 61 -96 61h-191l30 139h150q98 0 98 61q0 30 -30.5 46.5t-93.5 16.5q-67 0 -121 -16t-86 -38v175q54 26 123.5 41
t144.5 15q96 0 164.5 -25t103.5 -68.5t35 -99.5q0 -58 -34.5 -98t-102.5 -53q77 -15 117 -62.5z" />
    <glyph glyph-name="four.oldstyle" horiz-adv-x="727" 
d="M601 218h110v-144h-110v-174h-215v174h-369v163l276 375h308v-394zM386 456l-170 -238h170v238z" />
    <glyph glyph-name="five.oldstyle" horiz-adv-x="673" 
d="M535.5 331.5q54.5 -27.5 83 -76.5t28.5 -114q0 -75 -40 -133t-116.5 -90.5t-181.5 -32.5q-77 0 -150.5 19.5t-113.5 49.5v161q88 -56 221 -56q72 0 109 23t37 59q0 38 -35 60t-107 22q-60 0 -115 -11.5t-96 -28.5v429h554v-171h-364v-118q30 17 70.5 26.5t86.5 9.5
q75 0 129.5 -27.5z" />
    <glyph glyph-name="six.oldstyle" horiz-adv-x="748" 
d="M596 415q55 -26 86 -74.5t31 -114.5q0 -72 -42 -128.5t-118 -88.5t-176 -32q-98 0 -175.5 36t-122 109.5t-44.5 183.5q0 120 49.5 205.5t137.5 129.5t203 44q77 0 145 -15.5t111 -42.5v-180q-37 26 -93 43t-119 17q-95 0 -148 -46.5t-58 -124.5q26 49 80 77t128 28
q70 0 125 -26zM455 162.5q31 26.5 31 67.5t-29.5 67t-78.5 26q-46 0 -76.5 -26.5t-30.5 -66.5q0 -41 30 -67.5t77 -26.5q46 0 77 26.5z" />
    <glyph glyph-name="seven.oldstyle" horiz-adv-x="635" 
d="M25 430v182h591v-190l-313 -510h-266l350 518h-362z" />
    <glyph glyph-name="eight.oldstyle" horiz-adv-x="743" 
d="M668.5 289.5q35.5 -41.5 35.5 -105.5q0 -59 -39.5 -106t-115 -74t-177.5 -27t-177 27t-115.5 74.5t-40.5 106.5q0 63 36 104.5t118 60.5q-74 19 -106.5 55.5t-32.5 90.5q0 53 38 96t110 68t170 25q97 0 168.5 -25t109.5 -68t38 -96t-32.5 -90t-104.5 -56
q82 -19 117.5 -60.5zM302 510q-25 -20 -25 -53q0 -34 25.5 -54.5t69.5 -20.5q43 0 68 20.5t25 54.5q0 33 -25 53t-68 20q-45 0 -70 -20zM450.5 153.5q29.5 21.5 29.5 55.5q0 37 -29 59t-79 22q-51 0 -80 -22t-29 -59q0 -33 29.5 -55t79.5 -22q49 0 78.5 21.5z" />
    <glyph glyph-name="nine.oldstyle" horiz-adv-x="740" 
d="M541.5 590q76.5 -37 120.5 -115t44 -194q0 -126 -48.5 -215t-135 -135t-199.5 -46q-75 0 -143.5 19t-112.5 50v173q37 -32 93 -51t119 -19q98 0 148.5 51t50.5 144v11q-20 -61 -73 -95.5t-128 -34.5q-71 0 -126 27t-86.5 78t-31.5 121q0 77 41 138t116.5 95.5t177.5 34.5
q97 0 173.5 -37zM440.5 284.5q29.5 27.5 29.5 72.5q0 43 -29.5 71.5t-74.5 28.5q-47 0 -76.5 -29t-29.5 -73t28.5 -71t75.5 -27t76.5 27.5z" />
    <glyph glyph-name="zero.oldstyle.zero" horiz-adv-x="788" 
d="M584 585.5q82 -41.5 126.5 -115.5t44.5 -170q0 -93 -44.5 -165t-126.5 -112.5t-190 -40.5q-107 0 -189 40t-127 112.5t-45 166.5q0 95 45 169t127 115.5t189 41.5q108 0 190 -41.5zM305.5 402q-32.5 -37 -32.5 -101q0 -19 3 -34l169 162q-21 10 -51 10q-56 0 -88.5 -37z
M482.5 205.5q32.5 35.5 32.5 95.5q0 17 -1 24l-157 -150q20 -5 37 -5q56 0 88.5 35.5z" />
    <glyph glyph-name="zero.tnum" 
d="M167 24.5q-73 42.5 -112.5 120.5t-39.5 184q0 108 39.5 188t112.5 123t171 43t171 -43.5t112.5 -123.5t39.5 -188q0 -106 -39.5 -184t-112.5 -120t-171 -42t-171 42.5zM416 212.5q27 42.5 27 115.5q0 77 -27 122t-78 45q-49 0 -77 -45t-28 -121q0 -74 27.5 -116.5
t77.5 -42.5q51 0 78 42.5z" />
    <glyph glyph-name="one.tnum" 
d="M491 667v-504h173v-163h-616v163h198v285l-198 -111v193l238 137h205z" />
    <glyph glyph-name="two.tnum" 
d="M351 154h272v-154h-565v134l188 117q70 43 96.5 76.5t26.5 74.5q0 42 -29 67t-86 25q-54 0 -107 -20.5t-90 -52.5v186q114 76 265 76q92 0 158 -28.5t100.5 -80t34.5 -121.5q0 -74 -47 -135.5t-147 -121.5z" />
    <glyph glyph-name="three.tnum" 
d="M586.5 298q37.5 -44 37.5 -109q0 -61 -38.5 -108t-108.5 -73t-163 -26q-78 0 -141 16.5t-110 44.5v142q30 -20 81.5 -34t117.5 -14q58 0 89 19t31 53q0 26 -22 41.5t-71 15.5h-176l29 133h138q50 0 71 15t21 42q0 28 -27.5 44t-84.5 16q-63 0 -114.5 -15t-82.5 -36v165
q50 25 116.5 39t138.5 14q91 0 155.5 -23.5t98 -65t33.5 -94.5q0 -54 -32.5 -91.5t-95.5 -50.5q72 -16 109.5 -60z" />
    <glyph glyph-name="four.tnum" 
d="M573 282h97v-144h-97v-138h-210v138h-369v163l279 365h300v-384zM363 519l-173 -237h173v237z" />
    <glyph glyph-name="five.tnum" 
d="M570 371.5q61 -56.5 61 -148.5q0 -70 -37.5 -125t-109.5 -85.5t-172 -30.5q-73 0 -143.5 18.5t-108.5 46.5v151q86 -52 211 -52q58 0 88 21.5t30 55.5q0 36 -28.5 56.5t-85.5 20.5t-109.5 -10.5t-92.5 -27.5v404h526v-169h-334v-97q63 28 138 28q106 0 167 -56.5z" />
    <glyph glyph-name="six.tnum" 
d="M548 415q52 -26 81 -74.5t29 -114.5q0 -72 -39.5 -128.5t-111.5 -88.5t-166 -32q-93 0 -166 36t-115.5 109.5t-42.5 183.5q0 120 47 205.5t131 129.5t193 44q71 0 135.5 -16t104.5 -42v-180q-34 26 -87.5 43t-112.5 17q-88 0 -138 -45.5t-55 -122.5q25 48 76 75t119 27
q66 0 118 -26zM415 162q29 26 29 68q0 41 -27.5 67t-74.5 26q-44 0 -72 -26.5t-28 -66.5q0 -41 28 -67.5t72 -26.5t73 26z" />
    <glyph glyph-name="seven.tnum" 
d="M62 493v173h561v-181l-296 -485h-263l342 493h-344z" />
    <glyph glyph-name="eight.tnum" 
d="M613 289q33 -41 33 -105q0 -59 -36.5 -106t-106 -74t-164.5 -27q-94 0 -164 27t-107.5 74.5t-37.5 106.5q0 63 33.5 104.5t109.5 60.5q-68 19 -98.5 55.5t-30.5 90.5q0 53 35 96t102 68t158 25q90 0 156.5 -25t101.5 -68t35 -96q0 -54 -30 -90.5t-97 -55.5
q75 -20 108 -61zM274.5 510q-23.5 -20 -23.5 -53q0 -34 23.5 -54.5t64.5 -20.5q40 0 63 20.5t23 54.5q0 33 -23 53t-63 20q-41 0 -64.5 -20zM412 153.5q27 21.5 27 55.5q0 37 -26.5 59t-73.5 22t-74 -22t-27 -59q0 -33 27 -55t74 -22q46 0 73 21.5z" />
    <glyph glyph-name="nine.tnum" 
d="M501.5 649.5q72.5 -35.5 114.5 -109.5t42 -185q0 -120 -46.5 -205t-129 -129t-189.5 -44q-71 0 -136 18t-107 48v165q35 -30 88.5 -48.5t112.5 -18.5q94 0 142 48.5t48 137.5v12q-20 -58 -70 -91.5t-121 -33.5q-68 0 -120.5 26t-82.5 74.5t-30 114.5q0 74 39 132t111 91
t169 33q93 0 165.5 -35.5zM405 358.5q28 26.5 28 68.5q0 41 -28 68.5t-71 27.5q-45 0 -73 -27.5t-28 -70.5q0 -41 27 -67t72 -26t73 26.5z" />
    <glyph glyph-name="zero.tnum.zero" 
d="M509 639.5q73 -43.5 112.5 -123.5t39.5 -188q0 -106 -39.5 -184t-112.5 -120t-171 -42t-171 42.5t-112.5 120.5t-39.5 184q0 108 39.5 188t112.5 123t171 43t171 -43.5zM261 450q-28 -45 -28 -121v-11l162 157q-23 20 -57 20q-49 0 -77 -45zM416 212.5q27 42.5 27 115.5
q0 15 -1 22l-163 -158q25 -22 59 -22q51 0 78 42.5z" />
    <glyph glyph-name="zero.tnum.oldstyle" 
d="M164 22q-76 40 -117.5 112.5t-41.5 166.5q0 95 42 169t117.5 115.5t173.5 41.5q100 0 175.5 -41.5t116.5 -115.5t41 -170q0 -93 -41 -165t-116.5 -112.5t-175.5 -40.5q-98 0 -174 40zM406 205.5q25 35.5 25 95.5q0 64 -25 101t-68 37t-68 -37t-25 -101q0 -60 25 -95.5
t68 -35.5t68 35.5z" />
    <glyph glyph-name="one.tnum.oldstyle" 
d="M488 612v-449h173v-163h-616v163h198v230l-198 -111v193l238 137h205z" />
    <glyph glyph-name="two.tnum.oldstyle" 
d="M374 154h252v-154h-571v136l204 107q66 35 88.5 59.5t22.5 56.5q0 38 -28.5 60.5t-83.5 22.5t-109 -18.5t-91 -48.5v182q114 70 268 70q90 0 154.5 -28.5t98 -80.5t33.5 -122q0 -64 -38.5 -117t-130.5 -94z" />
    <glyph glyph-name="three.tnum.oldstyle" 
d="M599 220.5q40 -47.5 40 -116.5q0 -64 -40.5 -114t-114.5 -77.5t-172 -27.5q-156 0 -265 65v150q31 -21 85.5 -35.5t124.5 -14.5q64 0 97.5 20t33.5 56q0 61 -96 61h-191l30 139h150q98 0 98 61q0 30 -30.5 46.5t-93.5 16.5q-67 0 -121 -16t-86 -38v175q54 26 123.5 41
t144.5 15q96 0 164.5 -25t103.5 -68.5t35 -99.5q0 -58 -34.5 -98t-102.5 -53q77 -15 117 -62.5z" />
    <glyph glyph-name="four.tnum.oldstyle" 
d="M574 218h102v-144h-102v-174h-215v174h-359v163l276 375h298v-394zM359 442l-160 -224h160v224z" />
    <glyph glyph-name="five.tnum.oldstyle" 
d="M536.5 331.5q54.5 -27.5 83 -76.5t28.5 -114q0 -75 -40 -133t-116.5 -90.5t-181.5 -32.5q-77 0 -150.5 19.5t-113.5 49.5v161q88 -56 221 -56q72 0 109 23t37 59q0 38 -35 60t-107 22q-60 0 -115 -11.5t-96 -28.5v429h554v-171h-364v-118q30 17 70.5 26.5t86.5 9.5
q75 0 129.5 -27.5z" />
    <glyph glyph-name="six.tnum.oldstyle" 
d="M550 415q52 -26 81.5 -74.5t29.5 -114.5q0 -72 -39.5 -128.5t-112.5 -88.5t-168 -32q-94 0 -167 36t-115.5 109.5t-42.5 183.5q0 120 47 205.5t131 129.5t193 44q73 0 138 -15.5t106 -42.5v-180q-35 26 -88.5 43t-113.5 17q-91 0 -141.5 -46.5t-54.5 -124.5
q24 49 75.5 77t122.5 28q67 0 119 -26zM415.5 162.5q29.5 26.5 29.5 67.5t-28 67t-75 26q-44 0 -73 -26.5t-29 -66.5q0 -41 29 -67.5t73 -26.5t73.5 26.5z" />
    <glyph glyph-name="seven.tnum.oldstyle" 
d="M45 430v182h591v-190l-313 -522h-266l351 530h-363z" />
    <glyph glyph-name="eight.tnum.oldstyle" 
d="M613 289q33 -41 33 -105q0 -59 -36.5 -106t-106 -74t-164.5 -27q-94 0 -164 27t-107.5 74.5t-37.5 106.5q0 63 33.5 104.5t109.5 60.5q-68 19 -98.5 55.5t-30.5 90.5q0 53 35 96t102 68t158 25q90 0 156.5 -25t101.5 -68t35 -96q0 -54 -30 -90.5t-97 -55.5
q75 -20 108 -61zM274.5 510q-23.5 -20 -23.5 -53q0 -34 23.5 -54.5t64.5 -20.5q40 0 63 20.5t23 54.5q0 33 -23 53t-63 20q-41 0 -64.5 -20zM412 153.5q27 21.5 27 55.5q0 37 -26.5 59t-73.5 22t-74 -22t-27 -59q0 -33 27 -55t74 -22q46 0 73 21.5z" />
    <glyph glyph-name="nine.tnum.oldstyle" 
d="M501.5 589.5q72.5 -37.5 114.5 -115t42 -193.5q0 -126 -46.5 -215t-129 -135t-189.5 -46q-72 0 -137 19t-107 50v173q36 -32 89 -51t113 -19q94 0 142 51t48 144v12q-20 -61 -70 -96t-122 -35q-67 0 -119.5 27t-82.5 78t-30 121q0 77 39 138t111 95.5t169 34.5
q93 0 165.5 -37.5zM405 284.5q28 27.5 28 72.5q0 43 -28 71.5t-71 28.5q-45 0 -73 -29t-28 -73t27 -71t72 -27t73 27.5z" />
    <glyph glyph-name="zero.tnum.oldstyle.zero" 
d="M513.5 585.5q75.5 -41.5 116.5 -115.5t41 -170q0 -93 -41 -165t-116.5 -112.5t-175.5 -40.5q-98 0 -174 40t-117.5 112.5t-41.5 166.5q0 95 42 169t117.5 115.5t173.5 41.5q100 0 175.5 -41.5zM270 402q-25 -37 -25 -101v-9l139 133q-20 14 -46 14q-43 0 -68 -37z
M406 205.5q25 35.5 25 95.5q0 12 -1 18l-139 -134q20 -15 47 -15q43 0 68 35.5z" />
    <glyph glyph-name="zero.dnom" horiz-adv-x="527" 
d="M142 5.5q-53 28.5 -82.5 79.5t-29.5 117q0 67 29.5 119t82.5 81t122 29t122 -29t82 -81t29 -120q0 -66 -29 -117t-82 -79t-122 -28t-122 28.5zM314.5 133q18.5 24 18.5 68q0 46 -18.5 72t-50.5 26t-50.5 -26t-18.5 -71q0 -44 18 -68.5t51 -24.5q32 0 50.5 24z" />
    <glyph glyph-name="one.dnom" horiz-adv-x="370" 
d="M24 332l165 89h131v-433h-160v281l-136 -74v137z" />
    <glyph glyph-name="two.dnom" horiz-adv-x="448" 
d="M255 99h157v-111h-373v95l123 76q45 26 62 45.5t17 43.5t-18 37t-52 13q-32 0 -70 -17.5t-62 -40.5v140q73 51 175 51q89 0 141 -40.5t52 -110.5q0 -104 -126 -168z" />
    <glyph glyph-name="three.dnom" horiz-adv-x="454" 
d="M400.5 182q22.5 -28 22.5 -68q0 -61 -58 -98.5t-153 -37.5q-104 0 -172 41v103q53 -35 137 -35q36 0 56.5 10.5t20.5 28.5q0 30 -55 30h-128l22 96h99q29 0 42.5 7t13.5 22q0 32 -72 32q-40 0 -76 -10t-60 -28v118q33 18 79 27.5t95 9.5q89 0 142.5 -33t53.5 -88
q0 -32 -19 -54.5t-54 -33.5q41 -11 63.5 -39z" />
    <glyph glyph-name="four.dnom" horiz-adv-x="502" 
d="M405 178h69v-102h-69v-87h-147v87h-231v110l176 233h202v-241zM258 301l-89 -123h89v123z" />
    <glyph glyph-name="five.dnom" horiz-adv-x="460" 
d="M386.5 230.5q42.5 -35.5 42.5 -95.5q0 -72 -59 -114.5t-159 -42.5q-50 0 -98 12.5t-73 31.5v108q31 -19 65 -28t79 -9q40 0 63 11t23 31t-21.5 31t-61.5 11t-76.5 -7.5t-62.5 -19.5v269h360v-118h-228v-53q39 18 92 18q72 0 114.5 -35.5z" />
    <glyph glyph-name="six.dnom" horiz-adv-x="499" 
d="M424.5 239.5q43.5 -38.5 43.5 -102.5q0 -47 -27.5 -84t-77 -57.5t-112.5 -20.5q-103 0 -161.5 56.5t-58.5 155.5q0 113 67.5 178.5t183.5 65.5q51 0 94.5 -10t71.5 -29v-128q-27 20 -63.5 31.5t-75.5 11.5q-52 0 -84.5 -24t-37.5 -68q16 30 48.5 46.5t74.5 16.5
q71 0 114.5 -38.5zM296.5 101q17.5 15 17.5 38t-17 38t-45 15q-26 0 -43.5 -15t-17.5 -38t17.5 -38t43.5 -15q27 0 44.5 15z" />
    <glyph glyph-name="seven.dnom" horiz-adv-x="431" 
d="M28 299v120h383v-122l-200 -308h-182l221 310h-222z" />
    <glyph glyph-name="eight.dnom" horiz-adv-x="492" 
d="M461 111q0 -61 -59 -98.5t-155 -37.5q-63 0 -112 17t-76 48t-27 71q0 39 20 64.5t61 39.5q-72 26 -72 91q0 37 26 65t73 44t107 16q91 0 147.5 -34.5t56.5 -90.5q0 -65 -71 -91q81 -27 81 -104zM207.5 311q-14.5 -11 -14.5 -31t14.5 -31.5t39.5 -11.5q24 0 38 11.5
t14 31.5q0 19 -14 30.5t-38 11.5q-25 0 -39.5 -11zM291.5 96q16.5 12 16.5 32q0 22 -16.5 34.5t-44.5 12.5q-29 0 -46 -12.5t-17 -34.5q0 -20 17.5 -32t45.5 -12t44.5 12z" />
    <glyph glyph-name="nine.dnom" horiz-adv-x="496" 
d="M407 374.5q58 -56.5 58 -156.5q0 -113 -66 -178t-180 -65q-49 0 -94 12t-73 32v121q25 -24 61 -37t78 -13q53 0 83 24t35 69q-17 -29 -47.5 -44.5t-71.5 -15.5q-72 0 -115.5 38.5t-43.5 102.5q0 49 27 87t76 59t113 21q102 0 160 -56.5zM291 221q18 16 18 42
q0 25 -18 41.5t-45 16.5q-29 0 -47 -16.5t-18 -42.5q0 -25 17.5 -41t45.5 -16q29 0 47 16z" />
    <glyph glyph-name="zero.numr" horiz-adv-x="527" 
d="M142 312.5q-53 28.5 -82.5 79.5t-29.5 117q0 67 29.5 119t82.5 81t122 29t122 -29t82 -81t29 -120q0 -66 -29 -117t-82 -79t-122 -28t-122 28.5zM314.5 440q18.5 24 18.5 68q0 46 -18.5 72t-50.5 26t-50.5 -26t-18.5 -71q0 -44 18 -68.5t51 -24.5q32 0 50.5 24z" />
    <glyph glyph-name="one.numr" horiz-adv-x="370" 
d="M24 639l165 89h131v-433h-160v281l-136 -74v137z" />
    <glyph glyph-name="two.numr" horiz-adv-x="448" 
d="M255 406h157v-111h-373v95l123 76q45 26 62 45.5t17 43.5t-18 37t-52 13q-32 0 -70 -17.5t-62 -40.5v140q73 51 175 51q89 0 141 -40.5t52 -110.5q0 -104 -126 -168z" />
    <glyph glyph-name="three.numr" horiz-adv-x="454" 
d="M400.5 489q22.5 -28 22.5 -68q0 -61 -58 -98.5t-153 -37.5q-104 0 -172 41v103q53 -35 137 -35q36 0 56.5 10.5t20.5 28.5q0 30 -55 30h-128l22 96h99q29 0 42.5 7t13.5 22q0 32 -72 32q-40 0 -76 -10t-60 -28v118q33 18 79 27.5t95 9.5q89 0 142.5 -33t53.5 -88
q0 -32 -19 -54.5t-54 -33.5q41 -11 63.5 -39z" />
    <glyph glyph-name="four.numr" horiz-adv-x="502" 
d="M405 485h69v-102h-69v-87h-147v87h-231v110l176 233h202v-241zM258 608l-89 -123h89v123z" />
    <glyph glyph-name="five.numr" horiz-adv-x="460" 
d="M386.5 537.5q42.5 -35.5 42.5 -95.5q0 -72 -59 -114.5t-159 -42.5q-50 0 -98 12.5t-73 31.5v108q31 -19 65 -28t79 -9q40 0 63 11t23 31t-21.5 31t-61.5 11t-76.5 -7.5t-62.5 -19.5v269h360v-118h-228v-53q39 18 92 18q72 0 114.5 -35.5z" />
    <glyph glyph-name="six.numr" horiz-adv-x="499" 
d="M424.5 546.5q43.5 -38.5 43.5 -102.5q0 -47 -27.5 -84t-77 -57.5t-112.5 -20.5q-103 0 -161.5 56.5t-58.5 155.5q0 113 67.5 178.5t183.5 65.5q51 0 94.5 -10t71.5 -29v-128q-27 20 -63.5 31.5t-75.5 11.5q-52 0 -84.5 -24t-37.5 -68q16 30 48.5 46.5t74.5 16.5
q71 0 114.5 -38.5zM296.5 408q17.5 15 17.5 38t-17 38t-45 15q-26 0 -43.5 -15t-17.5 -38t17.5 -38t43.5 -15q27 0 44.5 15z" />
    <glyph glyph-name="seven.numr" horiz-adv-x="431" 
d="M28 606v120h383v-122l-200 -308h-182l221 310h-222z" />
    <glyph glyph-name="eight.numr" horiz-adv-x="492" 
d="M461 418q0 -61 -59 -98.5t-155 -37.5q-63 0 -112 17t-76 48t-27 71q0 39 20 64.5t61 39.5q-72 26 -72 91q0 37 26 65t73 44t107 16q91 0 147.5 -34.5t56.5 -90.5q0 -65 -71 -91q81 -27 81 -104zM207.5 618q-14.5 -11 -14.5 -31t14.5 -31.5t39.5 -11.5q24 0 38 11.5
t14 31.5q0 19 -14 30.5t-38 11.5q-25 0 -39.5 -11zM291.5 403q16.5 12 16.5 32q0 22 -16.5 34.5t-44.5 12.5q-29 0 -46 -12.5t-17 -34.5q0 -20 17.5 -32t45.5 -12t44.5 12z" />
    <glyph glyph-name="nine.numr" horiz-adv-x="496" 
d="M407 681.5q58 -56.5 58 -156.5q0 -113 -66 -178t-180 -65q-49 0 -94 12t-73 32v121q25 -24 61 -37t78 -13q53 0 83 24t35 69q-17 -29 -47.5 -44.5t-71.5 -15.5q-72 0 -115.5 38.5t-43.5 102.5q0 49 27 87t76 59t113 21q102 0 160 -56.5zM291 528q18 16 18 42
q0 25 -18 41.5t-45 16.5q-29 0 -47 -16.5t-18 -42.5q0 -25 17.5 -41t45.5 -16q29 0 47 16z" />
    <glyph glyph-name="exclamdown.aalt" horiz-adv-x="378" 
d="M290 692q39 -28 39 -72q0 -43 -39 -70.5t-102 -27.5q-62 0 -101 27.5t-39 70.5q0 44 39 72t101 28q63 0 102 -28zM66 474h243v-474h-243v474z" />
    <glyph glyph-name="questiondown.aalt" horiz-adv-x="684" 
d="M318 549.5q-39 27.5 -39 70.5q0 44 39 72t101 28q63 0 102 -28t39 -72q0 -43 -39 -70.5t-102 -27.5q-62 0 -101 27.5zM559 168.5q60 18.5 92 41.5v-168q-112 -67 -278 -67q-111 0 -189 30.5t-118 83t-40 116.5q0 60 29 105t82.5 69.5t122.5 24.5h40v70h243v-180h-128
q-69 0 -99 -18t-30 -52q0 -74 137 -74q76 0 136 18.5z" />
    <glyph glyph-name="hyphen.aalt" horiz-adv-x="577" 
d="M518 256h-459v204h459v-204z" />
    <glyph glyph-name="uni00AD.aalt" horiz-adv-x="577" 
d="M518 256h-459v204h459v-204z" />
    <glyph glyph-name="endash.aalt" horiz-adv-x="882" 
d="M823 267h-764v189h764v-189z" />
    <glyph glyph-name="emdash.aalt" horiz-adv-x="1122" 
d="M1063 267h-1004v189h1004v-189z" />
    <glyph glyph-name="guillemotleft.aalt" horiz-adv-x="792" 
d="M205 639h219l-169 -280l181 -305h-219l-188 304zM755 639l-169 -280l181 -305h-219l-188 304l176 281h219z" />
    <glyph glyph-name="guillemotright.aalt" horiz-adv-x="792" 
d="M20 639h219l176 -281l-188 -304h-219l181 305zM351 639h219l176 -281l-188 -304h-219l181 305z" />
    <glyph glyph-name="guilsinglleft.aalt" horiz-adv-x="478" 
d="M441 639l-169 -280l181 -305h-219l-188 304l176 281h219z" />
    <glyph glyph-name="guilsinglright.aalt" horiz-adv-x="461" 
d="M37 639h219l176 -281l-188 -304h-219l181 305z" />
    <glyph glyph-name="cent.aalt" 
d="M650 46q-85 -51 -193 -63v-102h-137v104q-98 12 -167 56t-104 110.5t-35 146.5q0 79 35.5 144.5t104.5 108t166 55.5v107h137v-105q112 -9 191 -60v-183q-35 24 -81.5 39t-99.5 15q-93 0 -145.5 -34t-52.5 -89q0 -54 51 -88.5t148 -34.5q50 0 98.5 14.5t83.5 35.5v-177z
" />
    <glyph glyph-name="currency.aalt" 
d="M576 196l81 -80l-102 -106l-89 88q-60 -30 -127 -30t-129 30l-89 -88l-102 106l81 80q-44 66 -44 146q0 76 44 143l-81 80l102 106l89 -88q59 32 129 32q69 0 129 -30l87 86l102 -106l-79 -79q42 -65 42 -144q0 -80 -44 -146zM397.5 283q22.5 23 22.5 59t-22.5 58.5
t-59.5 22.5t-60 -22.5t-23 -58.5t23 -59t60 -23t59.5 23z" />
    <glyph glyph-name="dollar.aalt" 
d="M596 59q-65 -59 -177 -75v-103h-137v101q-73 7 -136 28t-111 52v170q60 -39 133 -62t148 -23q49 0 72 10.5t23 32.5q0 20 -15.5 31.5t-56.5 18.5l-91 17q-113 21 -165.5 72.5t-52.5 135.5q0 85 64 141.5t188 69.5v110h137v-109q119 -11 204 -64v-164q-42 23 -104 40.5
t-134 17.5q-107 0 -107 -40q0 -17 13.5 -25t50.5 -15l102 -17q112 -19 164.5 -67.5t52.5 -136.5t-65 -147z" />
    <glyph glyph-name="Euro.aalt" 
d="M579.5 173q46.5 18 75.5 43v-169q-55 -36 -109 -53t-123 -17q-134 0 -221 64.5t-116 176.5h-87v90h74v19q0 19 1 29h-75v90h90q31 110 119 172.5t221 62.5q67 0 118 -15t104 -44v-171q-27 24 -73 41t-96 17q-106 0 -152 -63h221l-20 -90h-232q-1 -7 -1 -23q0 -17 1 -25
h224l-20 -90h-171q23 -31 61 -47t89 -16t97.5 18z" />
    <glyph glyph-name="florin.aalt" horiz-adv-x="692" 
d="M518 491.5q-27 -20.5 -34 -66.5h164v-140h-182l-8 -64q-16 -122 -83 -181t-195 -59q-52 0 -94.5 10t-67.5 27v152q39 -21 95 -21q47 0 72 20.5t31 65.5l7 50h-145v140h163q17 130 85 192.5t196 62.5q52 0 94.5 -10t67.5 -27v-152q-34 21 -85 21q-54 0 -81 -20.5z" />
    <glyph glyph-name="sterling.aalt" 
d="M463 487.5q-34 -21.5 -59 -69.5l-12 -25h171v-128h-235l-48 -96h369v-169h-633v123l70 142h-73v128h137l48 97q50 101 118.5 145.5t181.5 44.5q46 0 81.5 -8t69.5 -25v-166q-17 13 -43.5 20.5t-57.5 7.5q-51 0 -85 -21.5z" />
    <glyph glyph-name="yen.aalt" 
d="M450 666h226l-156 -274h99v-93h-152l-6 -11v-44h158v-93h-158v-151h-246v151h-155v93h155v47l-5 8h-150v93h97l-157 274h227l111 -209z" />
    <glyph glyph-name="uni20A9.aalt" 
d="M676 454v-83h-47l-5 -47h52v-83h-61l-26 -241h-205l-25 241h-60l-25 -241h-187l-26 241h-61v83h52l-5 47h-47v83h38l-23 211h147l13 -211h44l17 211h196l18 -211h51l16 211h144l-23 -211h38zM336 454l-8 77l-8 -77h16zM212 371h-31l3 -47h24zM312 371l-5 -47h43l-5 47
h-33zM462 324h29l3 47h-36zM189 241l5 -82l7 82h-12zM469 241l8 -92l7 92h-15z" />
    <glyph glyph-name="uni20BF.aalt" 
d="M631 82.5q-42 -49.5 -127 -69.5v-132h-123v119h-1h-96v-119h-123v119h-122v665h122v120h123v-120h97v120h123v-133q70 -18 106.5 -59t36.5 -96q0 -49 -25.5 -83t-75.5 -48q64 -15 95.5 -58t31.5 -107q0 -69 -42 -118.5zM411.5 496q-18.5 14 -59.5 14h-95v-110h97
q38 0 57 13.5t19 38.5q0 30 -18.5 44zM355 155q50 0 73.5 16t23.5 49q0 29 -22 43t-69 14h-104v-122h98z" />
    <glyph glyph-name="ampersand.aalt" horiz-adv-x="948" 
d="M955 0h-317l-47 44q-124 -57 -265 -57q-148 0 -233 53t-85 145q0 147 217 208q-33 36 -47.5 64.5t-14.5 59.5q0 58 39.5 104t108 72.5t153.5 26.5q78 0 138.5 -24t94 -67t33.5 -97q0 -55 -41 -97.5t-129 -81.5l78 -70q127 89 249 177l-1 -223q-78 -60 -107 -80z
M416.5 547.5q-17.5 -13.5 -17.5 -34.5q0 -15 11 -28t34 -32q37 13 54.5 28t17.5 34q0 21 -16.5 33.5t-41.5 12.5q-24 0 -41.5 -13.5zM454 174l-109 103q-29 -14 -42 -28.5t-13 -32.5q0 -26 25 -41.5t69 -15.5q33 0 70 15z" />
    </font>
</defs>
</svg>
